SplineFontDB: 3.0
FontName: FiraMath-Regular
FullName: Fira Math Regular
FamilyName: Fira Math
Weight: Regular
Copyright: 
Version: 
ItalicAngle: 0
UnderlinePosition: -100
UnderlineWidth: 50
Ascent: 800
Descent: 200
InvalidEm: 0
LayerCount: 2
Layer: 0 0 "Back" 1
Layer: 1 0 "Fore" 0
XUID: [1021 67 -1848208182 25139]
StyleMap: 0x0000
FSType: 0
OS2Version: 0
OS2_WeightWidthSlopeOnly: 0
OS2_UseTypoMetrics: 1
CreationTime: 1515392906
PfmFamily: 33
TTFWeight: 400
TTFWidth: 5
LineGap: 90
VLineGap: 0
OS2TypoAscent: 0
OS2TypoAOffset: 1
OS2TypoDescent: 0
OS2TypoDOffset: 1
OS2TypoLinegap: 90
OS2WinAscent: 0
OS2WinAOffset: 1
OS2WinDescent: 0
OS2WinDOffset: 1
HheadAscent: 0
HheadAOffset: 1
HheadDescent: 0
HheadDOffset: 1
OS2Vendor: 'PfEd'
MarkAttachClasses: 1
DEI: 91125
LangName: 1033
Encoding: UnicodeFull
Compacted: 1
UnicodeInterp: none
NameList: AGL For New Fonts
AntiAlias: 1
BeginPrivate: 0
EndPrivate
TeXData: 1 0 0 346030 173015 115343 552600 1048576 115343 783286 444596 497025 792723 393216 433062 380633 303038 157286 324010 404750 52429 2506097 1059062 262144
BeginChars: 1114880 2366

StartChar: uni0021
Encoding: 33 33 1
Width: 241
Flags: W
LayerCount: 2
Fore
SplineSet
170 689 m 1
 160 230 l 1
 79 230 l 1
 68 689 l 1
 170 689 l 1
120 127 m 0
 160 127 190 96 190 58 c 0
 190 19 160 -12 120 -12 c 0
 81 -12 51 19 51 58 c 0
 51 96 81 127 120 127 c 0
EndSplineSet
Validated: 1
EndChar

StartChar: uni0022
Encoding: 34 34 2
Width: 399
Flags: W
LayerCount: 2
Fore
SplineSet
75 427 m 1
 60 689 l 1
 159 689 l 1
 144 427 l 1
 75 427 l 1
255 427 m 1
 240 689 l 1
 339 689 l 1
 324 427 l 1
 255 427 l 1
EndSplineSet
Validated: 1
EndChar

StartChar: uni0023
Encoding: 35 35 3
Width: 518
Flags: W
LayerCount: 2
Fore
SplineSet
503 447 m 1
 427 447 l 1
 399 232 l 1
 466 232 l 1
 466 163 l 1
 389 163 l 1
 368 0 l 1
 290 0 l 1
 311 163 l 1
 157 163 l 1
 136 0 l 1
 58 0 l 1
 79 163 l 1
 15 163 l 1
 15 232 l 1
 89 232 l 1
 117 447 l 1
 52 447 l 1
 52 517 l 1
 126 517 l 1
 146 669 l 1
 224 669 l 1
 204 517 l 1
 358 517 l 1
 378 669 l 1
 456 669 l 1
 436 517 l 1
 503 517 l 1
 503 447 l 1
321 232 m 1
 349 447 l 1
 195 447 l 1
 167 232 l 1
 321 232 l 1
EndSplineSet
Validated: 1
EndChar

StartChar: uni0024
Encoding: 36 36 4
Width: 531
Flags: W
LayerCount: 2
Fore
SplineSet
491 186 m 0
 491 86 425 11 310 -8 c 1
 310 -155 l 1
 230 -155 l 1
 230 -11 l 1
 144 -7 77 24 25 75 c 1
 79 134 l 1
 124 90 179 64 251 64 c 0
 330 64 395 103 395 183 c 0
 395 248 364 277 250 312 c 0
 120 352 52 402 52 505 c 0
 52 599 125 666 230 678 c 1
 230 824 l 1
 310 824 l 1
 310 677 l 1
 377 670 425 644 470 602 c 1
 417 544 l 1
 371 587 323 604 267 604 c 0
 200 604 147 573 147 509 c 0
 147 453 173 426 293 389 c 0
 400 356 491 314 491 186 c 0
EndSplineSet
Validated: 1
EndChar

StartChar: uni0025
Encoding: 37 37 5
Width: 826
Flags: W
LayerCount: 2
Fore
SplineSet
613 711 m 1
 677 669 l 1
 214 -31 l 1
 150 11 l 1
 613 711 l 1
207 679 m 0
 301 679 370 614 370 510 c 0
 370 406 301 341 207 341 c 0
 114 341 45 406 45 510 c 0
 45 614 114 679 207 679 c 0
207 617 m 0
 143 617 126 564 126 510 c 0
 126 458 143 403 207 403 c 0
 272 403 288 456 288 510 c 0
 288 562 272 617 207 617 c 0
619 326 m 0
 713 326 781 261 781 157 c 0
 781 53 713 -12 619 -12 c 0
 525 -12 456 53 456 157 c 0
 456 261 525 326 619 326 c 0
619 263 m 0
 555 263 538 211 538 157 c 0
 538 105 555 50 619 50 c 0
 684 50 700 103 700 157 c 0
 700 209 684 263 619 263 c 0
EndSplineSet
Validated: 1
EndChar

StartChar: uni0026
Encoding: 38 38 6
Width: 729
Flags: W
LayerCount: 2
Fore
SplineSet
302 701 m 0
 411 701 485 636 485 549 c 0
 485 463 419 410 344 366 c 1
 520 200 l 1
 543 247 565 304 580 369 c 1
 666 344 l 1
 641 262 610 197 577 147 c 1
 689 42 l 1
 623 -12 l 1
 526 82 l 1
 470 21 400 -12 305 -12 c 0
 173 -12 81 61 81 175 c 0
 81 262 135 320 220 374 c 1
 161 431 123 477 123 546 c 0
 123 633 186 701 302 701 c 0
303 633 m 0
 245 633 213 596 213 547 c 0
 213 495 244 460 292 415 c 1
 354 453 395 491 395 544 c 0
 395 600 359 633 303 633 c 0
273 324 m 1
 207 281 175 237 175 178 c 0
 175 104 233 61 315 61 c 0
 379 61 428 87 473 133 c 1
 273 324 l 1
EndSplineSet
Validated: 1
EndChar

StartChar: uni0027
Encoding: 39 39 7
Width: 219
Flags: W
LayerCount: 2
Fore
SplineSet
75 427 m 1
 60 689 l 1
 159 689 l 1
 144 427 l 1
 75 427 l 1
EndSplineSet
Validated: 1
EndChar

StartChar: uni0028
Encoding: 40 40 8
Width: 324
Flags: W
LayerCount: 2
Fore
SplineSet
226 775 m 1
 284 735 l 1
 194 602 136 495 136 280 c 0
 136 66 194 -42 284 -175 c 1
 226 -215 l 1
 128 -76 40 43 40 280 c 0
 40 517 128 636 226 775 c 1
EndSplineSet
EndChar

StartChar: uni0029
Encoding: 41 41 9
Width: 324
Flags: W
LayerCount: 2
Fore
SplineSet
98 775 m 1
 196 636 284 517 284 280 c 0
 284 43 196 -76 98 -215 c 1
 40 -175 l 1
 130 -42 188 66 188 280 c 0
 188 495 130 602 40 735 c 1
 98 775 l 1
EndSplineSet
EndChar

StartChar: uni002A
Encoding: 42 42 10
Width: 439
Flags: W
LayerCount: 2
Fore
SplineSet
419 561 m 1
 266 528 l 1
 370 412 l 1
 298 359 l 1
 219 493 l 1
 141 359 l 1
 69 411 l 1
 172 528 l 1
 20 561 l 1
 47 643 l 1
 189 582 l 1
 174 739 l 1
 264 739 l 1
 249 581 l 1
 391 644 l 1
 419 561 l 1
EndSplineSet
Validated: 1
EndChar

StartChar: uni002B
Encoding: 43 43 11
Width: 500
Flags: W
LayerCount: 2
Fore
SplineSet
292 468 m 1
 292 318 l 1
 438 318 l 1
 438 242 l 1
 292 242 l 1
 292 92 l 1
 208 92 l 1
 208 242 l 1
 62 242 l 1
 62 318 l 1
 208 318 l 1
 208 468 l 1
 292 468 l 1
EndSplineSet
EndChar

StartChar: uni002C
Encoding: 44 44 12
Width: 240
Flags: W
LayerCount: 2
Fore
SplineSet
119 127 m 0
 159 127 189 96 189 58 c 0
 189 36 184 16 171 -13 c 2
 104 -166 l 1
 38 -166 l 1
 78 0 l 1
 61 13 50 34 50 58 c 0
 50 96 80 127 119 127 c 0
EndSplineSet
Validated: 1
EndChar

StartChar: uni002D
Encoding: 45 45 13
Width: 403
Flags: W
LayerCount: 2
Fore
SplineSet
60 274 m 1
 60 352 l 1
 343 352 l 1
 343 274 l 1
 60 274 l 1
EndSplineSet
Validated: 1
EndChar

StartChar: uni002E
Encoding: 46 46 14
Width: 240
Flags: W
LayerCount: 2
Fore
SplineSet
119 127 m 0
 159 127 189 96 189 58 c 0
 189 19 159 -12 119 -12 c 0
 80 -12 50 19 50 58 c 0
 50 96 80 127 119 127 c 0
EndSplineSet
Validated: 1
EndChar

StartChar: uni002F
Encoding: 47 47 15
Width: 520
Flags: W
LayerCount: 2
Fore
SplineSet
337 737 m 1
 415 719 l 1
 184 -174 l 1
 105 -155 l 1
 337 737 l 1
EndSplineSet
EndChar

StartChar: uni0030
Encoding: 48 48 16
Width: 560
Flags: W
LayerCount: 2
Fore
SplineSet
280 701 m 0
 430 701 504 577 504 345 c 0
 504 112 430 -12 280 -12 c 0
 130 -12 56 112 56 345 c 0
 56 578 130 701 280 701 c 0
280 628 m 0
 196 628 152 552 152 345 c 0
 152 137 196 61 280 61 c 0
 363 61 408 137 408 345 c 0
 408 552 363 628 280 628 c 0
EndSplineSet
EndChar

StartChar: uni0031
Encoding: 49 49 17
Width: 560
Flags: W
LayerCount: 2
Fore
SplineSet
276 0 m 1
 276 591 l 1
 120 496 l 1
 80 561 l 1
 287 689 l 1
 368 689 l 1
 368 0 l 1
 276 0 l 1
EndSplineSet
EndChar

StartChar: uni0032
Encoding: 50 50 18
Width: 560
Flags: W
LayerCount: 2
Fore
SplineSet
258 701 m 0
 391 701 469 617 469 508 c 0
 469 383 389 282 164 77 c 1
 485 77 l 1
 474 0 l 1
 59 0 l 1
 59 73 l 1
 315 319 373 395 373 504 c 0
 373 579 328 625 253 625 c 0
 187 625 150 603 107 552 c 1
 45 600 l 1
 99 667 163 701 258 701 c 0
EndSplineSet
EndChar

StartChar: uni0033
Encoding: 51 51 19
Width: 560
Flags: W
LayerCount: 2
Fore
SplineSet
251 701 m 0
 383 701 465 622 465 528 c 0
 465 442 405 385 328 368 c 1
 410 363 487 303 487 198 c 0
 487 79 390 -12 245 -12 c 0
 165 -12 83 17 30 81 c 1
 88 130 l 1
 130 85 186 63 242 63 c 0
 335 63 391 115 391 199 c 0
 391 295 332 327 251 327 c 2
 193 327 l 1
 204 398 l 1
 245 398 l 2
 311 398 373 435 373 515 c 0
 373 588 317 628 246 628 c 0
 187 628 146 607 101 565 c 1
 51 620 l 1
 110 676 178 701 251 701 c 0
EndSplineSet
EndChar

StartChar: uni0034
Encoding: 52 52 20
Width: 560
Flags: W
LayerCount: 2
Fore
SplineSet
511 238 m 1
 511 165 l 1
 424 165 l 1
 424 0 l 1
 335 0 l 1
 335 165 l 1
 49 165 l 1
 49 231 l 1
 250 701 l 1
 327 669 l 1
 146 238 l 1
 336 238 l 1
 344 430 l 1
 424 430 l 1
 424 238 l 1
 511 238 l 1
EndSplineSet
EndChar

StartChar: uni0035
Encoding: 53 53 21
Width: 560
Flags: W
LayerCount: 2
Fore
SplineSet
467 689 m 1
 454 617 l 1
 184 617 l 1
 184 407 l 1
 225 429 261 436 301 436 c 0
 413 436 490 357 490 219 c 0
 490 81 397 -12 253 -12 c 0
 168 -12 103 20 50 73 c 1
 106 127 l 1
 147 84 194 63 252 63 c 0
 341 63 394 118 394 221 c 0
 394 329 341 365 273 365 c 0
 234 365 207 357 168 342 c 1
 96 342 l 1
 96 689 l 1
 467 689 l 1
EndSplineSet
EndChar

StartChar: uni0036
Encoding: 54 54 22
Width: 560
Flags: W
LayerCount: 2
Fore
SplineSet
317 450 m 0
 420 450 509 379 509 232 c 0
 509 81 412 -12 292 -12 c 0
 126 -12 63 122 63 324 c 0
 63 553 160 701 321 701 c 0
 375 701 420 686 459 660 c 1
 423 599 l 1
 392 618 357 628 320 628 c 0
 220 628 160 524 156 361 c 1
 200 423 254 450 317 450 c 0
292 61 m 0
 373 61 415 126 415 229 c 0
 415 340 368 377 301 377 c 0
 241 377 191 340 157 284 c 1
 160 131 200 61 292 61 c 0
EndSplineSet
EndChar

StartChar: uni0037
Encoding: 55 55 23
Width: 560
Flags: W
LayerCount: 2
Fore
SplineSet
485 689 m 1
 485 620 l 1
 215 -12 l 1
 132 18 l 1
 392 614 l 1
 76 614 l 1
 76 689 l 1
 485 689 l 1
EndSplineSet
EndChar

StartChar: uni0038
Encoding: 56 56 24
Width: 560
Flags: W
LayerCount: 2
Fore
SplineSet
370 369 m 1
 460 333 512 275 512 184 c 0
 512 68 415 -12 278 -12 c 0
 140 -12 47 66 47 181 c 0
 47 269 97 325 180 361 c 1
 107 397 75 450 75 521 c 0
 75 642 177 701 280 701 c 0
 381 701 485 646 485 525 c 0
 485 456 447 408 370 369 c 1
280 632 m 0
 209 632 165 595 165 520 c 0
 165 447 212 420 299 393 c 1
 307 391 l 1
 369 424 395 460 395 520 c 0
 395 590 352 632 280 632 c 0
278 61 m 0
 364 61 416 111 416 181 c 0
 416 259 380 295 264 329 c 1
 242 337 l 1
 175 305 143 258 143 182 c 0
 143 104 196 61 278 61 c 0
EndSplineSet
EndChar

StartChar: uni0039
Encoding: 57 57 25
Width: 560
Flags: W
LayerCount: 2
Fore
SplineSet
269 701 m 0
 416 701 489 597 489 433 c 0
 489 142 377 49 126 -22 c 1
 105 47 l 1
 277 95 386 172 392 331 c 1
 363 288 310 251 240 251 c 0
 134 251 51 335 51 472 c 0
 51 620 151 701 269 701 c 0
259 323 m 0
 317 323 361 357 394 408 c 1
 397 571 355 628 269 628 c 0
 191 628 146 574 146 470 c 0
 146 367 192 323 259 323 c 0
EndSplineSet
EndChar

StartChar: uni003A
Encoding: 58 58 26
Width: 240
Flags: W
LayerCount: 2
Fore
SplineSet
119 495 m 0
 159 495 189 464 189 426 c 0
 189 387 159 356 119 356 c 0
 80 356 50 387 50 426 c 0
 50 464 80 495 119 495 c 0
119 127 m 0
 159 127 189 96 189 58 c 0
 189 19 159 -12 119 -12 c 0
 80 -12 50 19 50 58 c 0
 50 96 80 127 119 127 c 0
EndSplineSet
Validated: 1
EndChar

StartChar: uni003B
Encoding: 59 59 27
Width: 240
Flags: W
LayerCount: 2
Fore
SplineSet
119 495 m 0
 159 495 189 464 189 426 c 0
 189 387 159 356 119 356 c 0
 80 356 50 387 50 426 c 0
 50 464 80 495 119 495 c 0
119 127 m 0
 159 127 189 96 189 58 c 0
 189 36 184 16 171 -13 c 2
 104 -166 l 1
 38 -166 l 1
 78 0 l 1
 61 13 50 34 50 58 c 0
 50 96 80 127 119 127 c 0
EndSplineSet
Validated: 1
EndChar

StartChar: uni003C
Encoding: 60 60 28
Width: 500
Flags: W
LayerCount: 2
Fore
SplineSet
417 498 m 1
 450 422 l 1
 123 280 l 1
 450 136 l 1
 417 62 l 1
 50 233 l 1
 50 327 l 1
 417 498 l 1
EndSplineSet
EndChar

StartChar: uni003D
Encoding: 61 61 29
Width: 500
Flags: W
LayerCount: 2
Fore
SplineSet
62 338 m 1
 62 414 l 1
 438 414 l 1
 438 338 l 1
 62 338 l 1
62 146 m 1
 62 222 l 1
 438 222 l 1
 438 146 l 1
 62 146 l 1
EndSplineSet
EndChar

StartChar: uni003E
Encoding: 62 62 30
Width: 500
Flags: W
LayerCount: 2
Fore
SplineSet
83 498 m 1
 450 327 l 1
 450 233 l 1
 83 62 l 1
 50 136 l 1
 377 280 l 1
 50 422 l 1
 83 498 l 1
EndSplineSet
EndChar

StartChar: uni003F
Encoding: 63 63 31
Width: 459
Flags: W
LayerCount: 2
Fore
SplineSet
238 701 m 0
 364 701 429 625 429 545 c 0
 429 385 248 406 248 275 c 2
 248 230 l 1
 157 230 l 1
 157 280 l 2
 157 448 333 431 333 539 c 0
 333 594 294 625 232 625 c 0
 182 625 134 603 93 553 c 1
 30 602 l 1
 87 669 155 701 238 701 c 0
205 127 m 0
 245 127 275 96 275 58 c 0
 275 19 245 -12 205 -12 c 0
 166 -12 136 19 136 58 c 0
 136 96 166 127 205 127 c 0
EndSplineSet
Validated: 1
EndChar

StartChar: uni0040
Encoding: 64 64 32
Width: 1020
Flags: W
LayerCount: 2
Fore
SplineSet
526 701 m 0
 804 701 950 516 950 307 c 0
 950 144 888 9 753 9 c 0
 670 9 635 67 625 112 c 1
 603 62 560 11 481 11 c 0
 374 11 308 99 308 231 c 0
 308 404 400 492 526 492 c 0
 580 492 627 482 683 452 c 1
 683 193 l 2
 683 107 708 80 751 80 c 0
 819 80 857 149 857 305 c 0
 857 498 743 625 526 625 c 0
 301 625 163 461 163 240 c 0
 163 19 293 -137 526 -137 c 0
 601 -137 664 -122 718 -103 c 1
 743 -174 l 1
 677 -197 616 -213 525 -213 c 0
 256 -213 70 -37 70 240 c 0
 70 501 254 701 526 701 c 0
492 78 m 0
 561 78 589 135 600 164 c 1
 600 411 l 1
 580 420 559 426 529 426 c 0
 442 426 398 360 398 231 c 0
 398 131 430 78 492 78 c 0
EndSplineSet
Validated: 1
EndChar

StartChar: uni0041
Encoding: 65 65 33
Width: 573
Flags: W
TopAccentHorizontal: 287
LayerCount: 2
Fore
SplineSet
467 0 m 1
 415 173 l 1
 154 173 l 1
 102 0 l 1
 6 0 l 1
 227 689 l 1
 347 689 l 1
 567 0 l 1
 467 0 l 1
177 250 m 1
 392 250 l 1
 285 610 l 1
 177 250 l 1
EndSplineSet
Validated: 1
EndChar

StartChar: uni0042
Encoding: 66 66 34
Width: 608
Flags: W
TopAccentHorizontal: 292
LayerCount: 2
Fore
SplineSet
404 364 m 1
 484 350 563 313 563 196 c 0
 563 50 450 0 290 0 c 2
 100 0 l 1
 100 689 l 1
 263 689 l 2
 433 689 533 635 533 515 c 0
 533 430 471 378 404 364 c 1
273 614 m 2
 195 614 l 1
 195 397 l 1
 299 397 l 2
 376 397 436 435 436 508 c 0
 436 593 375 614 273 614 c 2
290 76 m 2
 390 76 463 96 463 196 c 0
 463 293 391 324 308 324 c 2
 195 324 l 1
 195 76 l 1
 290 76 l 2
EndSplineSet
Validated: 1
EndChar

StartChar: uni0043
Encoding: 67 67 35
Width: 560
Flags: W
TopAccentHorizontal: 298
LayerCount: 2
Fore
SplineSet
341 701 m 0
 428 701 477 677 532 633 c 1
 480 572 l 1
 437 607 395 623 347 623 c 0
 243 623 156 553 156 345 c 0
 156 146 239 68 346 68 c 0
 411 68 454 96 493 125 c 1
 540 65 l 1
 502 26 436 -12 343 -12 c 0
 176 -12 55 113 55 345 c 0
 55 578 185 701 341 701 c 0
EndSplineSet
Validated: 1
EndChar

StartChar: uni0044
Encoding: 68 68 36
Width: 644
Flags: W
TopAccentHorizontal: 314
LayerCount: 2
Fore
SplineSet
244 689 m 2
 420 689 589 634 589 348 c 0
 589 67 414 0 265 0 c 2
 100 0 l 1
 100 689 l 1
 244 689 l 2
265 613 m 2
 195 613 l 1
 195 75 l 1
 272 75 l 2
 380 75 488 121 488 348 c 0
 488 581 375 613 265 613 c 2
EndSplineSet
Validated: 1
EndChar

StartChar: uni0045
Encoding: 69 69 37
Width: 535
Flags: W
TopAccentHorizontal: 290
LayerCount: 2
Fore
SplineSet
473 689 m 1
 462 613 l 1
 195 613 l 1
 195 388 l 1
 427 388 l 1
 427 312 l 1
 195 312 l 1
 195 76 l 1
 481 76 l 1
 481 0 l 1
 100 0 l 1
 100 689 l 1
 473 689 l 1
EndSplineSet
Validated: 1
EndChar

StartChar: uni0046
Encoding: 70 70 38
Width: 491
Flags: W
TopAccentHorizontal: 283
LayerCount: 2
Fore
SplineSet
100 0 m 1
 100 689 l 1
 466 689 l 1
 455 613 l 1
 195 613 l 1
 195 378 l 1
 420 378 l 1
 420 303 l 1
 195 303 l 1
 195 0 l 1
 100 0 l 1
EndSplineSet
Validated: 1
EndChar

StartChar: uni0047
Encoding: 71 71 39
Width: 631
Flags: W
TopAccentHorizontal: 312
LayerCount: 2
Fore
SplineSet
354 701 m 0
 445 701 502 674 561 625 c 1
 505 567 l 1
 457 606 416 623 354 623 c 0
 255 623 156 548 156 345 c 0
 156 147 223 66 344 66 c 0
 390 66 436 75 475 97 c 1
 475 305 l 1
 353 305 l 1
 342 382 l 1
 569 382 l 1
 569 49 l 1
 504 12 432 -12 344 -12 c 0
 166 -12 55 107 55 345 c 0
 55 577 195 701 354 701 c 0
EndSplineSet
Validated: 1
EndChar

StartChar: uni0048
Encoding: 72 72 40
Width: 680
Flags: W
TopAccentHorizontal: 340
LayerCount: 2
Fore
SplineSet
485 0 m 1
 485 323 l 1
 195 323 l 1
 195 0 l 1
 100 0 l 1
 100 689 l 1
 195 689 l 1
 195 401 l 1
 485 401 l 1
 485 689 l 1
 580 689 l 1
 580 0 l 1
 485 0 l 1
EndSplineSet
Validated: 1
EndChar

StartChar: uni0049
Encoding: 73 73 41
Width: 295
Flags: W
TopAccentHorizontal: 148
LayerCount: 2
Fore
SplineSet
195 689 m 1
 195 0 l 1
 100 0 l 1
 100 689 l 1
 195 689 l 1
EndSplineSet
Validated: 1
EndChar

StartChar: uni004A
Encoding: 74 74 42
Width: 305
Flags: W
TopAccentHorizontal: 162
LayerCount: 2
Fore
SplineSet
210 689 m 1
 210 96 l 2
 210 -48 141 -102 30 -137 c 1
 5 -68 l 1
 96 -32 115 8 115 100 c 2
 115 689 l 1
 210 689 l 1
EndSplineSet
Validated: 1
EndChar

StartChar: uni004B
Encoding: 75 75 43
Width: 589
Flags: W
TopAccentHorizontal: 324
LayerCount: 2
Fore
SplineSet
195 689 m 1
 195 0 l 1
 100 0 l 1
 100 689 l 1
 195 689 l 1
570 689 m 1
 309 374 l 1
 589 0 l 1
 472 0 l 1
 200 368 l 1
 462 689 l 1
 570 689 l 1
EndSplineSet
Validated: 1
EndChar

StartChar: uni004C
Encoding: 76 76 44
Width: 498
Flags: W
TopAccentHorizontal: 148
LayerCount: 2
Fore
SplineSet
195 689 m 1
 195 83 l 1
 478 83 l 1
 467 0 l 1
 100 0 l 1
 100 689 l 1
 195 689 l 1
EndSplineSet
Validated: 1
EndChar

StartChar: uni004D
Encoding: 77 77 45
Width: 778
Flags: W
TopAccentHorizontal: 389
LayerCount: 2
Fore
SplineSet
659 689 m 1
 716 0 l 1
 624 0 l 1
 600 311 l 2
 591 419 584 535 583 592 c 1
 434 78 l 1
 345 78 l 1
 188 593 l 1
 188 512 183 405 175 304 c 2
 152 0 l 1
 62 0 l 1
 119 689 l 1
 247 689 l 1
 392 188 l 1
 530 689 l 1
 659 689 l 1
EndSplineSet
Validated: 1
EndChar

StartChar: uni004E
Encoding: 78 78 46
Width: 683
Flags: W
TopAccentHorizontal: 342
LayerCount: 2
Fore
SplineSet
583 689 m 1
 583 0 l 1
 456 0 l 1
 176 585 l 1
 181 528 189 444 189 316 c 2
 189 0 l 1
 100 0 l 1
 100 689 l 1
 224 689 l 1
 507 103 l 1
 505 119 494 229 494 313 c 2
 494 689 l 1
 583 689 l 1
EndSplineSet
Validated: 1
EndChar

StartChar: uni004F
Encoding: 79 79 47
Width: 692
Flags: W
TopAccentHorizontal: 346
LayerCount: 2
Fore
SplineSet
346 701 m 0
 519 701 637 576 637 344 c 0
 637 116 519 -12 346 -12 c 0
 174 -12 55 112 55 343 c 0
 55 570 174 701 346 701 c 0
346 623 m 0
 231 623 156 542 156 343 c 0
 156 144 234 66 346 66 c 0
 462 66 536 144 536 344 c 0
 536 542 464 623 346 623 c 0
EndSplineSet
Validated: 1
EndChar

StartChar: uni0050
Encoding: 80 80 48
Width: 581
Flags: W
TopAccentHorizontal: 294
LayerCount: 2
Fore
SplineSet
281 689 m 2
 447 689 549 621 549 476 c 0
 549 318 434 253 282 253 c 2
 195 253 l 1
 195 0 l 1
 100 0 l 1
 100 689 l 1
 281 689 l 2
278 328 m 2
 380 328 448 358 448 475 c 0
 448 578 382 615 280 615 c 2
 195 615 l 1
 195 328 l 1
 278 328 l 2
EndSplineSet
Validated: 1
EndChar

StartChar: uni0051
Encoding: 81 81 49
Width: 691
Flags: W
TopAccentHorizontal: 346
LayerCount: 2
Fore
SplineSet
479 39 m 1
 558 39 617 11 666 -23 c 1
 604 -103 l 1
 526 -33 469 -10 344 -10 c 0
 174 -10 55 112 55 343 c 0
 55 570 174 701 346 701 c 0
 519 701 637 576 637 344 c 0
 637 175 577 90 479 39 c 1
156 343 m 0
 156 144 234 66 346 66 c 0
 462 66 536 144 536 344 c 0
 536 542 464 623 346 623 c 0
 231 623 156 542 156 343 c 0
EndSplineSet
Validated: 1
EndChar

StartChar: uni0052
Encoding: 82 82 50
Width: 605
Flags: W
TopAccentHorizontal: 290
LayerCount: 2
Fore
SplineSet
467 0 m 1
 302 292 l 1
 195 292 l 1
 195 0 l 1
 100 0 l 1
 100 689 l 1
 281 689 l 2
 453 689 543 623 543 494 c 0
 543 397 493 339 394 309 c 1
 580 0 l 1
 467 0 l 1
195 365 m 1
 291 365 l 2
 387 365 442 401 442 494 c 0
 442 580 393 615 280 615 c 2
 195 615 l 1
 195 365 l 1
EndSplineSet
Validated: 1
EndChar

StartChar: uni0053
Encoding: 83 83 51
Width: 545
Flags: W
TopAccentHorizontal: 270
LayerCount: 2
Fore
SplineSet
270 701 m 0
 365 701 425 673 483 621 c 1
 431 563 l 1
 379 605 331 623 274 623 c 0
 205 623 150 591 150 525 c 0
 150 467 177 439 301 401 c 0
 411 367 505 324 505 192 c 0
 505 72 414 -12 259 -12 c 0
 160 -12 82 21 25 77 c 1
 77 135 l 1
 129 93 183 66 258 66 c 0
 339 66 406 106 406 189 c 0
 406 256 374 286 257 322 c 0
 123 363 53 414 53 521 c 0
 53 627 143 701 270 701 c 0
EndSplineSet
Validated: 1
EndChar

StartChar: uni0054
Encoding: 84 84 52
Width: 517
Flags: W
TopAccentHorizontal: 261
LayerCount: 2
Fore
SplineSet
507 689 m 1
 497 608 l 1
 306 608 l 1
 306 0 l 1
 211 0 l 1
 211 608 l 1
 15 608 l 1
 15 689 l 1
 507 689 l 1
EndSplineSet
Validated: 1
EndChar

StartChar: uni0055
Encoding: 85 85 53
Width: 662
Flags: W
TopAccentHorizontal: 331
LayerCount: 2
Fore
SplineSet
572 689 m 1
 572 221 l 2
 572 84 485 -12 330 -12 c 0
 173 -12 90 84 90 221 c 2
 90 689 l 1
 185 689 l 1
 185 228 l 2
 185 121 232 68 330 68 c 0
 429 68 476 121 476 228 c 2
 476 689 l 1
 572 689 l 1
EndSplineSet
Validated: 1
EndChar

StartChar: uni0056
Encoding: 86 86 54
Width: 556
Flags: W
TopAccentHorizontal: 278
LayerCount: 2
Fore
SplineSet
550 689 m 1
 330 0 l 1
 228 0 l 1
 6 689 l 1
 108 689 l 1
 281 103 l 1
 454 689 l 1
 550 689 l 1
EndSplineSet
Validated: 1
EndChar

StartChar: uni0057
Encoding: 87 87 55
Width: 826
Flags: W
TopAccentHorizontal: 413
LayerCount: 2
Fore
SplineSet
801 689 m 1
 661 0 l 1
 539 0 l 1
 412 577 l 1
 284 0 l 1
 165 0 l 1
 25 689 l 1
 118 689 l 1
 229 83 l 1
 362 689 l 1
 463 689 l 1
 599 83 l 1
 714 689 l 1
 801 689 l 1
EndSplineSet
Validated: 1
EndChar

StartChar: uni0058
Encoding: 88 88 56
Width: 540
Flags: W
TopAccentHorizontal: 270
LayerCount: 2
Fore
SplineSet
325 372 m 1
 535 0 l 1
 427 0 l 1
 268 305 l 1
 107 0 l 1
 5 0 l 1
 212 367 l 1
 23 689 l 1
 131 689 l 1
 270 430 l 1
 410 689 l 1
 512 689 l 1
 325 372 l 1
EndSplineSet
Validated: 1
EndChar

StartChar: uni0059
Encoding: 89 89 57
Width: 550
Flags: W
TopAccentHorizontal: 275
LayerCount: 2
Fore
SplineSet
545 689 m 1
 323 265 l 1
 323 0 l 1
 227 0 l 1
 227 264 l 1
 5 689 l 1
 110 689 l 1
 278 348 l 1
 446 689 l 1
 545 689 l 1
EndSplineSet
Validated: 1
EndChar

StartChar: uni005A
Encoding: 90 90 58
Width: 522
Flags: W
TopAccentHorizontal: 271
LayerCount: 2
Fore
SplineSet
477 689 m 1
 477 612 l 1
 136 81 l 1
 477 81 l 1
 466 0 l 1
 30 0 l 1
 30 76 l 1
 374 609 l 1
 66 609 l 1
 66 689 l 1
 477 689 l 1
EndSplineSet
Validated: 1
EndChar

StartChar: uni005B
Encoding: 91 91 59
Width: 322
Flags: W
LayerCount: 2
Fore
SplineSet
272 746 m 1
 272 669 l 1
 152 669 l 1
 152 -110 l 1
 272 -110 l 1
 272 -186 l 1
 65 -186 l 1
 65 746 l 1
 272 746 l 1
EndSplineSet
EndChar

StartChar: uni005C
Encoding: 92 92 60
Width: 520
Flags: W
LayerCount: 2
Fore
SplineSet
183 737 m 1
 415 -155 l 1
 336 -174 l 1
 105 719 l 1
 183 737 l 1
EndSplineSet
EndChar

StartChar: uni005D
Encoding: 93 93 61
Width: 322
Flags: W
LayerCount: 2
Fore
SplineSet
257 746 m 1
 257 -186 l 1
 50 -186 l 1
 50 -110 l 1
 170 -110 l 1
 170 669 l 1
 50 669 l 1
 50 746 l 1
 257 746 l 1
EndSplineSet
EndChar

StartChar: uni005E
Encoding: 94 94 62
Width: 540
Flags: W
LayerCount: 2
Fore
SplineSet
311 840 m 1
 500 527 l 1
 402 527 l 1
 269 760 l 1
 137 527 l 1
 40 527 l 1
 229 840 l 1
 311 840 l 1
EndSplineSet
Validated: 1
EndChar

StartChar: uni005F
Encoding: 95 95 63
Width: 520
Flags: W
LayerCount: 2
Fore
SplineSet
17 -142 m 1
 17 -63 l 1
 503 -63 l 1
 503 -142 l 1
 17 -142 l 1
EndSplineSet
Validated: 1
EndChar

StartChar: uni0060
Encoding: 96 96 64
Width: 300
Flags: W
LayerCount: 2
Fore
SplineSet
71 801 m 1
 270 687 l 1
 242 638 l 1
 30 724 l 1
 71 801 l 1
EndSplineSet
Validated: 1
EndChar

StartChar: uni0061
Encoding: 97 97 65
Width: 544
Flags: W
TopAccentHorizontal: 265
LayerCount: 2
Fore
SplineSet
450 123 m 2
 450 77 467 62 494 52 c 1
 473 -12 l 1
 420 -6 386 15 370 67 c 1
 333 12 277 -12 213 -12 c 0
 108 -12 45 53 45 147 c 0
 45 260 130 321 277 321 c 2
 358 321 l 1
 358 360 l 2
 358 436 321 464 248 464 c 0
 209 464 160 454 106 436 c 1
 83 503 l 1
 148 527 206 539 265 539 c 0
 392 539 450 474 450 364 c 2
 450 123 l 2
234 57 m 0
 288 57 328 84 358 139 c 1
 358 260 l 1
 289 260 l 2
 192 260 143 224 143 152 c 0
 143 90 174 57 234 57 c 0
EndSplineSet
Validated: 1
EndChar

StartChar: uni0062
Encoding: 98 98 66
Width: 594
Flags: W
TopAccentHorizontal: 141
LayerCount: 2
Fore
SplineSet
336 539 m 0
 455 539 532 440 532 264 c 0
 532 99 453 -12 325 -12 c 0
 267 -12 221 14 185 58 c 1
 176 0 l 1
 95 0 l 1
 95 739 l 1
 187 750 l 1
 187 461 l 1
 223 510 272 539 336 539 c 0
303 61 m 0
 380 61 433 120 433 264 c 0
 433 414 384 466 310 466 c 0
 252 466 214 426 187 384 c 1
 187 132 l 1
 214 90 256 61 303 61 c 0
EndSplineSet
Validated: 1
EndChar

StartChar: uni0063
Encoding: 99 99 67
Width: 478
Flags: W
TopAccentHorizontal: 287
LayerCount: 2
Fore
SplineSet
287 539 m 0
 349 539 399 523 448 482 c 1
 404 424 l 1
 368 450 335 463 291 463 c 0
 208 463 156 398 156 261 c 0
 156 123 208 66 291 66 c 0
 335 66 366 80 406 106 c 1
 448 46 l 1
 401 8 348 -12 287 -12 c 0
 145 -12 57 89 57 259 c 0
 57 427 144 539 287 539 c 0
EndSplineSet
Validated: 1
EndChar

StartChar: uni0064
Encoding: 100 100 68
Width: 598
Flags: W
TopAccentHorizontal: 457
LayerCount: 2
Fore
SplineSet
411 750 m 1
 503 739 l 1
 503 0 l 1
 422 0 l 1
 413 73 l 1
 379 20 326 -12 261 -12 c 0
 133 -12 62 97 62 261 c 0
 62 422 140 539 269 539 c 0
 331 539 376 511 411 474 c 1
 411 750 l 1
281 61 m 0
 340 61 376 90 411 139 c 1
 411 397 l 1
 378 439 341 466 289 466 c 0
 210 466 161 400 161 263 c 0
 161 124 205 61 281 61 c 0
EndSplineSet
Validated: 1
EndChar

StartChar: uni0065
Encoding: 101 101 69
Width: 545
Flags: W
TopAccentHorizontal: 276
LayerCount: 2
Fore
SplineSet
493 279 m 0
 493 261 492 244 491 232 c 1
 155 232 l 1
 164 110 221 63 297 63 c 0
 349 63 388 77 434 109 c 1
 474 54 l 1
 422 13 363 -12 290 -12 c 0
 143 -12 57 91 57 258 c 0
 57 422 140 539 276 539 c 0
 418 539 493 440 493 279 c 0
402 300 m 1
 402 306 l 2
 402 409 361 466 278 466 c 0
 208 466 162 417 155 300 c 1
 402 300 l 1
EndSplineSet
Validated: 1
EndChar

StartChar: uni0066
Encoding: 102 102 70
Width: 335
Flags: W
ItalicCorrection: 80
TopAccentHorizontal: 269
LayerCount: 2
Fore
SplineSet
274 676 m 0
 216 676 196 651 196 600 c 2
 196 527 l 1
 324 527 l 1
 314 456 l 1
 196 456 l 1
 196 0 l 1
 104 0 l 1
 104 456 l 1
 10 456 l 1
 10 527 l 1
 104 527 l 1
 104 599 l 2
 104 687 162 750 269 750 c 0
 319 750 353 741 395 723 c 1
 366 656 l 1
 332 671 301 676 274 676 c 0
EndSplineSet
Validated: 1
EndChar

StartChar: uni0067
Encoding: 103 103 71
Width: 520
Flags: W
TopAccentHorizontal: 272
LayerCount: 2
Fore
SplineSet
493 586 m 1
 520 503 l 1
 476 489 426 487 366 487 c 1
 428 459 459 415 459 354 c 0
 459 250 384 175 258 175 c 0
 234 175 213 178 191 185 c 1
 176 174 165 155 165 136 c 0
 165 112 180 93 234 93 c 2
 318 93 l 2
 426 93 498 31 498 -53 c 0
 498 -155 414 -213 251 -213 c 0
 79 -213 25 -160 25 -53 c 1
 108 -53 l 1
 108 -113 135 -141 251 -141 c 0
 365 -141 405 -112 405 -59 c 0
 405 -9 365 16 299 16 c 2
 216 16 l 2
 122 16 80 63 80 116 c 0
 80 150 100 184 138 209 c 1
 77 241 49 287 49 355 c 0
 49 463 136 539 252 539 c 0
 383 536 431 558 493 586 c 1
252 473 m 0
 181 473 143 424 143 355 c 0
 143 285 182 236 254 236 c 0
 326 236 365 280 365 356 c 0
 365 433 327 473 252 473 c 0
EndSplineSet
Validated: 33
EndChar

StartChar: uni0068
Encoding: 104 104 72
Width: 586
Flags: W
TopAccentHorizontal: 141
LayerCount: 2
Fore
SplineSet
343 539 m 0
 439 539 496 477 496 378 c 2
 496 0 l 1
 404 0 l 1
 404 365 l 2
 404 444 370 467 320 467 c 0
 263 467 222 430 187 375 c 1
 187 0 l 1
 95 0 l 1
 95 738 l 1
 187 748 l 1
 187 454 l 1
 225 506 277 539 343 539 c 0
EndSplineSet
Validated: 1
EndChar

StartChar: uni0069
Encoding: 105 105 73
Width: 282
Flags: W
TopAccentHorizontal: 140
LayerCount: 2
Fore
SplineSet
140 780 m 0
 179 780 205 753 205 717 c 0
 205 682 179 655 140 655 c 0
 102 655 76 682 76 717 c 0
 76 753 102 780 140 780 c 0
187 527 m 1
 187 0 l 1
 95 0 l 1
 95 527 l 1
 187 527 l 1
EndSplineSet
Validated: 1
EndChar

StartChar: uni006A
Encoding: 106 106 74
Width: 280
Flags: W
TopAccentHorizontal: 139
LayerCount: 2
Fore
SplineSet
139 780 m 0
 178 780 204 753 204 717 c 0
 204 682 178 655 139 655 c 0
 101 655 75 682 75 717 c 0
 75 753 101 780 139 780 c 0
185 527 m 1
 185 32 l 2
 185 -117 130 -162 18 -212 c 1
 -9 -145 l 1
 60 -113 93 -87 93 26 c 2
 93 527 l 1
 185 527 l 1
EndSplineSet
Validated: 1
EndChar

StartChar: uni006B
Encoding: 107 107 75
Width: 512
Flags: W
TopAccentHorizontal: 141
LayerCount: 2
Fore
SplineSet
187 750 m 1
 187 0 l 1
 95 0 l 1
 95 739 l 1
 187 750 l 1
490 527 m 1
 296 294 l 1
 512 0 l 1
 402 0 l 1
 193 288 l 1
 387 527 l 1
 490 527 l 1
EndSplineSet
Validated: 1
EndChar

StartChar: uni006C
Encoding: 108 108 76
Width: 293
Flags: W
TopAccentHorizontal: 136
LayerCount: 2
Fore
SplineSet
200 -12 m 0
 133 -12 90 29 90 104 c 2
 90 739 l 1
 182 750 l 1
 182 106 l 2
 182 78 191 64 215 64 c 0
 228 64 239 66 249 70 c 1
 273 6 l 1
 253 -5 227 -12 200 -12 c 0
EndSplineSet
Validated: 1
EndChar

StartChar: uni006D
Encoding: 109 109 77
Width: 857
Flags: W
TopAccentHorizontal: 431
LayerCount: 2
Fore
SplineSet
624 539 m 0
 710 539 767 477 767 378 c 2
 767 0 l 1
 675 0 l 1
 675 365 l 2
 675 444 641 467 601 467 c 0
 544 467 513 430 477 374 c 1
 477 0 l 1
 385 0 l 1
 385 365 l 2
 385 444 351 467 311 467 c 0
 254 467 222 430 187 374 c 1
 187 0 l 1
 95 0 l 1
 95 527 l 1
 174 527 l 1
 182 450 l 1
 217 503 265 539 334 539 c 0
 399 539 447 504 467 444 c 1
 505 501 553 539 624 539 c 0
EndSplineSet
Validated: 1
EndChar

StartChar: uni006E
Encoding: 110 110 78
Width: 586
Flags: W
TopAccentHorizontal: 296
LayerCount: 2
Fore
SplineSet
343 539 m 0
 440 539 496 478 496 378 c 2
 496 0 l 1
 404 0 l 1
 404 365 l 2
 404 444 372 467 321 467 c 0
 262 467 222 430 187 374 c 1
 187 0 l 1
 95 0 l 1
 95 527 l 1
 174 527 l 1
 182 449 l 1
 218 503 274 539 343 539 c 0
EndSplineSet
Validated: 1
EndChar

StartChar: uni006F
Encoding: 111 111 79
Width: 584
Flags: W
TopAccentHorizontal: 292
LayerCount: 2
Fore
SplineSet
293 539 m 0
 443 539 527 431 527 264 c 0
 527 101 441 -12 292 -12 c 0
 142 -12 57 96 57 263 c 0
 57 426 143 539 293 539 c 0
293 465 m 0
 205 465 156 401 156 263 c 0
 156 126 204 62 292 62 c 0
 380 62 428 126 428 264 c 0
 428 401 380 465 293 465 c 0
EndSplineSet
Validated: 1
EndChar

StartChar: uni0070
Encoding: 112 112 80
Width: 594
Flags: W
TopAccentHorizontal: 314
LayerCount: 2
Fore
SplineSet
337 539 m 0
 477 539 532 430 532 264 c 0
 532 104 461 -12 325 -12 c 0
 268 -12 221 7 187 48 c 1
 187 -202 l 1
 95 -213 l 1
 95 527 l 1
 174 527 l 1
 181 456 l 1
 220 510 277 539 337 539 c 0
303 63 m 0
 387 63 433 126 433 264 c 0
 433 401 393 466 314 466 c 0
 258 466 215 426 187 384 c 1
 187 127 l 1
 214 86 255 63 303 63 c 0
EndSplineSet
Validated: 1
EndChar

StartChar: uni0071
Encoding: 113 113 81
Width: 598
Flags: W
TopAccentHorizontal: 282
LayerCount: 2
Fore
SplineSet
424 527 m 1
 503 527 l 1
 503 -213 l 1
 411 -202 l 1
 411 70 l 1
 377 19 325 -12 261 -12 c 0
 133 -12 62 97 62 261 c 0
 62 422 140 539 269 539 c 0
 334 539 381 508 417 468 c 1
 424 527 l 1
281 61 m 0
 340 61 376 90 411 139 c 1
 411 397 l 1
 378 439 341 466 289 466 c 0
 210 466 161 400 161 263 c 0
 161 124 205 61 281 61 c 0
EndSplineSet
Validated: 1
EndChar

StartChar: uni0072
Encoding: 114 114 82
Width: 386
Flags: W
ItalicCorrection: 20
TopAccentHorizontal: 236
LayerCount: 2
Fore
SplineSet
324 539 m 0
 341 539 360 537 376 533 c 1
 359 443 l 1
 343 447 332 449 313 449 c 0
 247 449 209 402 187 301 c 1
 187 0 l 1
 95 0 l 1
 95 527 l 1
 174 527 l 1
 183 420 l 1
 211 499 260 539 324 539 c 0
EndSplineSet
Validated: 1
EndChar

StartChar: uni0073
Encoding: 115 115 83
Width: 467
Flags: W
TopAccentHorizontal: 228
LayerCount: 2
Fore
SplineSet
238 539 m 0
 312 539 367 517 417 479 c 1
 378 421 l 1
 331 451 290 466 241 466 c 0
 181 466 144 439 144 397 c 0
 144 354 172 334 257 312 c 0
 368 284 432 240 432 148 c 0
 432 38 331 -12 224 -12 c 0
 135 -12 71 17 25 57 c 1
 74 113 l 1
 116 81 165 62 222 62 c 0
 291 62 335 92 335 142 c 0
 335 194 309 214 207 241 c 0
 93 271 48 320 48 394 c 0
 48 478 129 539 238 539 c 0
EndSplineSet
Validated: 1
EndChar

StartChar: uni0074
Encoding: 116 116 84
Width: 361
Flags: W
ItalicCorrection: 20
TopAccentHorizontal: 147
LayerCount: 2
Fore
SplineSet
326 85 m 1
 361 24 l 1
 326 0 288 -12 243 -12 c 0
 154 -12 101 40 101 138 c 2
 101 456 l 1
 9 456 l 1
 9 527 l 1
 101 527 l 1
 101 646 l 1
 193 657 l 1
 193 527 l 1
 318 527 l 1
 308 456 l 1
 193 456 l 1
 193 142 l 2
 193 89 210 64 256 64 c 0
 279 64 300 71 326 85 c 1
EndSplineSet
Validated: 1
EndChar

StartChar: uni0075
Encoding: 117 117 85
Width: 582
Flags: W
TopAccentHorizontal: 288
LayerCount: 2
Fore
SplineSet
487 527 m 1
 487 0 l 1
 408 0 l 1
 401 82 l 1
 361 18 312 -12 237 -12 c 0
 145 -12 90 46 90 149 c 2
 90 527 l 1
 182 527 l 1
 182 159 l 2
 182 87 206 60 263 60 c 0
 320 60 363 98 395 151 c 1
 395 527 l 1
 487 527 l 1
EndSplineSet
Validated: 1
EndChar

StartChar: uni0076
Encoding: 118 118 86
Width: 492
Flags: W
ItalicCorrection: 30
TopAccentHorizontal: 246
LayerCount: 2
Fore
SplineSet
482 527 m 1
 303 0 l 1
 192 0 l 1
 10 527 l 1
 110 527 l 1
 248 82 l 1
 385 527 l 1
 482 527 l 1
EndSplineSet
Validated: 1
EndChar

StartChar: uni0077
Encoding: 119 119 87
Width: 717
Flags: W
ItalicCorrection: 20
TopAccentHorizontal: 358
LayerCount: 2
Fore
SplineSet
697 527 m 1
 577 0 l 1
 452 0 l 1
 360 444 l 1
 265 0 l 1
 143 0 l 1
 20 527 l 1
 112 527 l 1
 207 64 l 1
 311 527 l 1
 414 527 l 1
 513 64 l 1
 609 527 l 1
 697 527 l 1
EndSplineSet
Validated: 1
EndChar

StartChar: uni0078
Encoding: 120 120 88
Width: 485
Flags: W
TopAccentHorizontal: 242
LayerCount: 2
Fore
SplineSet
297 282 m 1
 480 0 l 1
 369 0 l 1
 240 223 l 1
 109 0 l 1
 5 0 l 1
 189 278 l 1
 26 527 l 1
 134 527 l 1
 244 334 l 1
 355 527 l 1
 459 527 l 1
 297 282 l 1
EndSplineSet
Validated: 1
EndChar

StartChar: uni0079
Encoding: 121 121 89
Width: 492
Flags: W
ItalicCorrection: 20
TopAccentHorizontal: 246
LayerCount: 2
Fore
SplineSet
482 527 m 1
 306 -3 l 2
 269 -115 207 -197 61 -213 c 1
 51 -141 l 1
 158 -123 188 -82 218 0 c 1
 187 0 l 1
 10 527 l 1
 108 527 l 1
 249 67 l 1
 387 527 l 1
 482 527 l 1
EndSplineSet
Validated: 1
EndChar

StartChar: uni007A
Encoding: 122 122 90
Width: 437
Flags: W
TopAccentHorizontal: 216
LayerCount: 2
Fore
SplineSet
404 527 m 1
 404 457 l 1
 129 77 l 1
 407 77 l 1
 396 0 l 1
 25 0 l 1
 25 69 l 1
 299 449 l 1
 48 449 l 1
 48 527 l 1
 404 527 l 1
EndSplineSet
Validated: 1
EndChar

StartChar: uni007B
Encoding: 123 123 91
Width: 322
Flags: W
CounterMasks: 1 e0
LayerCount: 2
Fore
SplineSet
277 766 m 1
 277 695 l 1
 210 695 182 677 182 627 c 2
 182 388 l 2
 182 315 154 296 107 280 c 1
 154 264 182 245 182 172 c 2
 182 -67 l 2
 182 -117 210 -135 277 -135 c 1
 277 -206 l 1
 142 -206 95 -162 95 -57 c 2
 95 165 l 2
 95 220 78 243 25 243 c 1
 25 317 l 1
 78 317 95 340 95 395 c 2
 95 617 l 2
 95 722 142 766 277 766 c 1
EndSplineSet
EndChar

StartChar: uni007C
Encoding: 124 124 92
Width: 403
Flags: W
LayerCount: 2
Fore
SplineSet
243 746 m 1
 243 -186 l 1
 160 -186 l 1
 160 746 l 1
 243 746 l 1
EndSplineSet
EndChar

StartChar: uni007D
Encoding: 125 125 93
Width: 322
Flags: W
LayerCount: 2
Fore
SplineSet
45 766 m 1
 180 766 227 722 227 617 c 2
 227 395 l 2
 227 340 244 317 297 317 c 1
 297 241 l 1
 244 241 227 220 227 165 c 2
 227 -57 l 2
 227 -162 180 -206 45 -206 c 1
 45 -135 l 1
 112 -135 140 -117 140 -67 c 2
 140 172 l 2
 140 245 168 263 215 279 c 1
 168 295 140 315 140 388 c 2
 140 627 l 2
 140 677 112 695 45 695 c 1
 45 766 l 1
EndSplineSet
EndChar

StartChar: uni007E
Encoding: 126 126 94
Width: 488
Flags: W
LayerCount: 2
Fore
SplineSet
319 250 m 0
 242 250 205 312 163 312 c 0
 130 312 107 284 91 258 c 1
 35 287 l 1
 56 328 97 384 172 384 c 0
 246 384 283 323 328 323 c 0
 358 323 382 345 398 371 c 1
 453 341 l 1
 432 300 392 250 319 250 c 0
EndSplineSet
Validated: 1
EndChar

StartChar: uni00A1
Encoding: 161 161 96
Width: 241
Flags: W
LayerCount: 2
Fore
SplineSet
121 495 m 0
 160 495 190 464 190 425 c 0
 190 387 160 356 121 356 c 0
 81 356 51 387 51 425 c 0
 51 464 81 495 121 495 c 0
162 247 m 1
 173 -202 l 1
 71 -202 l 1
 81 247 l 1
 162 247 l 1
EndSplineSet
EndChar

StartChar: uni00A2
Encoding: 162 162 97
Width: 478
Flags: W
LayerCount: 2
Fore
SplineSet
406 106 m 1
 448 46 l 1
 412 17 373 -2 329 -9 c 1
 329 -154 l 1
 249 -154 l 1
 249 -9 l 1
 129 7 57 105 57 259 c 0
 57 412 129 519 250 536 c 1
 250 684 l 1
 329 684 l 1
 329 536 l 1
 373 530 411 513 448 482 c 1
 404 424 l 1
 368 450 335 463 291 463 c 0
 208 463 156 398 156 261 c 0
 156 123 208 66 291 66 c 0
 335 66 366 80 406 106 c 1
EndSplineSet
EndChar

StartChar: uni00A3
Encoding: 163 163 98
Width: 520
Flags: W
LayerCount: 2
Fore
SplineSet
213 204 m 2
 213 139 201 104 152 77 c 1
 472 77 l 1
 461 0 l 1
 40 0 l 1
 40 73 l 1
 108 98 122 123 122 205 c 2
 122 322 l 1
 56 322 l 1
 56 382 l 1
 122 382 l 1
 122 493 l 2
 122 600 189 679 311 679 c 0
 384 679 442 653 490 596 c 1
 430 550 l 1
 398 587 365 604 315 604 c 0
 251 604 213 566 213 494 c 2
 213 382 l 1
 421 382 l 1
 421 322 l 1
 213 322 l 1
 213 204 l 2
EndSplineSet
EndChar

StartChar: uni00A4
Encoding: 164 164 99
Width: 560
Flags: W
LayerCount: 2
Fore
SplineSet
492 341 m 0
 492 295 479 253 455 218 c 1
 531 143 l 1
 476 88 l 1
 398 164 l 1
 365 144 325 132 278 132 c 0
 233 132 193 145 160 167 c 1
 82 88 l 1
 29 143 l 1
 107 221 l 1
 84 255 71 296 71 341 c 0
 71 385 84 426 106 460 c 1
 29 540 l 1
 84 595 l 1
 162 515 l 1
 194 537 234 549 278 549 c 0
 325 549 366 537 399 516 c 1
 478 595 l 1
 531 540 l 1
 455 463 l 1
 479 429 492 387 492 341 c 0
281 205 m 0
 362 205 404 256 404 342 c 0
 404 427 362 479 281 479 c 0
 202 479 159 427 159 342 c 0
 159 256 202 205 281 205 c 0
EndSplineSet
EndChar

StartChar: uni00A5
Encoding: 165 165 100
Width: 536
Flags: W
LayerCount: 2
Fore
SplineSet
531 669 m 1
 340 346 l 1
 453 346 l 1
 453 284 l 1
 315 284 l 1
 315 194 l 1
 453 194 l 1
 453 133 l 1
 315 133 l 1
 315 0 l 1
 221 0 l 1
 221 133 l 1
 82 133 l 1
 82 194 l 1
 221 194 l 1
 221 284 l 1
 82 284 l 1
 82 346 l 1
 196 346 l 1
 5 669 l 1
 107 669 l 1
 271 374 l 1
 434 669 l 1
 531 669 l 1
EndSplineSet
EndChar

StartChar: uni00A6
Encoding: 166 166 101
Width: 403
Flags: W
LayerCount: 2
Fore
SplineSet
243 807 m 1
 243 443 l 1
 160 443 l 1
 160 807 l 1
 243 807 l 1
243 262 m 1
 243 -102 l 1
 160 -102 l 1
 160 262 l 1
 243 262 l 1
EndSplineSet
EndChar

StartChar: uni00A7
Encoding: 167 167 102
Width: 533
Flags: W
LayerCount: 2
Fore
SplineSet
387 173 m 1
 423 148 441 117 441 75 c 0
 441 -15 360 -71 246 -71 c 0
 175 -71 119 -50 78 -21 c 1
 113 40 l 1
 153 13 195 1 249 1 c 0
 305 1 349 24 349 66 c 0
 349 113 327 130 225 163 c 0
 120 197 70 231 70 311 c 0
 70 361 101 404 147 432 c 1
 112 456 94 487 94 533 c 0
 94 624 173 677 281 677 c 0
 355 677 408 655 452 623 c 1
 417 565 l 1
 375 592 335 606 280 606 c 0
 219 606 185 581 185 540 c 0
 185 495 206 474 307 440 c 0
 413 404 463 366 463 293 c 0
 463 242 430 202 387 173 c 1
159 323 m 0
 159 275 180 257 254 233 c 0
 284 223 310 213 333 203 c 1
 359 227 375 255 375 280 c 0
 375 327 353 345 267 376 c 0
 242 385 220 394 200 403 c 1
 174 378 159 348 159 323 c 0
EndSplineSet
EndChar

StartChar: uni00A8
Encoding: 168 168 103
Width: 385
Flags: W
LayerCount: 2
Fore
SplineSet
88 768 m 0
 120 768 145 743 145 711 c 0
 145 679 120 654 88 654 c 0
 55 654 30 679 30 711 c 0
 30 743 55 768 88 768 c 0
297 768 m 0
 330 768 355 743 355 711 c 0
 355 679 330 654 297 654 c 0
 265 654 240 679 240 711 c 0
 240 743 265 768 297 768 c 0
EndSplineSet
EndChar

StartChar: uni00A9
Encoding: 169 169 104
Width: 810
Flags: W
LayerCount: 2
Fore
SplineSet
406 748 m 0
 579 748 718 618 718 434 c 0
 718 251 579 121 406 121 c 0
 232 121 92 251 92 434 c 0
 92 618 232 748 406 748 c 0
406 696 m 0
 261 696 153 589 153 434 c 0
 153 280 261 174 406 174 c 0
 550 174 658 280 658 434 c 0
 658 589 550 696 406 696 c 0
408 625 m 0
 459 625 492 610 525 585 c 1
 490 538 l 1
 465 556 440 565 412 565 c 0
 361 565 321 528 321 435 c 0
 321 348 358 308 412 308 c 0
 447 308 471 320 496 339 c 1
 528 291 l 1
 500 266 464 245 409 245 c 0
 313 245 245 312 245 435 c 0
 245 559 320 625 408 625 c 0
EndSplineSet
EndChar

StartChar: uni00AA
Encoding: 170 170 105
Width: 500
Flags: W
LayerCount: 2
Fore
SplineSet
255 525 m 2
 313 525 l 1
 313 549 l 2
 313 602 286 620 230 620 c 0
 200 620 160 613 117 599 c 1
 95 661 l 1
 148 680 198 689 245 689 c 0
 354 689 402 640 402 554 c 2
 402 384 l 2
 402 351 414 340 435 333 c 1
 416 272 l 1
 371 277 342 292 327 331 c 1
 298 289 252 271 201 271 c 0
 116 271 65 321 65 393 c 0
 65 479 134 525 255 525 c 2
224 337 m 0
 264 337 292 356 313 390 c 1
 313 470 l 1
 265 470 l 2
 195 470 159 447 159 398 c 0
 159 359 182 337 224 337 c 0
71 77 m 1
 447 77 l 1
 447 0 l 1
 71 0 l 1
 71 77 l 1
EndSplineSet
EndChar

StartChar: uni00AB
Encoding: 171 171 106
Width: 575
Flags: W
LayerCount: 2
Fore
SplineSet
230 535 m 1
 285 497 l 1
 150 287 l 1
 285 77 l 1
 230 39 l 1
 55 255 l 1
 55 318 l 1
 230 535 l 1
465 535 m 1
 520 497 l 1
 385 287 l 1
 520 77 l 1
 465 39 l 1
 290 255 l 1
 290 318 l 1
 465 535 l 1
EndSplineSet
EndChar

StartChar: uni00AC
Encoding: 172 172 107
Width: 500
Flags: W
LayerCount: 2
Fore
SplineSet
438 361 m 1
 438 141 l 1
 355 141 l 1
 355 284 l 1
 62 284 l 1
 62 361 l 1
 438 361 l 1
EndSplineSet
EndChar

StartChar: uni00AD
Encoding: 173 173 108
Width: 403
Flags: W
LayerCount: 2
Fore
SplineSet
60 274 m 1
 60 352 l 1
 343 352 l 1
 343 274 l 1
 60 274 l 1
EndSplineSet
EndChar

StartChar: uni00AE
Encoding: 174 174 109
Width: 641
Flags: W
LayerCount: 2
Fore
SplineSet
319 750 m 0
 464 750 574 635 574 493 c 0
 574 351 464 238 319 238 c 0
 178 238 67 351 67 493 c 0
 67 635 178 750 319 750 c 0
319 287 m 0
 437 287 519 373 519 493 c 0
 519 613 437 701 319 701 c 0
 205 701 122 613 122 493 c 0
 122 373 205 287 319 287 c 0
428 551 m 0
 428 511 400 485 363 474 c 1
 437 359 l 1
 370 359 l 1
 309 465 l 1
 285 465 l 1
 285 359 l 1
 228 359 l 1
 228 635 l 1
 306 635 l 2
 388 635 428 607 428 551 c 0
285 591 m 1
 285 509 l 1
 315 509 l 2
 348 509 369 521 369 551 c 0
 369 579 351 591 313 591 c 2
 285 591 l 1
EndSplineSet
EndChar

StartChar: uni00AF
Encoding: 175 175 110
Width: 333
Flags: W
LayerCount: 2
Fore
SplineSet
303 667 m 1
 30 667 l 1
 30 736 l 1
 303 736 l 1
 303 667 l 1
EndSplineSet
EndChar

StartChar: uni00B0
Encoding: 176 176 111
Width: 523
Flags: W
LayerCount: 2
Fore
SplineSet
219 381 m 0
 136 381 55 438 55 541 c 0
 55 644 136 701 219 701 c 0
 303 701 383 643 383 540 c 0
 383 437 303 381 219 381 c 0
219 443 m 0
 265 443 306 474 306 540 c 0
 306 606 265 638 219 638 c 0
 174 638 132 608 132 541 c 0
 132 474 174 443 219 443 c 0
EndSplineSet
EndChar

StartChar: uni00B1
Encoding: 177 177 112
Width: 500
Flags: W
LayerCount: 2
Fore
SplineSet
62 22 m 1
 62 98 l 1
 438 98 l 1
 438 22 l 1
 62 22 l 1
62 312 m 1
 62 388 l 1
 208 388 l 1
 208 538 l 1
 292 538 l 1
 292 388 l 1
 438 388 l 1
 438 312 l 1
 292 312 l 1
 292 163 l 1
 208 163 l 1
 208 312 l 1
 62 312 l 1
EndSplineSet
EndChar

StartChar: uni00B2
Encoding: 178 178 113
Width: 400
Flags: W
LayerCount: 2
Fore
SplineSet
195 746 m 0
 283 746 334 694 334 626 c 0
 334 559 290 507 155 384 c 1
 344 384 l 1
 336 322 l 1
 67 322 l 1
 67 380 l 1
 217 525 254 564 254 620 c 0
 254 661 227 684 189 684 c 0
 154 684 131 671 104 640 c 1
 55 678 l 1
 90 721 136 746 195 746 c 0
EndSplineSet
EndChar

StartChar: uni00B3
Encoding: 179 179 114
Width: 400
Flags: W
LayerCount: 2
Fore
SplineSet
197 746 m 0
 286 746 334 698 334 641 c 0
 334 589 299 556 248 543 c 1
 303 538 348 506 348 441 c 0
 348 370 289 313 191 313 c 0
 133 313 86 334 52 373 c 1
 97 415 l 1
 124 386 153 374 187 374 c 0
 236 374 267 401 267 445 c 0
 267 495 237 512 187 512 c 2
 153 512 l 1
 162 568 l 1
 185 568 l 2
 226 568 257 590 257 631 c 0
 257 666 231 687 191 687 c 0
 157 687 131 675 103 650 c 1
 63 694 l 1
 102 729 146 746 197 746 c 0
EndSplineSet
EndChar

StartChar: uni00B4
Encoding: 180 180 115
Width: 300
Flags: W
TopAccentHorizontal: 150
LayerCount: 2
Fore
SplineSet
229 801 m 1
 270 724 l 1
 58 638 l 1
 30 687 l 1
 229 801 l 1
EndSplineSet
EndChar

StartChar: uni00B5
Encoding: 181 181 116
Width: 588
Flags: W
LayerCount: 2
Fore
SplineSet
487 180 m 2
 487 101 499 43 513 0 c 1
 427 -12 l 1
 410 26 407 51 403 85 c 1
 403 86 l 1
 375 38 327 -12 265 -12 c 0
 219 -12 191 2 169 38 c 1
 181 1 186 -33 186 -96 c 2
 186 -202 l 1
 95 -213 l 1
 95 527 l 1
 187 527 l 1
 187 156 l 2
 187 90 219 67 266 67 c 0
 313 67 359 92 395 163 c 1
 395 527 l 1
 487 527 l 1
 487 180 l 2
EndSplineSet
EndChar

StartChar: uni00B6
Encoding: 182 182 117
Width: 734
Flags: W
LayerCount: 2
Fore
SplineSet
336 689 m 2
 594 689 l 1
 594 -202 l 1
 511 -215 l 1
 511 616 l 1
 397 616 l 1
 397 -202 l 1
 314 -215 l 1
 314 282 l 1
 157 290 90 375 90 486 c 0
 90 616 185 689 336 689 c 2
EndSplineSet
EndChar

StartChar: uni00B7
Encoding: 183 183 118
Width: 240
Flags: W
LayerCount: 2
Fore
SplineSet
119 349 m 0
 159 349 189 318 189 280 c 0
 189 241 159 210 119 210 c 0
 80 210 50 241 50 280 c 0
 50 318 80 349 119 349 c 0
EndSplineSet
EndChar

StartChar: uni00B8
Encoding: 184 184 119
Width: 275
Flags: W
LayerCount: 2
Fore
SplineSet
152 16 m 1
 152 -56 l 1
 220 -62 245 -100 245 -141 c 0
 245 -207 189 -241 121 -241 c 0
 83 -241 50 -232 30 -217 c 1
 55 -165 l 1
 74 -175 92 -181 118 -181 c 0
 146 -181 168 -170 168 -141 c 0
 168 -114 143 -99 79 -99 c 1
 93 16 l 1
 152 16 l 1
EndSplineSet
EndChar

StartChar: uni00B9
Encoding: 185 185 120
Width: 400
Flags: W
LayerCount: 2
Fore
SplineSet
274 739 m 1
 274 322 l 1
 197 322 l 1
 197 660 l 1
 99 603 l 1
 65 656 l 1
 205 739 l 1
 274 739 l 1
EndSplineSet
EndChar

StartChar: uni00BA
Encoding: 186 186 121
Width: 500
Flags: W
LayerCount: 2
Fore
SplineSet
251 689 m 0
 374 689 444 609 444 480 c 0
 444 356 373 271 250 271 c 0
 127 271 56 351 56 480 c 0
 56 605 128 689 251 689 c 0
251 620 m 0
 186 620 151 576 151 480 c 0
 151 384 186 340 250 340 c 0
 315 340 349 384 349 480 c 0
 349 577 315 620 251 620 c 0
62 0 m 1
 62 77 l 1
 438 77 l 1
 438 0 l 1
 62 0 l 1
EndSplineSet
EndChar

StartChar: uni00BB
Encoding: 187 187 122
Width: 566
Flags: W
LayerCount: 2
Fore
SplineSet
110 535 m 1
 285 318 l 1
 285 255 l 1
 110 39 l 1
 55 77 l 1
 190 287 l 1
 55 497 l 1
 110 535 l 1
336 535 m 1
 511 318 l 1
 511 255 l 1
 336 39 l 1
 281 77 l 1
 416 287 l 1
 281 497 l 1
 336 535 l 1
EndSplineSet
EndChar

StartChar: uni00BC
Encoding: 188 188 123
Width: 932
Flags: W
LayerCount: 2
Fore
SplineSet
640 750 m 1
 699 721 l 1
 293 -78 l 1
 233 -49 l 1
 640 750 l 1
274 272 m 1
 197 272 l 1
 197 610 l 1
 99 553 l 1
 65 606 l 1
 205 689 l 1
 274 689 l 1
 274 272 l 1
889 156 m 1
 889 96 l 1
 836 96 l 1
 836 0 l 1
 760 0 l 1
 760 96 l 1
 574 96 l 1
 574 150 l 1
 702 424 l 1
 768 399 l 1
 655 156 l 1
 761 156 l 1
 768 261 l 1
 836 261 l 1
 836 156 l 1
 889 156 l 1
EndSplineSet
EndChar

StartChar: uni00BD
Encoding: 189 189 124
Width: 932
Flags: W
LayerCount: 2
Fore
SplineSet
640 750 m 1
 699 721 l 1
 293 -78 l 1
 233 -49 l 1
 640 750 l 1
274 689 m 1
 274 272 l 1
 197 272 l 1
 197 610 l 1
 99 553 l 1
 65 606 l 1
 205 689 l 1
 274 689 l 1
727 424 m 0
 815 424 866 372 866 304 c 0
 866 237 822 185 687 62 c 1
 876 62 l 1
 868 0 l 1
 599 0 l 1
 599 58 l 1
 749 203 786 242 786 298 c 0
 786 339 759 362 721 362 c 0
 686 362 663 349 636 318 c 1
 587 356 l 1
 622 399 668 424 727 424 c 0
EndSplineSet
EndChar

StartChar: uni00BE
Encoding: 190 190 125
Width: 932
Flags: W
LayerCount: 2
Fore
SplineSet
640 750 m 1
 699 721 l 1
 293 -78 l 1
 233 -49 l 1
 640 750 l 1
348 391 m 0
 348 320 289 263 191 263 c 0
 133 263 86 284 52 323 c 1
 97 365 l 1
 124 336 153 324 187 324 c 0
 236 324 267 351 267 395 c 0
 267 445 237 462 187 462 c 2
 153 462 l 1
 162 518 l 1
 185 518 l 2
 226 518 257 540 257 581 c 0
 257 616 231 637 191 637 c 0
 157 637 131 625 103 600 c 1
 63 644 l 1
 102 679 146 696 197 696 c 0
 286 696 334 648 334 591 c 0
 334 539 299 506 248 493 c 1
 303 488 348 456 348 391 c 0
889 156 m 1
 889 96 l 1
 836 96 l 1
 836 0 l 1
 760 0 l 1
 760 96 l 1
 574 96 l 1
 574 150 l 1
 702 424 l 1
 768 399 l 1
 655 156 l 1
 761 156 l 1
 768 261 l 1
 836 261 l 1
 836 156 l 1
 889 156 l 1
EndSplineSet
EndChar

StartChar: uni00BF
Encoding: 191 191 126
Width: 459
Flags: W
LayerCount: 2
Fore
SplineSet
254 356 m 0
 214 356 184 387 184 425 c 0
 184 464 214 495 254 495 c 0
 293 495 323 464 323 425 c 0
 323 387 293 356 254 356 c 0
221 -215 m 0
 95 -215 30 -139 30 -59 c 0
 30 101 211 80 211 206 c 2
 211 247 l 1
 302 247 l 1
 302 201 l 2
 302 38 126 55 126 -53 c 0
 126 -108 165 -139 227 -139 c 0
 277 -139 325 -117 366 -67 c 1
 429 -116 l 1
 372 -183 304 -215 221 -215 c 0
EndSplineSet
EndChar

StartChar: uni00C0
Encoding: 192 192 127
Width: 573
Flags: W
LayerCount: 2
Fore
SplineSet
397 804 m 1
 373 755 l 1
 157 834 l 1
 196 911 l 1
 397 804 l 1
467 0 m 1
 415 173 l 1
 154 173 l 1
 102 0 l 1
 6 0 l 1
 227 689 l 1
 347 689 l 1
 567 0 l 1
 467 0 l 1
177 250 m 1
 392 250 l 1
 285 610 l 1
 177 250 l 1
EndSplineSet
EndChar

StartChar: uni00C1
Encoding: 193 193 128
Width: 573
Flags: W
LayerCount: 2
Fore
SplineSet
407 834 m 1
 191 755 l 1
 167 804 l 1
 367 911 l 1
 407 834 l 1
467 0 m 1
 415 173 l 1
 154 173 l 1
 102 0 l 1
 6 0 l 1
 227 689 l 1
 347 689 l 1
 567 0 l 1
 467 0 l 1
177 250 m 1
 392 250 l 1
 285 610 l 1
 177 250 l 1
EndSplineSet
EndChar

StartChar: uni00C2
Encoding: 194 194 129
Width: 573
Flags: W
LayerCount: 2
Fore
SplineSet
286 840 m 1
 160 759 l 1
 120 804 l 1
 256 914 l 1
 317 914 l 1
 452 804 l 1
 413 759 l 1
 286 840 l 1
467 0 m 1
 415 173 l 1
 154 173 l 1
 102 0 l 1
 6 0 l 1
 227 689 l 1
 347 689 l 1
 567 0 l 1
 467 0 l 1
177 250 m 1
 392 250 l 1
 285 610 l 1
 177 250 l 1
EndSplineSet
EndChar

StartChar: uni00C3
Encoding: 195 195 130
Width: 573
Flags: W
LayerCount: 2
Fore
SplineSet
229 830 m 0
 206 830 192 814 176 784 c 1
 120 812 l 1
 143 861 179 900 229 900 c 0
 285 900 308 852 345 852 c 0
 365 852 380 866 398 896 c 1
 454 868 l 1
 428 811 390 782 345 782 c 0
 292 782 265 830 229 830 c 0
467 0 m 1
 415 173 l 1
 154 173 l 1
 102 0 l 1
 6 0 l 1
 227 689 l 1
 347 689 l 1
 567 0 l 1
 467 0 l 1
177 250 m 1
 392 250 l 1
 285 610 l 1
 177 250 l 1
EndSplineSet
EndChar

StartChar: uni00C4
Encoding: 196 196 131
Width: 573
Flags: W
LayerCount: 2
Fore
SplineSet
182 780 m 0
 149 780 124 805 124 837 c 0
 124 869 149 894 182 894 c 0
 214 894 239 869 239 837 c 0
 239 805 214 780 182 780 c 0
391 780 m 0
 359 780 334 805 334 837 c 0
 334 869 359 894 391 894 c 0
 424 894 449 869 449 837 c 0
 449 805 424 780 391 780 c 0
467 0 m 1
 415 173 l 1
 154 173 l 1
 102 0 l 1
 6 0 l 1
 227 689 l 1
 347 689 l 1
 567 0 l 1
 467 0 l 1
177 250 m 1
 392 250 l 1
 285 610 l 1
 177 250 l 1
EndSplineSet
EndChar

StartChar: uni00C5
Encoding: 197 197 132
Width: 573
Flags: W
LayerCount: 2
Fore
SplineSet
287 750 m 0
 220 750 173 797 173 856 c 0
 173 915 220 962 287 962 c 0
 354 962 401 915 401 856 c 0
 401 797 354 750 287 750 c 0
287 912 m 0
 254 912 234 891 234 856 c 0
 234 821 254 800 287 800 c 0
 319 800 340 821 340 856 c 0
 340 891 320 912 287 912 c 0
467 0 m 1
 415 173 l 1
 154 173 l 1
 102 0 l 1
 6 0 l 1
 227 689 l 1
 347 689 l 1
 567 0 l 1
 467 0 l 1
177 250 m 1
 392 250 l 1
 285 610 l 1
 177 250 l 1
EndSplineSet
EndChar

StartChar: uni00C6
Encoding: 198 198 133
Width: 816
Flags: W
LayerCount: 2
Fore
SplineSet
535 76 m 1
 762 76 l 1
 762 0 l 1
 458 0 l 1
 418 173 l 1
 150 173 l 1
 85 0 l 1
 -12 0 l 1
 262 689 l 1
 721 689 l 1
 710 613 l 1
 401 613 l 1
 457 387 l 1
 712 387 l 1
 712 311 l 1
 476 311 l 1
 535 76 l 1
179 250 m 1
 400 250 l 1
 316 613 l 1
 179 250 l 1
EndSplineSet
EndChar

StartChar: uni00C7
Encoding: 199 199 134
Width: 560
Flags: W
LayerCount: 2
Fore
SplineSet
540 65 m 1
 507 31 452 -3 376 -10 c 1
 376 -56 l 1
 444 -62 469 -100 469 -141 c 0
 469 -207 413 -241 345 -241 c 0
 307 -241 274 -232 254 -217 c 1
 279 -165 l 1
 298 -175 316 -181 342 -181 c 0
 370 -181 392 -170 392 -141 c 0
 392 -114 367 -99 303 -99 c 1
 314 -11 l 1
 162 3 55 127 55 345 c 0
 55 578 185 701 341 701 c 0
 428 701 477 677 532 633 c 1
 480 572 l 1
 437 607 395 623 347 623 c 0
 243 623 156 553 156 345 c 0
 156 146 239 68 346 68 c 0
 411 68 454 96 493 125 c 1
 540 65 l 1
EndSplineSet
EndChar

StartChar: uni00C8
Encoding: 200 200 135
Width: 535
Flags: W
LayerCount: 2
Fore
SplineSet
199 911 m 1
 400 804 l 1
 376 755 l 1
 160 834 l 1
 199 911 l 1
473 689 m 1
 462 613 l 1
 195 613 l 1
 195 388 l 1
 427 388 l 1
 427 312 l 1
 195 312 l 1
 195 76 l 1
 481 76 l 1
 481 0 l 1
 100 0 l 1
 100 689 l 1
 473 689 l 1
EndSplineSet
EndChar

StartChar: uni00C9
Encoding: 201 201 136
Width: 535
Flags: W
LayerCount: 2
Fore
SplineSet
370 911 m 1
 410 834 l 1
 194 755 l 1
 170 804 l 1
 370 911 l 1
473 689 m 1
 462 613 l 1
 195 613 l 1
 195 388 l 1
 427 388 l 1
 427 312 l 1
 195 312 l 1
 195 76 l 1
 481 76 l 1
 481 0 l 1
 100 0 l 1
 100 689 l 1
 473 689 l 1
EndSplineSet
EndChar

StartChar: uni00CA
Encoding: 202 202 137
Width: 535
Flags: W
LayerCount: 2
Fore
SplineSet
163 759 m 1
 123 804 l 1
 259 914 l 1
 320 914 l 1
 455 804 l 1
 416 759 l 1
 289 840 l 1
 163 759 l 1
473 689 m 1
 462 613 l 1
 195 613 l 1
 195 388 l 1
 427 388 l 1
 427 312 l 1
 195 312 l 1
 195 76 l 1
 481 76 l 1
 481 0 l 1
 100 0 l 1
 100 689 l 1
 473 689 l 1
EndSplineSet
EndChar

StartChar: uni00CB
Encoding: 203 203 138
Width: 535
Flags: W
LayerCount: 2
Fore
SplineSet
185 894 m 0
 217 894 242 869 242 837 c 0
 242 805 217 780 185 780 c 0
 152 780 127 805 127 837 c 0
 127 869 152 894 185 894 c 0
394 894 m 0
 427 894 452 869 452 837 c 0
 452 805 427 780 394 780 c 0
 362 780 337 805 337 837 c 0
 337 869 362 894 394 894 c 0
473 689 m 1
 462 613 l 1
 195 613 l 1
 195 388 l 1
 427 388 l 1
 427 312 l 1
 195 312 l 1
 195 76 l 1
 481 76 l 1
 481 0 l 1
 100 0 l 1
 100 689 l 1
 473 689 l 1
EndSplineSet
EndChar

StartChar: uni00CC
Encoding: 204 204 139
Width: 295
Flags: W
LayerCount: 2
Fore
SplineSet
56 911 m 1
 257 804 l 1
 233 755 l 1
 17 834 l 1
 56 911 l 1
195 689 m 1
 195 0 l 1
 100 0 l 1
 100 689 l 1
 195 689 l 1
EndSplineSet
EndChar

StartChar: uni00CD
Encoding: 205 205 140
Width: 295
Flags: W
LayerCount: 2
Fore
SplineSet
227 911 m 1
 267 834 l 1
 51 755 l 1
 27 804 l 1
 227 911 l 1
195 689 m 1
 195 0 l 1
 100 0 l 1
 100 689 l 1
 195 689 l 1
EndSplineSet
EndChar

StartChar: uni00CE
Encoding: 206 206 141
Width: 295
Flags: W
LayerCount: 2
Fore
SplineSet
20 759 m 1
 -20 804 l 1
 116 914 l 1
 177 914 l 1
 312 804 l 1
 273 759 l 1
 146 840 l 1
 20 759 l 1
195 689 m 1
 195 0 l 1
 100 0 l 1
 100 689 l 1
 195 689 l 1
EndSplineSet
EndChar

StartChar: uni00CF
Encoding: 207 207 142
Width: 295
Flags: W
LayerCount: 2
Fore
SplineSet
42 894 m 0
 74 894 99 869 99 837 c 0
 99 805 74 780 42 780 c 0
 9 780 -16 805 -16 837 c 0
 -16 869 9 894 42 894 c 0
251 894 m 0
 284 894 309 869 309 837 c 0
 309 805 284 780 251 780 c 0
 219 780 194 805 194 837 c 0
 194 869 219 894 251 894 c 0
195 689 m 1
 195 0 l 1
 100 0 l 1
 100 689 l 1
 195 689 l 1
EndSplineSet
EndChar

StartChar: uni00D0
Encoding: 208 208 143
Width: 656
Flags: W
LayerCount: 2
Fore
SplineSet
256 689 m 2
 432 689 601 634 601 348 c 0
 601 67 426 0 277 0 c 2
 112 0 l 1
 112 318 l 1
 20 318 l 1
 20 388 l 1
 112 388 l 1
 112 689 l 1
 256 689 l 2
284 75 m 2
 392 75 500 121 500 348 c 0
 500 581 387 613 277 613 c 2
 207 613 l 1
 207 388 l 1
 364 388 l 1
 364 318 l 1
 207 318 l 1
 207 75 l 1
 284 75 l 2
EndSplineSet
EndChar

StartChar: uni00D1
Encoding: 209 209 144
Width: 683
Flags: W
LayerCount: 2
Fore
SplineSet
411 782 m 0
 358 782 331 830 295 830 c 0
 272 830 258 814 242 784 c 1
 186 812 l 1
 209 861 245 900 295 900 c 0
 351 900 374 852 411 852 c 0
 431 852 446 866 464 896 c 1
 520 868 l 1
 494 811 456 782 411 782 c 0
583 689 m 1
 583 0 l 1
 456 0 l 1
 176 585 l 1
 181 528 189 444 189 316 c 2
 189 0 l 1
 100 0 l 1
 100 689 l 1
 224 689 l 1
 507 103 l 1
 505 119 494 229 494 313 c 2
 494 689 l 1
 583 689 l 1
EndSplineSet
EndChar

StartChar: uni00D2
Encoding: 210 210 145
Width: 692
Flags: W
LayerCount: 2
Fore
SplineSet
255 911 m 1
 456 804 l 1
 432 755 l 1
 216 834 l 1
 255 911 l 1
346 701 m 0
 519 701 637 576 637 344 c 0
 637 116 519 -12 346 -12 c 0
 174 -12 55 112 55 343 c 0
 55 570 174 701 346 701 c 0
346 623 m 0
 231 623 156 542 156 343 c 0
 156 144 234 66 346 66 c 0
 462 66 536 144 536 344 c 0
 536 542 464 623 346 623 c 0
EndSplineSet
EndChar

StartChar: uni00D3
Encoding: 211 211 146
Width: 692
Flags: W
LayerCount: 2
Fore
SplineSet
426 911 m 1
 466 834 l 1
 250 755 l 1
 226 804 l 1
 426 911 l 1
346 701 m 0
 519 701 637 576 637 344 c 0
 637 116 519 -12 346 -12 c 0
 174 -12 55 112 55 343 c 0
 55 570 174 701 346 701 c 0
346 623 m 0
 231 623 156 542 156 343 c 0
 156 144 234 66 346 66 c 0
 462 66 536 144 536 344 c 0
 536 542 464 623 346 623 c 0
EndSplineSet
EndChar

StartChar: uni00D4
Encoding: 212 212 147
Width: 692
Flags: W
LayerCount: 2
Fore
SplineSet
219 759 m 1
 179 804 l 1
 315 914 l 1
 376 914 l 1
 511 804 l 1
 472 759 l 1
 345 840 l 1
 219 759 l 1
346 701 m 0
 519 701 637 576 637 344 c 0
 637 116 519 -12 346 -12 c 0
 174 -12 55 112 55 343 c 0
 55 570 174 701 346 701 c 0
346 623 m 0
 231 623 156 542 156 343 c 0
 156 144 234 66 346 66 c 0
 462 66 536 144 536 344 c 0
 536 542 464 623 346 623 c 0
EndSplineSet
EndChar

StartChar: uni00D5
Encoding: 213 213 148
Width: 692
Flags: W
LayerCount: 2
Fore
SplineSet
404 782 m 0
 351 782 324 830 288 830 c 0
 265 830 251 814 235 784 c 1
 179 812 l 1
 202 861 238 900 288 900 c 0
 344 900 367 852 404 852 c 0
 424 852 439 866 457 896 c 1
 513 868 l 1
 487 811 449 782 404 782 c 0
346 701 m 0
 519 701 637 576 637 344 c 0
 637 116 519 -12 346 -12 c 0
 174 -12 55 112 55 343 c 0
 55 570 174 701 346 701 c 0
346 623 m 0
 231 623 156 542 156 343 c 0
 156 144 234 66 346 66 c 0
 462 66 536 144 536 344 c 0
 536 542 464 623 346 623 c 0
EndSplineSet
EndChar

StartChar: uni00D6
Encoding: 214 214 149
Width: 692
Flags: W
LayerCount: 2
Fore
SplineSet
241 894 m 0
 273 894 298 869 298 837 c 0
 298 805 273 780 241 780 c 0
 208 780 183 805 183 837 c 0
 183 869 208 894 241 894 c 0
450 894 m 0
 483 894 508 869 508 837 c 0
 508 805 483 780 450 780 c 0
 418 780 393 805 393 837 c 0
 393 869 418 894 450 894 c 0
346 701 m 0
 519 701 637 576 637 344 c 0
 637 116 519 -12 346 -12 c 0
 174 -12 55 112 55 343 c 0
 55 570 174 701 346 701 c 0
346 623 m 0
 231 623 156 542 156 343 c 0
 156 144 234 66 346 66 c 0
 462 66 536 144 536 344 c 0
 536 542 464 623 346 623 c 0
EndSplineSet
EndChar

StartChar: uni00D7
Encoding: 215 215 150
Width: 500
Flags: W
LayerCount: 2
Fore
SplineSet
374 460 m 1
 430 404 l 1
 306 280 l 1
 430 156 l 1
 374 100 l 1
 250 224 l 1
 126 100 l 1
 70 156 l 1
 194 280 l 1
 70 404 l 1
 126 460 l 1
 250 336 l 1
 374 460 l 1
EndSplineSet
EndChar

StartChar: uni00D8
Encoding: 216 216 151
Width: 692
Flags: W
LayerCount: 2
Fore
SplineSet
486 667 m 1
 580 616 637 506 637 344 c 0
 637 116 519 -12 346 -12 c 0
 323 -12 301 -10 279 -5 c 1
 244 -127 l 1
 165 -106 l 1
 205 22 l 1
 112 74 55 183 55 343 c 0
 55 570 174 701 346 701 c 0
 369 701 391 699 412 694 c 1
 449 819 l 1
 528 798 l 1
 486 667 l 1
346 623 m 0
 231 623 156 542 156 343 c 0
 156 211 187 135 238 97 c 1
 396 618 l 1
 380 621 364 623 346 623 c 0
346 66 m 0
 462 66 536 144 536 344 c 0
 536 479 506 556 452 594 c 1
 296 71 l 1
 311 68 328 66 346 66 c 0
EndSplineSet
EndChar

StartChar: uni00D9
Encoding: 217 217 152
Width: 662
Flags: W
LayerCount: 2
Fore
SplineSet
240 911 m 1
 441 804 l 1
 417 755 l 1
 201 834 l 1
 240 911 l 1
572 689 m 1
 572 221 l 2
 572 84 485 -12 330 -12 c 0
 173 -12 90 84 90 221 c 2
 90 689 l 1
 185 689 l 1
 185 228 l 2
 185 121 232 68 330 68 c 0
 429 68 476 121 476 228 c 2
 476 689 l 1
 572 689 l 1
EndSplineSet
EndChar

StartChar: uni00DA
Encoding: 218 218 153
Width: 662
Flags: W
LayerCount: 2
Fore
SplineSet
411 911 m 1
 451 834 l 1
 235 755 l 1
 211 804 l 1
 411 911 l 1
572 689 m 1
 572 221 l 2
 572 84 485 -12 330 -12 c 0
 173 -12 90 84 90 221 c 2
 90 689 l 1
 185 689 l 1
 185 228 l 2
 185 121 232 68 330 68 c 0
 429 68 476 121 476 228 c 2
 476 689 l 1
 572 689 l 1
EndSplineSet
EndChar

StartChar: uni00DB
Encoding: 219 219 154
Width: 662
Flags: W
LayerCount: 2
Fore
SplineSet
204 759 m 1
 164 804 l 1
 300 914 l 1
 361 914 l 1
 496 804 l 1
 457 759 l 1
 330 840 l 1
 204 759 l 1
572 689 m 1
 572 221 l 2
 572 84 485 -12 330 -12 c 0
 173 -12 90 84 90 221 c 2
 90 689 l 1
 185 689 l 1
 185 228 l 2
 185 121 232 68 330 68 c 0
 429 68 476 121 476 228 c 2
 476 689 l 1
 572 689 l 1
EndSplineSet
EndChar

StartChar: uni00DC
Encoding: 220 220 155
Width: 662
Flags: W
LayerCount: 2
Fore
SplineSet
226 894 m 0
 258 894 283 869 283 837 c 0
 283 805 258 780 226 780 c 0
 193 780 168 805 168 837 c 0
 168 869 193 894 226 894 c 0
435 894 m 0
 468 894 493 869 493 837 c 0
 493 805 468 780 435 780 c 0
 403 780 378 805 378 837 c 0
 378 869 403 894 435 894 c 0
572 689 m 1
 572 221 l 2
 572 84 485 -12 330 -12 c 0
 173 -12 90 84 90 221 c 2
 90 689 l 1
 185 689 l 1
 185 228 l 2
 185 121 232 68 330 68 c 0
 429 68 476 121 476 228 c 2
 476 689 l 1
 572 689 l 1
EndSplineSet
EndChar

StartChar: uni00DD
Encoding: 221 221 156
Width: 550
Flags: W
LayerCount: 2
Fore
SplineSet
355 911 m 1
 395 834 l 1
 179 755 l 1
 155 804 l 1
 355 911 l 1
545 689 m 1
 323 265 l 1
 323 0 l 1
 227 0 l 1
 227 264 l 1
 5 689 l 1
 110 689 l 1
 278 348 l 1
 446 689 l 1
 545 689 l 1
EndSplineSet
EndChar

StartChar: uni00DE
Encoding: 222 222 157
Width: 589
Flags: W
LayerCount: 2
Fore
SplineSet
281 571 m 2
 447 571 549 503 549 354 c 0
 549 192 434 127 282 127 c 2
 195 127 l 1
 195 0 l 1
 100 0 l 1
 100 689 l 1
 195 689 l 1
 195 571 l 1
 281 571 l 2
278 202 m 2
 380 202 448 232 448 353 c 0
 448 460 382 497 280 497 c 2
 195 497 l 1
 195 202 l 1
 278 202 l 2
EndSplineSet
EndChar

StartChar: uni00DF
Encoding: 223 223 158
Width: 590
Flags: W
LayerCount: 2
Fore
SplineSet
293 750 m 0
 405 750 473 687 473 607 c 0
 473 499 362 491 362 427 c 0
 362 343 550 336 550 162 c 0
 550 54 465 -12 372 -12 c 0
 325 -12 296 -3 270 11 c 1
 297 75 l 1
 311 68 331 62 363 62 c 0
 417 62 456 95 456 163 c 0
 456 295 275 297 275 420 c 0
 275 516 385 513 385 602 c 0
 385 653 343 678 292 678 c 0
 223 678 184 634 184 539 c 2
 184 0 l 1
 92 0 l 1
 92 539 l 2
 92 672 165 750 293 750 c 0
EndSplineSet
EndChar

StartChar: uni00E0
Encoding: 224 224 159
Width: 544
Flags: W
LayerCount: 2
Fore
SplineSet
391 687 m 1
 363 638 l 1
 151 724 l 1
 192 801 l 1
 391 687 l 1
450 123 m 2
 450 77 467 62 494 52 c 1
 473 -12 l 1
 420 -6 386 15 370 67 c 1
 333 12 277 -12 213 -12 c 0
 108 -12 45 53 45 147 c 0
 45 260 130 321 277 321 c 2
 358 321 l 1
 358 360 l 2
 358 436 321 464 248 464 c 0
 209 464 160 454 106 436 c 1
 83 503 l 1
 148 527 206 539 265 539 c 0
 392 539 450 474 450 364 c 2
 450 123 l 2
234 57 m 0
 288 57 328 84 358 139 c 1
 358 260 l 1
 289 260 l 2
 192 260 143 224 143 152 c 0
 143 90 174 57 234 57 c 0
EndSplineSet
EndChar

StartChar: uni00E1
Encoding: 225 225 160
Width: 544
Flags: W
LayerCount: 2
Fore
SplineSet
381 724 m 1
 169 638 l 1
 141 687 l 1
 340 801 l 1
 381 724 l 1
450 123 m 2
 450 77 467 62 494 52 c 1
 473 -12 l 1
 420 -6 386 15 370 67 c 1
 333 12 277 -12 213 -12 c 0
 108 -12 45 53 45 147 c 0
 45 260 130 321 277 321 c 2
 358 321 l 1
 358 360 l 2
 358 436 321 464 248 464 c 0
 209 464 160 454 106 436 c 1
 83 503 l 1
 148 527 206 539 265 539 c 0
 392 539 450 474 450 364 c 2
 450 123 l 2
234 57 m 0
 288 57 328 84 358 139 c 1
 358 260 l 1
 289 260 l 2
 192 260 143 224 143 152 c 0
 143 90 174 57 234 57 c 0
EndSplineSet
EndChar

StartChar: uni00E2
Encoding: 226 226 161
Width: 544
Flags: W
LayerCount: 2
Fore
SplineSet
261 718 m 1
 134 634 l 1
 95 679 l 1
 230 792 l 1
 291 792 l 1
 427 679 l 1
 387 634 l 1
 261 718 l 1
450 123 m 2
 450 77 467 62 494 52 c 1
 473 -12 l 1
 420 -6 386 15 370 67 c 1
 333 12 277 -12 213 -12 c 0
 108 -12 45 53 45 147 c 0
 45 260 130 321 277 321 c 2
 358 321 l 1
 358 360 l 2
 358 436 321 464 248 464 c 0
 209 464 160 454 106 436 c 1
 83 503 l 1
 148 527 206 539 265 539 c 0
 392 539 450 474 450 364 c 2
 450 123 l 2
234 57 m 0
 288 57 328 84 358 139 c 1
 358 260 l 1
 289 260 l 2
 192 260 143 224 143 152 c 0
 143 90 174 57 234 57 c 0
EndSplineSet
EndChar

StartChar: uni00E3
Encoding: 227 227 162
Width: 544
Flags: W
LayerCount: 2
Fore
SplineSet
203 704 m 0
 180 704 166 688 150 658 c 1
 94 686 l 1
 117 735 153 774 203 774 c 0
 259 774 282 726 319 726 c 0
 339 726 354 740 372 770 c 1
 428 742 l 1
 402 685 364 656 319 656 c 0
 266 656 239 704 203 704 c 0
450 123 m 2
 450 77 467 62 494 52 c 1
 473 -12 l 1
 420 -6 386 15 370 67 c 1
 333 12 277 -12 213 -12 c 0
 108 -12 45 53 45 147 c 0
 45 260 130 321 277 321 c 2
 358 321 l 1
 358 360 l 2
 358 436 321 464 248 464 c 0
 209 464 160 454 106 436 c 1
 83 503 l 1
 148 527 206 539 265 539 c 0
 392 539 450 474 450 364 c 2
 450 123 l 2
234 57 m 0
 288 57 328 84 358 139 c 1
 358 260 l 1
 289 260 l 2
 192 260 143 224 143 152 c 0
 143 90 174 57 234 57 c 0
EndSplineSet
EndChar

StartChar: uni00E4
Encoding: 228 228 163
Width: 544
Flags: W
LayerCount: 2
Fore
SplineSet
156 654 m 0
 123 654 98 679 98 711 c 0
 98 743 123 768 156 768 c 0
 188 768 213 743 213 711 c 0
 213 679 188 654 156 654 c 0
365 654 m 0
 333 654 308 679 308 711 c 0
 308 743 333 768 365 768 c 0
 398 768 423 743 423 711 c 0
 423 679 398 654 365 654 c 0
450 123 m 2
 450 77 467 62 494 52 c 1
 473 -12 l 1
 420 -6 386 15 370 67 c 1
 333 12 277 -12 213 -12 c 0
 108 -12 45 53 45 147 c 0
 45 260 130 321 277 321 c 2
 358 321 l 1
 358 360 l 2
 358 436 321 464 248 464 c 0
 209 464 160 454 106 436 c 1
 83 503 l 1
 148 527 206 539 265 539 c 0
 392 539 450 474 450 364 c 2
 450 123 l 2
234 57 m 0
 288 57 328 84 358 139 c 1
 358 260 l 1
 289 260 l 2
 192 260 143 224 143 152 c 0
 143 90 174 57 234 57 c 0
EndSplineSet
EndChar

StartChar: uni00E5
Encoding: 229 229 164
Width: 544
Flags: W
LayerCount: 2
Fore
SplineSet
261 624 m 0
 194 624 147 671 147 730 c 0
 147 789 194 836 261 836 c 0
 328 836 375 789 375 730 c 0
 375 671 328 624 261 624 c 0
261 786 m 0
 228 786 208 765 208 730 c 0
 208 695 228 674 261 674 c 0
 293 674 314 695 314 730 c 0
 314 765 294 786 261 786 c 0
450 123 m 2
 450 77 467 62 494 52 c 1
 473 -12 l 1
 420 -6 386 15 370 67 c 1
 333 12 277 -12 213 -12 c 0
 108 -12 45 53 45 147 c 0
 45 260 130 321 277 321 c 2
 358 321 l 1
 358 360 l 2
 358 436 321 464 248 464 c 0
 209 464 160 454 106 436 c 1
 83 503 l 1
 148 527 206 539 265 539 c 0
 392 539 450 474 450 364 c 2
 450 123 l 2
234 57 m 0
 288 57 328 84 358 139 c 1
 358 260 l 1
 289 260 l 2
 192 260 143 224 143 152 c 0
 143 90 174 57 234 57 c 0
EndSplineSet
EndChar

StartChar: uni00E6
Encoding: 230 230 165
Width: 848
Flags: W
LayerCount: 2
Fore
SplineSet
797 279 m 0
 797 261 796 244 795 232 c 1
 459 232 l 1
 468 110 525 63 601 63 c 0
 653 63 692 77 738 109 c 1
 778 54 l 1
 726 13 667 -12 594 -12 c 0
 509 -12 444 23 404 85 c 1
 355 14 297 -12 216 -12 c 0
 110 -12 45 53 45 147 c 0
 45 260 133 321 280 321 c 2
 361 321 l 1
 361 360 l 2
 361 436 324 464 251 464 c 0
 212 464 163 454 109 436 c 1
 86 503 l 1
 151 527 209 539 268 539 c 0
 352 539 399 506 425 455 c 1
 461 508 511 539 584 539 c 0
 722 539 797 440 797 279 c 0
706 300 m 1
 706 306 l 2
 706 409 665 466 582 466 c 0
 512 466 466 417 459 300 c 1
 706 300 l 1
237 57 m 0
 294 57 336 86 376 149 c 1
 366 181 361 217 361 257 c 2
 361 260 l 1
 292 260 l 2
 195 260 146 224 146 152 c 0
 146 90 177 57 237 57 c 0
EndSplineSet
EndChar

StartChar: uni00E7
Encoding: 231 231 166
Width: 477
Flags: W
LayerCount: 2
Fore
SplineSet
448 46 m 1
 406 12 360 -7 308 -11 c 1
 308 -56 l 1
 376 -62 401 -100 401 -141 c 0
 401 -207 345 -241 277 -241 c 0
 239 -241 206 -232 186 -217 c 1
 211 -165 l 1
 230 -175 248 -181 274 -181 c 0
 302 -181 324 -170 324 -141 c 0
 324 -114 299 -99 235 -99 c 1
 246 -9 l 1
 128 9 57 106 57 259 c 0
 57 427 144 539 287 539 c 0
 349 539 399 523 448 482 c 1
 404 424 l 1
 368 450 335 463 291 463 c 0
 208 463 156 398 156 261 c 0
 156 123 208 66 291 66 c 0
 335 66 366 80 406 106 c 1
 448 46 l 1
EndSplineSet
EndChar

StartChar: uni00E8
Encoding: 232 232 167
Width: 544
Flags: W
LayerCount: 2
Fore
SplineSet
409 687 m 1
 381 638 l 1
 169 724 l 1
 210 801 l 1
 409 687 l 1
493 279 m 0
 493 261 492 244 491 232 c 1
 155 232 l 1
 164 110 221 63 297 63 c 0
 349 63 388 77 434 109 c 1
 474 54 l 1
 422 13 363 -12 290 -12 c 0
 143 -12 57 91 57 258 c 0
 57 422 140 539 276 539 c 0
 418 539 493 440 493 279 c 0
402 300 m 1
 402 306 l 2
 402 409 361 466 278 466 c 0
 208 466 162 417 155 300 c 1
 402 300 l 1
EndSplineSet
EndChar

StartChar: uni00E9
Encoding: 233 233 168
Width: 544
Flags: W
LayerCount: 2
Fore
SplineSet
399 724 m 1
 187 638 l 1
 159 687 l 1
 358 801 l 1
 399 724 l 1
493 279 m 0
 493 261 492 244 491 232 c 1
 155 232 l 1
 164 110 221 63 297 63 c 0
 349 63 388 77 434 109 c 1
 474 54 l 1
 422 13 363 -12 290 -12 c 0
 143 -12 57 91 57 258 c 0
 57 422 140 539 276 539 c 0
 418 539 493 440 493 279 c 0
402 300 m 1
 402 306 l 2
 402 409 361 466 278 466 c 0
 208 466 162 417 155 300 c 1
 402 300 l 1
EndSplineSet
EndChar

StartChar: uni00EA
Encoding: 234 234 169
Width: 544
Flags: W
LayerCount: 2
Fore
SplineSet
279 718 m 1
 152 634 l 1
 113 679 l 1
 248 792 l 1
 309 792 l 1
 445 679 l 1
 405 634 l 1
 279 718 l 1
493 279 m 0
 493 261 492 244 491 232 c 1
 155 232 l 1
 164 110 221 63 297 63 c 0
 349 63 388 77 434 109 c 1
 474 54 l 1
 422 13 363 -12 290 -12 c 0
 143 -12 57 91 57 258 c 0
 57 422 140 539 276 539 c 0
 418 539 493 440 493 279 c 0
402 300 m 1
 402 306 l 2
 402 409 361 466 278 466 c 0
 208 466 162 417 155 300 c 1
 402 300 l 1
EndSplineSet
EndChar

StartChar: uni00EB
Encoding: 235 235 170
Width: 544
Flags: W
LayerCount: 2
Fore
SplineSet
174 654 m 0
 141 654 116 679 116 711 c 0
 116 743 141 768 174 768 c 0
 206 768 231 743 231 711 c 0
 231 679 206 654 174 654 c 0
383 654 m 0
 351 654 326 679 326 711 c 0
 326 743 351 768 383 768 c 0
 416 768 441 743 441 711 c 0
 441 679 416 654 383 654 c 0
493 279 m 0
 493 261 492 244 491 232 c 1
 155 232 l 1
 164 110 221 63 297 63 c 0
 349 63 388 77 434 109 c 1
 474 54 l 1
 422 13 363 -12 290 -12 c 0
 143 -12 57 91 57 258 c 0
 57 422 140 539 276 539 c 0
 418 539 493 440 493 279 c 0
402 300 m 1
 402 306 l 2
 402 409 361 466 278 466 c 0
 208 466 162 417 155 300 c 1
 402 300 l 1
EndSplineSet
EndChar

StartChar: uni00EC
Encoding: 236 236 171
Width: 276
Flags: W
LayerCount: 2
Fore
SplineSet
69 801 m 1
 268 687 l 1
 240 638 l 1
 28 724 l 1
 69 801 l 1
184 527 m 1
 184 0 l 1
 92 0 l 1
 92 527 l 1
 184 527 l 1
EndSplineSet
EndChar

StartChar: uni00ED
Encoding: 237 237 172
Width: 276
Flags: W
LayerCount: 2
Fore
SplineSet
217 801 m 1
 258 724 l 1
 46 638 l 1
 18 687 l 1
 217 801 l 1
184 527 m 1
 184 0 l 1
 92 0 l 1
 92 527 l 1
 184 527 l 1
EndSplineSet
EndChar

StartChar: uni00EE
Encoding: 238 238 173
Width: 276
Flags: W
LayerCount: 2
Fore
SplineSet
11 634 m 1
 -28 679 l 1
 107 792 l 1
 168 792 l 1
 304 679 l 1
 264 634 l 1
 138 718 l 1
 11 634 l 1
184 527 m 1
 184 0 l 1
 92 0 l 1
 92 527 l 1
 184 527 l 1
EndSplineSet
EndChar

StartChar: uni00EF
Encoding: 239 239 174
Width: 276
Flags: W
LayerCount: 2
Fore
SplineSet
33 768 m 0
 65 768 90 743 90 711 c 0
 90 679 65 654 33 654 c 0
 0 654 -25 679 -25 711 c 0
 -25 743 0 768 33 768 c 0
242 768 m 0
 275 768 300 743 300 711 c 0
 300 679 275 654 242 654 c 0
 210 654 185 679 185 711 c 0
 185 743 210 768 242 768 c 0
184 527 m 1
 184 0 l 1
 92 0 l 1
 92 527 l 1
 184 527 l 1
EndSplineSet
EndChar

StartChar: uni00F0
Encoding: 240 240 175
Width: 570
Flags: W
LayerCount: 2
Fore
SplineSet
342 664 m 1
 466 570 508 445 508 265 c 0
 508 97 414 -12 278 -12 c 0
 155 -12 57 77 57 235 c 0
 57 353 121 475 258 475 c 0
 323 475 370 450 405 408 c 1
 389 491 353 554 286 607 c 1
 214 537 l 1
 151 569 l 1
 225 644 l 1
 186 662 153 672 112 680 c 1
 132 750 l 1
 188 739 234 725 281 702 c 1
 351 776 l 1
 405 729 l 1
 342 664 l 1
277 61 m 0
 358 61 415 131 415 266 c 0
 415 287 414 306 413 325 c 1
 379 376 335 403 272 403 c 0
 178 403 151 327 151 239 c 0
 151 122 202 61 277 61 c 0
EndSplineSet
EndChar

StartChar: uni00F1
Encoding: 241 241 176
Width: 579
Flags: W
LayerCount: 2
Fore
SplineSet
237 704 m 0
 214 704 200 688 184 658 c 1
 128 686 l 1
 151 735 187 774 237 774 c 0
 293 774 316 726 353 726 c 0
 373 726 388 740 406 770 c 1
 462 742 l 1
 436 685 398 656 353 656 c 0
 300 656 273 704 237 704 c 0
340 539 m 0
 437 539 493 478 493 378 c 2
 493 0 l 1
 401 0 l 1
 401 365 l 2
 401 444 369 467 318 467 c 0
 259 467 219 430 184 374 c 1
 184 0 l 1
 92 0 l 1
 92 527 l 1
 171 527 l 1
 179 449 l 1
 215 503 271 539 340 539 c 0
EndSplineSet
EndChar

StartChar: uni00F2
Encoding: 242 242 177
Width: 584
Flags: W
LayerCount: 2
Fore
SplineSet
223 801 m 1
 422 687 l 1
 394 638 l 1
 182 724 l 1
 223 801 l 1
293 539 m 0
 443 539 527 431 527 264 c 0
 527 101 441 -12 292 -12 c 0
 142 -12 57 96 57 263 c 0
 57 426 143 539 293 539 c 0
293 465 m 0
 205 465 156 401 156 263 c 0
 156 126 204 62 292 62 c 0
 380 62 428 126 428 264 c 0
 428 401 380 465 293 465 c 0
EndSplineSet
EndChar

StartChar: uni00F3
Encoding: 243 243 178
Width: 584
Flags: W
LayerCount: 2
Fore
SplineSet
371 801 m 1
 412 724 l 1
 200 638 l 1
 172 687 l 1
 371 801 l 1
293 539 m 0
 443 539 527 431 527 264 c 0
 527 101 441 -12 292 -12 c 0
 142 -12 57 96 57 263 c 0
 57 426 143 539 293 539 c 0
293 465 m 0
 205 465 156 401 156 263 c 0
 156 126 204 62 292 62 c 0
 380 62 428 126 428 264 c 0
 428 401 380 465 293 465 c 0
EndSplineSet
EndChar

StartChar: uni00F4
Encoding: 244 244 179
Width: 584
Flags: W
LayerCount: 2
Fore
SplineSet
165 634 m 1
 126 679 l 1
 261 792 l 1
 322 792 l 1
 458 679 l 1
 418 634 l 1
 292 718 l 1
 165 634 l 1
293 539 m 0
 443 539 527 431 527 264 c 0
 527 101 441 -12 292 -12 c 0
 142 -12 57 96 57 263 c 0
 57 426 143 539 293 539 c 0
293 465 m 0
 205 465 156 401 156 263 c 0
 156 126 204 62 292 62 c 0
 380 62 428 126 428 264 c 0
 428 401 380 465 293 465 c 0
EndSplineSet
EndChar

StartChar: uni00F5
Encoding: 245 245 180
Width: 584
Flags: W
LayerCount: 2
Fore
SplineSet
350 656 m 0
 297 656 270 704 234 704 c 0
 211 704 197 688 181 658 c 1
 125 686 l 1
 148 735 184 774 234 774 c 0
 290 774 313 726 350 726 c 0
 370 726 385 740 403 770 c 1
 459 742 l 1
 433 685 395 656 350 656 c 0
293 539 m 0
 443 539 527 431 527 264 c 0
 527 101 441 -12 292 -12 c 0
 142 -12 57 96 57 263 c 0
 57 426 143 539 293 539 c 0
293 465 m 0
 205 465 156 401 156 263 c 0
 156 126 204 62 292 62 c 0
 380 62 428 126 428 264 c 0
 428 401 380 465 293 465 c 0
EndSplineSet
EndChar

StartChar: uni00F6
Encoding: 246 246 181
Width: 584
Flags: W
LayerCount: 2
Fore
SplineSet
187 768 m 0
 219 768 244 743 244 711 c 0
 244 679 219 654 187 654 c 0
 154 654 129 679 129 711 c 0
 129 743 154 768 187 768 c 0
396 768 m 0
 429 768 454 743 454 711 c 0
 454 679 429 654 396 654 c 0
 364 654 339 679 339 711 c 0
 339 743 364 768 396 768 c 0
293 539 m 0
 443 539 527 431 527 264 c 0
 527 101 441 -12 292 -12 c 0
 142 -12 57 96 57 263 c 0
 57 426 143 539 293 539 c 0
293 465 m 0
 205 465 156 401 156 263 c 0
 156 126 204 62 292 62 c 0
 380 62 428 126 428 264 c 0
 428 401 380 465 293 465 c 0
EndSplineSet
EndChar

StartChar: uni00F7
Encoding: 247 247 182
Width: 500
Flags: W
CounterMasks: 1 e0
LayerCount: 2
Fore
SplineSet
62 242 m 1
 62 318 l 1
 438 318 l 1
 438 242 l 1
 62 242 l 1
186 92 m 0
 186 127 215 156 250 156 c 0
 285 156 314 127 314 92 c 0
 314 57 285 28 250 28 c 0
 215 28 186 57 186 92 c 0
186 468 m 0
 186 503 215 532 250 532 c 0
 285 532 314 503 314 468 c 0
 314 433 285 404 250 404 c 0
 215 404 186 433 186 468 c 0
EndSplineSet
EndChar

StartChar: uni00F8
Encoding: 248 248 183
Width: 584
Flags: W
LayerCount: 2
Fore
SplineSet
416 508 m 1
 488 464 527 378 527 264 c 0
 527 101 441 -12 292 -12 c 0
 274 -12 257 -10 241 -7 c 1
 202 -130 l 1
 127 -108 l 1
 169 19 l 1
 97 63 57 149 57 263 c 0
 57 426 143 539 293 539 c 0
 311 539 328 537 344 534 c 1
 383 656 l 1
 458 634 l 1
 416 508 l 1
293 465 m 0
 205 465 156 401 156 263 c 0
 156 171 173 118 204 89 c 1
 328 462 l 1
 317 464 305 465 293 465 c 0
292 62 m 0
 380 62 428 126 428 264 c 0
 428 355 412 408 381 437 c 1
 258 65 l 1
 268 63 280 62 292 62 c 0
EndSplineSet
EndChar

StartChar: uni00F9
Encoding: 249 249 184
Width: 575
Flags: W
LayerCount: 2
Fore
SplineSet
216 801 m 1
 415 687 l 1
 387 638 l 1
 175 724 l 1
 216 801 l 1
483 527 m 1
 483 0 l 1
 404 0 l 1
 397 82 l 1
 357 18 308 -12 233 -12 c 0
 141 -12 86 46 86 149 c 2
 86 527 l 1
 178 527 l 1
 178 159 l 2
 178 87 202 60 259 60 c 0
 316 60 359 98 391 151 c 1
 391 527 l 1
 483 527 l 1
EndSplineSet
EndChar

StartChar: uni00FA
Encoding: 250 250 185
Width: 575
Flags: W
LayerCount: 2
Fore
SplineSet
364 801 m 1
 405 724 l 1
 193 638 l 1
 165 687 l 1
 364 801 l 1
483 527 m 1
 483 0 l 1
 404 0 l 1
 397 82 l 1
 357 18 308 -12 233 -12 c 0
 141 -12 86 46 86 149 c 2
 86 527 l 1
 178 527 l 1
 178 159 l 2
 178 87 202 60 259 60 c 0
 316 60 359 98 391 151 c 1
 391 527 l 1
 483 527 l 1
EndSplineSet
EndChar

StartChar: uni00FB
Encoding: 251 251 186
Width: 575
Flags: W
LayerCount: 2
Fore
SplineSet
158 634 m 1
 119 679 l 1
 254 792 l 1
 315 792 l 1
 451 679 l 1
 411 634 l 1
 285 718 l 1
 158 634 l 1
483 527 m 1
 483 0 l 1
 404 0 l 1
 397 82 l 1
 357 18 308 -12 233 -12 c 0
 141 -12 86 46 86 149 c 2
 86 527 l 1
 178 527 l 1
 178 159 l 2
 178 87 202 60 259 60 c 0
 316 60 359 98 391 151 c 1
 391 527 l 1
 483 527 l 1
EndSplineSet
EndChar

StartChar: uni00FC
Encoding: 252 252 187
Width: 575
Flags: W
LayerCount: 2
Fore
SplineSet
180 768 m 0
 212 768 237 743 237 711 c 0
 237 679 212 654 180 654 c 0
 147 654 122 679 122 711 c 0
 122 743 147 768 180 768 c 0
389 768 m 0
 422 768 447 743 447 711 c 0
 447 679 422 654 389 654 c 0
 357 654 332 679 332 711 c 0
 332 743 357 768 389 768 c 0
483 527 m 1
 483 0 l 1
 404 0 l 1
 397 82 l 1
 357 18 308 -12 233 -12 c 0
 141 -12 86 46 86 149 c 2
 86 527 l 1
 178 527 l 1
 178 159 l 2
 178 87 202 60 259 60 c 0
 316 60 359 98 391 151 c 1
 391 527 l 1
 483 527 l 1
EndSplineSet
EndChar

StartChar: uni00FD
Encoding: 253 253 188
Width: 492
Flags: W
LayerCount: 2
Fore
SplineSet
325 801 m 1
 366 724 l 1
 154 638 l 1
 126 687 l 1
 325 801 l 1
482 527 m 1
 306 -3 l 2
 269 -115 207 -197 61 -213 c 1
 51 -141 l 1
 158 -123 188 -82 218 0 c 1
 187 0 l 1
 10 527 l 1
 108 527 l 1
 249 67 l 1
 387 527 l 1
 482 527 l 1
EndSplineSet
EndChar

StartChar: uni00FE
Encoding: 254 254 189
Width: 586
Flags: W
LayerCount: 2
Fore
SplineSet
334 539 m 0
 474 539 529 430 529 264 c 0
 529 104 458 -12 322 -12 c 0
 265 -12 218 7 184 48 c 1
 184 -198 l 1
 92 -213 l 1
 92 739 l 1
 184 750 l 1
 184 463 l 1
 222 513 276 539 334 539 c 0
300 63 m 0
 384 63 430 126 430 264 c 0
 430 401 390 466 311 466 c 0
 255 466 212 426 184 384 c 1
 184 127 l 1
 211 86 252 63 300 63 c 0
EndSplineSet
EndChar

StartChar: uni00FF
Encoding: 255 255 190
Width: 492
Flags: W
LayerCount: 2
Fore
SplineSet
141 768 m 0
 173 768 198 743 198 711 c 0
 198 679 173 654 141 654 c 0
 108 654 83 679 83 711 c 0
 83 743 108 768 141 768 c 0
350 768 m 0
 383 768 408 743 408 711 c 0
 408 679 383 654 350 654 c 0
 318 654 293 679 293 711 c 0
 293 743 318 768 350 768 c 0
482 527 m 1
 306 -3 l 2
 269 -115 207 -197 61 -213 c 1
 51 -141 l 1
 158 -123 188 -82 218 0 c 1
 187 0 l 1
 10 527 l 1
 108 527 l 1
 249 67 l 1
 387 527 l 1
 482 527 l 1
EndSplineSet
EndChar

StartChar: uni0100
Encoding: 256 256 191
Width: 573
Flags: W
LayerCount: 2
Fore
SplineSet
423 862 m 1
 423 793 l 1
 150 793 l 1
 150 862 l 1
 423 862 l 1
467 0 m 1
 415 173 l 1
 154 173 l 1
 102 0 l 1
 6 0 l 1
 227 689 l 1
 347 689 l 1
 567 0 l 1
 467 0 l 1
177 250 m 1
 392 250 l 1
 285 610 l 1
 177 250 l 1
EndSplineSet
EndChar

StartChar: uni0101
Encoding: 257 257 192
Width: 544
Flags: W
LayerCount: 2
Fore
SplineSet
397 736 m 1
 397 667 l 1
 124 667 l 1
 124 736 l 1
 397 736 l 1
450 123 m 2
 450 77 467 62 494 52 c 1
 473 -12 l 1
 420 -6 386 15 370 67 c 1
 333 12 277 -12 213 -12 c 0
 108 -12 45 53 45 147 c 0
 45 260 130 321 277 321 c 2
 358 321 l 1
 358 360 l 2
 358 436 321 464 248 464 c 0
 209 464 160 454 106 436 c 1
 83 503 l 1
 148 527 206 539 265 539 c 0
 392 539 450 474 450 364 c 2
 450 123 l 2
234 57 m 0
 288 57 328 84 358 139 c 1
 358 260 l 1
 289 260 l 2
 192 260 143 224 143 152 c 0
 143 90 174 57 234 57 c 0
EndSplineSet
EndChar

StartChar: uni0102
Encoding: 258 258 193
Width: 573
Flags: W
LayerCount: 2
Fore
SplineSet
285 758 m 0
 205 758 143 807 135 881 c 1
 196 894 l 1
 210 854 238 828 285 828 c 0
 332 828 363 854 377 894 c 1
 438 881 l 1
 430 807 366 758 285 758 c 0
467 0 m 1
 415 173 l 1
 154 173 l 1
 102 0 l 1
 6 0 l 1
 227 689 l 1
 347 689 l 1
 567 0 l 1
 467 0 l 1
177 250 m 1
 392 250 l 1
 285 610 l 1
 177 250 l 1
EndSplineSet
EndChar

StartChar: uni0103
Encoding: 259 259 194
Width: 544
Flags: W
LayerCount: 2
Fore
SplineSet
259 643 m 0
 179 643 117 692 109 776 c 1
 170 789 l 1
 184 739 212 713 259 713 c 0
 306 713 337 739 351 789 c 1
 412 776 l 1
 404 692 340 643 259 643 c 0
450 123 m 2
 450 77 467 62 494 52 c 1
 473 -12 l 1
 420 -6 386 15 370 67 c 1
 333 12 277 -12 213 -12 c 0
 108 -12 45 53 45 147 c 0
 45 260 130 321 277 321 c 2
 358 321 l 1
 358 360 l 2
 358 436 321 464 248 464 c 0
 209 464 160 454 106 436 c 1
 83 503 l 1
 148 527 206 539 265 539 c 0
 392 539 450 474 450 364 c 2
 450 123 l 2
234 57 m 0
 288 57 328 84 358 139 c 1
 358 260 l 1
 289 260 l 2
 192 260 143 224 143 152 c 0
 143 90 174 57 234 57 c 0
EndSplineSet
EndChar

StartChar: uni0104
Encoding: 260 260 195
Width: 573
Flags: W
LayerCount: 2
Fore
SplineSet
527 0 m 1
 425 -44 404 -78 404 -114 c 0
 404 -144 419 -162 460 -162 c 0
 481 -162 497 -160 521 -155 c 1
 512 -225 l 1
 492 -229 475 -232 449 -232 c 0
 372 -232 324 -189 324 -131 c 0
 324 -67 368 -20 462 16 c 1
 415 173 l 1
 154 173 l 1
 102 0 l 1
 6 0 l 1
 227 689 l 1
 347 689 l 1
 567 0 l 1
 527 0 l 1
177 250 m 1
 392 250 l 1
 285 610 l 1
 177 250 l 1
EndSplineSet
EndChar

StartChar: uni0105
Encoding: 261 261 196
Width: 544
Flags: W
LayerCount: 2
Fore
SplineSet
473 -12 m 1
 371 -56 350 -90 350 -126 c 0
 350 -156 365 -174 406 -174 c 0
 427 -174 443 -172 467 -167 c 1
 458 -237 l 1
 438 -241 421 -244 395 -244 c 0
 318 -244 270 -201 270 -143 c 0
 270 -78 316 -30 414 6 c 1
 393 19 379 38 370 67 c 1
 333 12 277 -12 213 -12 c 0
 108 -12 45 53 45 147 c 0
 45 260 130 321 277 321 c 2
 358 321 l 1
 358 360 l 2
 358 436 321 464 248 464 c 0
 209 464 160 454 106 436 c 1
 83 503 l 1
 148 527 206 539 265 539 c 0
 392 539 450 474 450 364 c 2
 450 123 l 2
 450 77 467 62 494 52 c 1
 473 -12 l 1
234 57 m 0
 288 57 328 84 358 139 c 1
 358 260 l 1
 289 260 l 2
 192 260 143 224 143 152 c 0
 143 90 174 57 234 57 c 0
EndSplineSet
EndChar

StartChar: uni0106
Encoding: 262 262 197
Width: 560
Flags: W
LayerCount: 2
Fore
SplineSet
427 911 m 1
 467 834 l 1
 251 755 l 1
 227 804 l 1
 427 911 l 1
341 701 m 0
 428 701 477 677 532 633 c 1
 480 572 l 1
 437 607 395 623 347 623 c 0
 243 623 156 553 156 345 c 0
 156 146 239 68 346 68 c 0
 411 68 454 96 493 125 c 1
 540 65 l 1
 502 26 436 -12 343 -12 c 0
 176 -12 55 113 55 345 c 0
 55 578 185 701 341 701 c 0
EndSplineSet
EndChar

StartChar: uni0107
Encoding: 263 263 198
Width: 477
Flags: W
LayerCount: 2
Fore
SplineSet
368 801 m 1
 409 724 l 1
 197 638 l 1
 169 687 l 1
 368 801 l 1
287 539 m 0
 349 539 399 523 448 482 c 1
 404 424 l 1
 368 450 335 463 291 463 c 0
 208 463 156 398 156 261 c 0
 156 123 208 66 291 66 c 0
 335 66 366 80 406 106 c 1
 448 46 l 1
 401 8 348 -12 287 -12 c 0
 145 -12 57 89 57 259 c 0
 57 427 144 539 287 539 c 0
EndSplineSet
EndChar

StartChar: uni010C
Encoding: 268 268 199
Width: 560
Flags: W
LayerCount: 2
Fore
SplineSet
474 909 m 1
 513 864 l 1
 378 754 l 1
 317 754 l 1
 181 864 l 1
 221 909 l 1
 347 828 l 1
 474 909 l 1
341 701 m 0
 428 701 477 677 532 633 c 1
 480 572 l 1
 437 607 395 623 347 623 c 0
 243 623 156 553 156 345 c 0
 156 146 239 68 346 68 c 0
 411 68 454 96 493 125 c 1
 540 65 l 1
 502 26 436 -12 343 -12 c 0
 176 -12 55 113 55 345 c 0
 55 578 185 701 341 701 c 0
EndSplineSet
EndChar

StartChar: uni010D
Encoding: 269 269 200
Width: 477
Flags: W
LayerCount: 2
Fore
SplineSet
416 785 m 1
 455 740 l 1
 320 627 l 1
 259 627 l 1
 123 740 l 1
 163 785 l 1
 289 701 l 1
 416 785 l 1
287 539 m 0
 349 539 399 523 448 482 c 1
 404 424 l 1
 368 450 335 463 291 463 c 0
 208 463 156 398 156 261 c 0
 156 123 208 66 291 66 c 0
 335 66 366 80 406 106 c 1
 448 46 l 1
 401 8 348 -12 287 -12 c 0
 145 -12 57 89 57 259 c 0
 57 427 144 539 287 539 c 0
EndSplineSet
EndChar

StartChar: uni010E
Encoding: 270 270 201
Width: 644
Flags: W
LayerCount: 2
Fore
SplineSet
430 909 m 1
 469 864 l 1
 334 754 l 1
 273 754 l 1
 137 864 l 1
 177 909 l 1
 303 828 l 1
 430 909 l 1
244 689 m 2
 420 689 589 634 589 348 c 0
 589 67 414 0 265 0 c 2
 100 0 l 1
 100 689 l 1
 244 689 l 2
265 613 m 2
 195 613 l 1
 195 75 l 1
 272 75 l 2
 380 75 488 121 488 348 c 0
 488 581 375 613 265 613 c 2
EndSplineSet
EndChar

StartChar: uni010F
Encoding: 271 271 202
Width: 598
Flags: W
LayerCount: 2
Fore
SplineSet
406 474 m 1
 406 750 l 1
 498 739 l 1
 498 0 l 1
 417 0 l 1
 408 73 l 1
 374 20 321 -12 256 -12 c 0
 128 -12 57 97 57 261 c 0
 57 422 135 539 264 539 c 0
 326 539 371 511 406 474 c 1
568 749 m 1
 651 739 l 1
 601 555 l 1
 548 563 l 1
 568 749 l 1
276 61 m 0
 335 61 371 90 406 139 c 1
 406 397 l 1
 373 439 336 466 284 466 c 0
 205 466 156 400 156 263 c 0
 156 124 200 61 276 61 c 0
EndSplineSet
EndChar

StartChar: uni0110
Encoding: 272 272 203
Width: 656
Flags: W
LayerCount: 2
Fore
SplineSet
256 689 m 2
 432 689 601 634 601 348 c 0
 601 67 426 0 277 0 c 2
 112 0 l 1
 112 318 l 1
 20 318 l 1
 20 388 l 1
 112 388 l 1
 112 689 l 1
 256 689 l 2
284 75 m 2
 392 75 500 121 500 348 c 0
 500 581 387 613 277 613 c 2
 207 613 l 1
 207 388 l 1
 364 388 l 1
 364 318 l 1
 207 318 l 1
 207 75 l 1
 284 75 l 2
EndSplineSet
EndChar

StartChar: uni0111
Encoding: 273 273 204
Width: 604
Flags: W
LayerCount: 2
Fore
SplineSet
498 676 m 1
 582 676 l 1
 582 606 l 1
 498 606 l 1
 498 0 l 1
 417 0 l 1
 408 73 l 1
 374 20 321 -12 256 -12 c 0
 128 -12 57 97 57 261 c 0
 57 422 135 539 264 539 c 0
 326 539 371 511 406 474 c 1
 406 606 l 1
 253 606 l 1
 253 676 l 1
 406 676 l 1
 406 750 l 1
 498 739 l 1
 498 676 l 1
276 61 m 0
 335 61 371 90 406 139 c 1
 406 397 l 1
 373 439 336 466 284 466 c 0
 205 466 156 400 156 263 c 0
 156 124 200 61 276 61 c 0
EndSplineSet
EndChar

StartChar: uni0112
Encoding: 274 274 205
Width: 535
Flags: W
LayerCount: 2
Fore
SplineSet
426 793 m 1
 153 793 l 1
 153 862 l 1
 426 862 l 1
 426 793 l 1
473 689 m 1
 462 613 l 1
 195 613 l 1
 195 388 l 1
 427 388 l 1
 427 312 l 1
 195 312 l 1
 195 76 l 1
 481 76 l 1
 481 0 l 1
 100 0 l 1
 100 689 l 1
 473 689 l 1
EndSplineSet
EndChar

StartChar: uni0113
Encoding: 275 275 206
Width: 544
Flags: W
LayerCount: 2
Fore
SplineSet
415 736 m 1
 415 667 l 1
 142 667 l 1
 142 736 l 1
 415 736 l 1
493 279 m 0
 493 261 492 244 491 232 c 1
 155 232 l 1
 164 110 221 63 297 63 c 0
 349 63 388 77 434 109 c 1
 474 54 l 1
 422 13 363 -12 290 -12 c 0
 143 -12 57 91 57 258 c 0
 57 422 140 539 276 539 c 0
 418 539 493 440 493 279 c 0
402 300 m 1
 402 306 l 2
 402 409 361 466 278 466 c 0
 208 466 162 417 155 300 c 1
 402 300 l 1
EndSplineSet
EndChar

StartChar: uni0116
Encoding: 278 278 207
Width: 535
Flags: W
LayerCount: 2
Fore
SplineSet
289 906 m 0
 328 906 354 879 354 843 c 0
 354 808 328 781 289 781 c 0
 251 781 225 808 225 843 c 0
 225 879 251 906 289 906 c 0
473 689 m 1
 462 613 l 1
 195 613 l 1
 195 388 l 1
 427 388 l 1
 427 312 l 1
 195 312 l 1
 195 76 l 1
 481 76 l 1
 481 0 l 1
 100 0 l 1
 100 689 l 1
 473 689 l 1
EndSplineSet
EndChar

StartChar: uni0117
Encoding: 279 279 208
Width: 544
Flags: W
LayerCount: 2
Fore
SplineSet
278 655 m 0
 240 655 214 682 214 717 c 0
 214 753 240 780 278 780 c 0
 317 780 343 753 343 717 c 0
 343 682 317 655 278 655 c 0
493 279 m 0
 493 261 492 244 491 232 c 1
 155 232 l 1
 164 110 221 63 297 63 c 0
 349 63 388 77 434 109 c 1
 474 54 l 1
 422 13 363 -12 290 -12 c 0
 143 -12 57 91 57 258 c 0
 57 422 140 539 276 539 c 0
 418 539 493 440 493 279 c 0
402 300 m 1
 402 306 l 2
 402 409 361 466 278 466 c 0
 208 466 162 417 155 300 c 1
 402 300 l 1
EndSplineSet
EndChar

StartChar: uni0118
Encoding: 280 280 209
Width: 535
Flags: W
LayerCount: 2
Fore
SplineSet
195 76 m 1
 481 76 l 1
 481 0 l 1
 441 0 l 1
 339 -44 318 -78 318 -114 c 0
 318 -144 333 -162 374 -162 c 0
 395 -162 411 -160 435 -155 c 1
 426 -225 l 1
 406 -229 389 -232 363 -232 c 0
 286 -232 238 -189 238 -131 c 0
 238 -76 271 -34 339 0 c 1
 100 0 l 1
 100 689 l 1
 473 689 l 1
 462 613 l 1
 195 613 l 1
 195 388 l 1
 427 388 l 1
 427 312 l 1
 195 312 l 1
 195 76 l 1
EndSplineSet
EndChar

StartChar: uni0119
Encoding: 281 281 210
Width: 544
Flags: W
LayerCount: 2
Fore
SplineSet
493 279 m 0
 493 261 492 244 491 232 c 1
 155 232 l 1
 164 110 221 63 297 63 c 0
 349 63 388 77 434 109 c 1
 474 54 l 1
 445 31 415 14 381 2 c 0
 286 -40 266 -73 266 -108 c 0
 266 -138 281 -156 322 -156 c 0
 343 -156 359 -154 383 -149 c 1
 374 -219 l 1
 354 -223 337 -226 311 -226 c 0
 234 -226 186 -183 186 -125 c 0
 186 -78 214 -39 269 -11 c 1
 135 -2 57 99 57 258 c 0
 57 422 140 539 276 539 c 0
 418 539 493 440 493 279 c 0
402 300 m 1
 402 306 l 2
 402 409 361 466 278 466 c 0
 208 466 162 417 155 300 c 1
 402 300 l 1
EndSplineSet
EndChar

StartChar: uni011A
Encoding: 282 282 211
Width: 535
Flags: W
LayerCount: 2
Fore
SplineSet
417 909 m 1
 456 864 l 1
 321 754 l 1
 260 754 l 1
 124 864 l 1
 164 909 l 1
 290 828 l 1
 417 909 l 1
473 689 m 1
 462 613 l 1
 195 613 l 1
 195 388 l 1
 427 388 l 1
 427 312 l 1
 195 312 l 1
 195 76 l 1
 481 76 l 1
 481 0 l 1
 100 0 l 1
 100 689 l 1
 473 689 l 1
EndSplineSet
EndChar

StartChar: uni011B
Encoding: 283 283 212
Width: 544
Flags: W
LayerCount: 2
Fore
SplineSet
310 627 m 1
 249 627 l 1
 113 740 l 1
 153 785 l 1
 279 701 l 1
 406 785 l 1
 445 740 l 1
 310 627 l 1
493 279 m 0
 493 261 492 244 491 232 c 1
 155 232 l 1
 164 110 221 63 297 63 c 0
 349 63 388 77 434 109 c 1
 474 54 l 1
 422 13 363 -12 290 -12 c 0
 143 -12 57 91 57 258 c 0
 57 422 140 539 276 539 c 0
 418 539 493 440 493 279 c 0
402 300 m 1
 402 306 l 2
 402 409 361 466 278 466 c 0
 208 466 162 417 155 300 c 1
 402 300 l 1
EndSplineSet
EndChar

StartChar: uni011E
Encoding: 286 286 213
Width: 631
Flags: W
LayerCount: 2
Fore
SplineSet
353 758 m 0
 273 758 211 807 203 881 c 1
 264 894 l 1
 278 854 306 828 353 828 c 0
 400 828 431 854 445 894 c 1
 506 881 l 1
 498 807 434 758 353 758 c 0
354 701 m 0
 445 701 502 674 561 625 c 1
 505 567 l 1
 457 606 416 623 354 623 c 0
 255 623 156 548 156 345 c 0
 156 147 223 66 344 66 c 0
 390 66 436 75 475 97 c 1
 475 305 l 1
 353 305 l 1
 342 382 l 1
 569 382 l 1
 569 49 l 1
 504 12 432 -12 344 -12 c 0
 166 -12 55 107 55 345 c 0
 55 577 195 701 354 701 c 0
EndSplineSet
EndChar

StartChar: uni011F
Encoding: 287 287 214
Width: 520
Flags: W
LayerCount: 2
Fore
SplineSet
258 643 m 0
 178 643 116 692 108 776 c 1
 169 789 l 1
 183 739 211 713 258 713 c 0
 305 713 336 739 350 789 c 1
 411 776 l 1
 403 692 339 643 258 643 c 0
493 586 m 1
 520 503 l 1
 476 489 426 487 366 487 c 1
 428 459 459 415 459 354 c 0
 459 250 384 175 258 175 c 0
 234 175 213 178 191 185 c 1
 176 174 165 155 165 136 c 0
 165 112 180 93 234 93 c 2
 318 93 l 2
 426 93 498 31 498 -53 c 0
 498 -155 414 -213 251 -213 c 0
 79 -213 25 -160 25 -53 c 1
 108 -53 l 1
 108 -113 135 -141 251 -141 c 0
 365 -141 405 -112 405 -59 c 0
 405 -9 365 16 299 16 c 2
 216 16 l 2
 122 16 80 63 80 116 c 0
 80 150 100 184 138 209 c 1
 77 241 49 287 49 355 c 0
 49 463 136 539 252 539 c 0
 383 536 431 558 493 586 c 1
252 473 m 0
 181 473 143 424 143 355 c 0
 143 285 182 236 254 236 c 0
 326 236 365 280 365 356 c 0
 365 433 327 473 252 473 c 0
EndSplineSet
EndChar

StartChar: uni0122
Encoding: 290 290 215
Width: 631
Flags: W
LayerCount: 2
Fore
SplineSet
354 701 m 0
 445 701 502 674 561 625 c 1
 505 567 l 1
 457 606 416 623 354 623 c 0
 255 623 156 548 156 345 c 0
 156 147 223 66 344 66 c 0
 390 66 436 75 475 97 c 1
 475 305 l 1
 353 305 l 1
 342 382 l 1
 569 382 l 1
 569 49 l 1
 504 12 432 -12 344 -12 c 0
 166 -12 55 107 55 345 c 0
 55 577 195 701 354 701 c 0
346 -77 m 0
 378 -77 403 -101 403 -133 c 0
 403 -150 398 -166 377 -210 c 2
 336 -296 l 1
 283 -296 l 1
 312 -180 l 1
 298 -168 288 -152 288 -133 c 0
 288 -101 314 -77 346 -77 c 0
EndSplineSet
EndChar

StartChar: uni0123
Encoding: 291 291 216
Width: 520
Flags: W
LayerCount: 2
Fore
SplineSet
261 583 m 0
 229 583 204 607 204 639 c 0
 204 656 209 672 230 716 c 2
 271 802 l 1
 324 802 l 1
 295 686 l 1
 309 674 319 658 319 639 c 0
 319 607 293 583 261 583 c 0
493 586 m 1
 520 503 l 1
 476 489 426 487 366 487 c 1
 428 459 459 415 459 354 c 0
 459 250 384 175 258 175 c 0
 234 175 213 178 191 185 c 1
 176 174 165 155 165 136 c 0
 165 112 180 93 234 93 c 2
 318 93 l 2
 426 93 498 31 498 -53 c 0
 498 -155 414 -213 251 -213 c 0
 79 -213 25 -160 25 -53 c 1
 108 -53 l 1
 108 -113 135 -141 251 -141 c 0
 365 -141 405 -112 405 -59 c 0
 405 -9 365 16 299 16 c 2
 216 16 l 2
 122 16 80 63 80 116 c 0
 80 150 100 184 138 209 c 1
 77 241 49 287 49 355 c 0
 49 463 136 539 252 539 c 0
 383 536 431 558 493 586 c 1
252 473 m 0
 181 473 143 424 143 355 c 0
 143 285 182 236 254 236 c 0
 326 236 365 280 365 356 c 0
 365 433 327 473 252 473 c 0
EndSplineSet
EndChar

StartChar: uni012A
Encoding: 298 298 217
Width: 295
Flags: W
LayerCount: 2
Fore
SplineSet
283 793 m 1
 10 793 l 1
 10 862 l 1
 283 862 l 1
 283 793 l 1
195 689 m 1
 195 0 l 1
 100 0 l 1
 100 689 l 1
 195 689 l 1
EndSplineSet
EndChar

StartChar: uni012B
Encoding: 299 299 218
Width: 276
Flags: W
LayerCount: 2
Fore
SplineSet
274 667 m 1
 1 667 l 1
 1 736 l 1
 274 736 l 1
 274 667 l 1
184 527 m 1
 184 0 l 1
 92 0 l 1
 92 527 l 1
 184 527 l 1
EndSplineSet
EndChar

StartChar: uni012E
Encoding: 302 302 219
Width: 295
Flags: W
LayerCount: 2
Fore
SplineSet
195 0 m 1
 93 -44 72 -78 72 -114 c 0
 72 -144 87 -162 128 -162 c 0
 149 -162 165 -160 189 -155 c 1
 180 -225 l 1
 160 -229 143 -232 117 -232 c 0
 40 -232 -8 -189 -8 -131 c 0
 -8 -75 27 -31 100 3 c 1
 100 689 l 1
 195 689 l 1
 195 0 l 1
EndSplineSet
EndChar

StartChar: uni012F
Encoding: 303 303 220
Width: 276
Flags: W
LayerCount: 2
Fore
SplineSet
137 780 m 0
 176 780 202 753 202 717 c 0
 202 682 176 655 137 655 c 0
 99 655 73 682 73 717 c 0
 73 753 99 780 137 780 c 0
92 5 m 1
 92 527 l 1
 184 527 l 1
 184 0 l 1
 82 -44 61 -78 61 -114 c 0
 61 -144 76 -162 117 -162 c 0
 138 -162 154 -160 178 -155 c 1
 169 -225 l 1
 149 -229 132 -232 106 -232 c 0
 29 -232 -19 -189 -19 -131 c 0
 -19 -74 17 -30 92 5 c 1
EndSplineSet
EndChar

StartChar: uni0130
Encoding: 304 304 221
Width: 295
Flags: W
LayerCount: 2
Fore
SplineSet
146 906 m 0
 185 906 211 879 211 843 c 0
 211 808 185 781 146 781 c 0
 108 781 82 808 82 843 c 0
 82 879 108 906 146 906 c 0
195 689 m 1
 195 0 l 1
 100 0 l 1
 100 689 l 1
 195 689 l 1
EndSplineSet
EndChar

StartChar: uni0131
Encoding: 305 305 222
Width: 282
Flags: W
TopAccentHorizontal: 141
LayerCount: 2
Fore
SplineSet
187 527 m 1
 187 0 l 1
 95 0 l 1
 95 527 l 1
 187 527 l 1
EndSplineSet
EndChar

StartChar: uni0136
Encoding: 310 310 223
Width: 589
Flags: W
LayerCount: 2
Fore
SplineSet
195 689 m 1
 195 0 l 1
 100 0 l 1
 100 689 l 1
 195 689 l 1
570 689 m 1
 309 374 l 1
 589 0 l 1
 472 0 l 1
 200 368 l 1
 462 689 l 1
 570 689 l 1
318 -77 m 0
 350 -77 375 -101 375 -133 c 0
 375 -150 370 -166 349 -210 c 2
 308 -296 l 1
 255 -296 l 1
 284 -180 l 1
 270 -168 260 -152 260 -133 c 0
 260 -101 286 -77 318 -77 c 0
EndSplineSet
EndChar

StartChar: uni0137
Encoding: 311 311 224
Width: 509
Flags: W
LayerCount: 2
Fore
SplineSet
184 750 m 1
 184 0 l 1
 92 0 l 1
 92 739 l 1
 184 750 l 1
487 527 m 1
 293 294 l 1
 509 0 l 1
 399 0 l 1
 190 288 l 1
 384 527 l 1
 487 527 l 1
255 -77 m 0
 287 -77 312 -101 312 -133 c 0
 312 -150 307 -166 286 -210 c 2
 245 -296 l 1
 192 -296 l 1
 221 -180 l 1
 207 -168 197 -152 197 -133 c 0
 197 -101 223 -77 255 -77 c 0
EndSplineSet
EndChar

StartChar: uni0139
Encoding: 313 313 225
Width: 498
Flags: W
LayerCount: 2
Fore
SplineSet
228 911 m 1
 268 834 l 1
 52 755 l 1
 28 804 l 1
 228 911 l 1
195 689 m 1
 195 83 l 1
 478 83 l 1
 467 0 l 1
 100 0 l 1
 100 689 l 1
 195 689 l 1
EndSplineSet
EndChar

StartChar: uni013A
Encoding: 314 314 226
Width: 294
Flags: W
LayerCount: 2
Fore
SplineSet
212 961 m 1
 252 884 l 1
 36 805 l 1
 12 854 l 1
 212 961 l 1
196 -12 m 0
 129 -12 86 29 86 104 c 2
 86 739 l 1
 178 750 l 1
 178 106 l 2
 178 78 187 64 211 64 c 0
 224 64 235 66 245 70 c 1
 269 6 l 1
 249 -5 223 -12 196 -12 c 0
EndSplineSet
EndChar

StartChar: uni013B
Encoding: 315 315 227
Width: 498
Flags: W
LayerCount: 2
Fore
SplineSet
195 689 m 1
 195 83 l 1
 478 83 l 1
 467 0 l 1
 100 0 l 1
 100 689 l 1
 195 689 l 1
287 -77 m 0
 319 -77 344 -101 344 -133 c 0
 344 -150 339 -166 318 -210 c 2
 277 -296 l 1
 224 -296 l 1
 253 -180 l 1
 239 -168 229 -152 229 -133 c 0
 229 -101 255 -77 287 -77 c 0
EndSplineSet
EndChar

StartChar: uni013C
Encoding: 316 316 228
Width: 294
Flags: W
LayerCount: 2
Fore
SplineSet
196 -12 m 0
 129 -12 86 29 86 104 c 2
 86 739 l 1
 178 750 l 1
 178 106 l 2
 178 78 187 64 211 64 c 0
 224 64 235 66 245 70 c 1
 269 6 l 1
 249 -5 223 -12 196 -12 c 0
177 -77 m 0
 209 -77 234 -101 234 -133 c 0
 234 -150 229 -166 208 -210 c 2
 167 -296 l 1
 114 -296 l 1
 143 -180 l 1
 129 -168 119 -152 119 -133 c 0
 119 -101 145 -77 177 -77 c 0
EndSplineSet
EndChar

StartChar: uni013D
Encoding: 317 317 229
Width: 498
Flags: W
LayerCount: 2
Fore
SplineSet
303 505 m 1
 353 689 l 1
 270 699 l 1
 250 513 l 1
 303 505 l 1
195 689 m 1
 195 83 l 1
 478 83 l 1
 467 0 l 1
 100 0 l 1
 100 689 l 1
 195 689 l 1
EndSplineSet
EndChar

StartChar: uni013E
Encoding: 318 318 230
Width: 294
Flags: W
LayerCount: 2
Fore
SplineSet
196 -12 m 0
 129 -12 86 29 86 104 c 2
 86 739 l 1
 178 750 l 1
 178 106 l 2
 178 78 187 64 211 64 c 0
 224 64 235 66 245 70 c 1
 269 6 l 1
 249 -5 223 -12 196 -12 c 0
277 555 m 1
 327 739 l 1
 244 749 l 1
 224 563 l 1
 277 555 l 1
EndSplineSet
EndChar

StartChar: uni0141
Encoding: 321 321 231
Width: 514
Flags: W
LayerCount: 2
Fore
SplineSet
211 83 m 1
 494 83 l 1
 483 0 l 1
 116 0 l 1
 116 257 l 1
 60 222 l 1
 22 282 l 1
 116 340 l 1
 116 689 l 1
 211 689 l 1
 211 399 l 1
 371 498 l 1
 409 438 l 1
 211 316 l 1
 211 83 l 1
EndSplineSet
EndChar

StartChar: uni0142
Encoding: 322 322 232
Width: 312
Flags: W
LayerCount: 2
Fore
SplineSet
217 64 m 0
 230 64 241 66 251 70 c 1
 275 6 l 1
 255 -5 229 -12 202 -12 c 0
 135 -12 92 29 92 104 c 2
 92 298 l 1
 45 269 l 1
 10 328 l 1
 92 379 l 1
 92 739 l 1
 184 750 l 1
 184 435 l 1
 279 492 l 1
 312 432 l 1
 184 354 l 1
 184 106 l 2
 184 78 193 64 217 64 c 0
EndSplineSet
EndChar

StartChar: uni0143
Encoding: 323 323 233
Width: 683
Flags: W
LayerCount: 2
Fore
SplineSet
433 911 m 1
 473 834 l 1
 257 755 l 1
 233 804 l 1
 433 911 l 1
583 689 m 1
 583 0 l 1
 456 0 l 1
 176 585 l 1
 181 528 189 444 189 316 c 2
 189 0 l 1
 100 0 l 1
 100 689 l 1
 224 689 l 1
 507 103 l 1
 505 119 494 229 494 313 c 2
 494 689 l 1
 583 689 l 1
EndSplineSet
EndChar

StartChar: uni0144
Encoding: 324 324 234
Width: 579
Flags: W
LayerCount: 2
Fore
SplineSet
415 724 m 1
 203 638 l 1
 175 687 l 1
 374 801 l 1
 415 724 l 1
340 539 m 0
 437 539 493 478 493 378 c 2
 493 0 l 1
 401 0 l 1
 401 365 l 2
 401 444 369 467 318 467 c 0
 259 467 219 430 184 374 c 1
 184 0 l 1
 92 0 l 1
 92 527 l 1
 171 527 l 1
 179 449 l 1
 215 503 271 539 340 539 c 0
EndSplineSet
EndChar

StartChar: uni0145
Encoding: 325 325 235
Width: 683
Flags: W
LayerCount: 2
Fore
SplineSet
583 689 m 1
 583 0 l 1
 456 0 l 1
 176 585 l 1
 181 528 189 444 189 316 c 2
 189 0 l 1
 100 0 l 1
 100 689 l 1
 224 689 l 1
 507 103 l 1
 505 119 494 229 494 313 c 2
 494 689 l 1
 583 689 l 1
346 -77 m 0
 378 -77 403 -101 403 -133 c 0
 403 -150 398 -166 377 -210 c 2
 336 -296 l 1
 283 -296 l 1
 312 -180 l 1
 298 -168 288 -152 288 -133 c 0
 288 -101 314 -77 346 -77 c 0
EndSplineSet
EndChar

StartChar: uni0146
Encoding: 326 326 236
Width: 579
Flags: W
LayerCount: 2
Fore
SplineSet
340 539 m 0
 437 539 493 478 493 378 c 2
 493 0 l 1
 401 0 l 1
 401 365 l 2
 401 444 369 467 318 467 c 0
 259 467 219 430 184 374 c 1
 184 0 l 1
 92 0 l 1
 92 527 l 1
 171 527 l 1
 179 449 l 1
 215 503 271 539 340 539 c 0
293 -77 m 0
 325 -77 350 -101 350 -133 c 0
 350 -150 345 -166 324 -210 c 2
 283 -296 l 1
 230 -296 l 1
 259 -180 l 1
 245 -168 235 -152 235 -133 c 0
 235 -101 261 -77 293 -77 c 0
EndSplineSet
EndChar

StartChar: uni0147
Encoding: 327 327 237
Width: 683
Flags: W
LayerCount: 2
Fore
SplineSet
480 909 m 1
 519 864 l 1
 384 754 l 1
 323 754 l 1
 187 864 l 1
 227 909 l 1
 353 828 l 1
 480 909 l 1
583 689 m 1
 583 0 l 1
 456 0 l 1
 176 585 l 1
 181 528 189 444 189 316 c 2
 189 0 l 1
 100 0 l 1
 100 689 l 1
 224 689 l 1
 507 103 l 1
 505 119 494 229 494 313 c 2
 494 689 l 1
 583 689 l 1
EndSplineSet
EndChar

StartChar: uni0148
Encoding: 328 328 238
Width: 579
Flags: W
LayerCount: 2
Fore
SplineSet
326 627 m 1
 265 627 l 1
 129 740 l 1
 169 785 l 1
 295 701 l 1
 422 785 l 1
 461 740 l 1
 326 627 l 1
340 539 m 0
 437 539 493 478 493 378 c 2
 493 0 l 1
 401 0 l 1
 401 365 l 2
 401 444 369 467 318 467 c 0
 259 467 219 430 184 374 c 1
 184 0 l 1
 92 0 l 1
 92 527 l 1
 171 527 l 1
 179 449 l 1
 215 503 271 539 340 539 c 0
EndSplineSet
EndChar

StartChar: uni014C
Encoding: 332 332 239
Width: 692
Flags: W
LayerCount: 2
Fore
SplineSet
482 793 m 1
 209 793 l 1
 209 862 l 1
 482 862 l 1
 482 793 l 1
346 701 m 0
 519 701 637 576 637 344 c 0
 637 116 519 -12 346 -12 c 0
 174 -12 55 112 55 343 c 0
 55 570 174 701 346 701 c 0
346 623 m 0
 231 623 156 542 156 343 c 0
 156 144 234 66 346 66 c 0
 462 66 536 144 536 344 c 0
 536 542 464 623 346 623 c 0
EndSplineSet
EndChar

StartChar: uni014D
Encoding: 333 333 240
Width: 584
Flags: W
LayerCount: 2
Fore
SplineSet
428 667 m 1
 155 667 l 1
 155 736 l 1
 428 736 l 1
 428 667 l 1
293 539 m 0
 443 539 527 431 527 264 c 0
 527 101 441 -12 292 -12 c 0
 142 -12 57 96 57 263 c 0
 57 426 143 539 293 539 c 0
293 465 m 0
 205 465 156 401 156 263 c 0
 156 126 204 62 292 62 c 0
 380 62 428 126 428 264 c 0
 428 401 380 465 293 465 c 0
EndSplineSet
EndChar

StartChar: uni0150
Encoding: 336 336 241
Width: 692
Flags: W
LayerCount: 2
Fore
SplineSet
337 923 m 1
 401 878 l 1
 278 733 l 1
 233 761 l 1
 337 923 l 1
489 915 m 1
 551 866 l 1
 420 728 l 1
 377 759 l 1
 489 915 l 1
346 701 m 0
 519 701 637 576 637 344 c 0
 637 116 519 -12 346 -12 c 0
 174 -12 55 112 55 343 c 0
 55 570 174 701 346 701 c 0
346 623 m 0
 231 623 156 542 156 343 c 0
 156 144 234 66 346 66 c 0
 462 66 536 144 536 344 c 0
 536 542 464 623 346 623 c 0
EndSplineSet
EndChar

StartChar: uni0151
Encoding: 337 337 242
Width: 584
Flags: W
LayerCount: 2
Fore
SplineSet
302 797 m 1
 366 752 l 1
 243 597 l 1
 198 625 l 1
 302 797 l 1
454 789 m 1
 516 740 l 1
 385 592 l 1
 342 623 l 1
 454 789 l 1
293 539 m 0
 443 539 527 431 527 264 c 0
 527 101 441 -12 292 -12 c 0
 142 -12 57 96 57 263 c 0
 57 426 143 539 293 539 c 0
293 465 m 0
 205 465 156 401 156 263 c 0
 156 126 204 62 292 62 c 0
 380 62 428 126 428 264 c 0
 428 401 380 465 293 465 c 0
EndSplineSet
EndChar

StartChar: uni0152
Encoding: 338 338 243
Width: 897
Flags: W
LayerCount: 2
Fore
SplineSet
843 76 m 1
 843 0 l 1
 406 0 l 1
 383 -8 358 -12 333 -12 c 0
 174 -12 55 112 55 343 c 0
 55 570 174 701 333 701 c 0
 360 701 385 697 410 689 c 1
 835 689 l 1
 824 613 l 1
 526 613 l 1
 577 562 608 484 615 388 c 1
 789 388 l 1
 789 312 l 1
 616 312 l 1
 610 214 577 131 519 76 c 1
 843 76 l 1
156 343 m 0
 156 144 234 66 336 66 c 0
 442 66 516 144 516 344 c 0
 516 542 444 623 336 623 c 0
 231 623 156 542 156 343 c 0
EndSplineSet
EndChar

StartChar: uni0153
Encoding: 339 339 244
Width: 915
Flags: W
LayerCount: 2
Fore
SplineSet
864 279 m 0
 864 261 863 244 862 232 c 1
 526 232 l 1
 535 110 592 63 668 63 c 0
 720 63 759 77 805 109 c 1
 845 54 l 1
 793 13 734 -12 661 -12 c 0
 573 -12 514 28 476 97 c 1
 438 30 379 -12 292 -12 c 0
 142 -12 57 96 57 263 c 0
 57 426 143 539 293 539 c 0
 382 539 441 500 478 433 c 1
 515 499 571 539 652 539 c 0
 789 539 864 440 864 279 c 0
773 300 m 1
 773 306 l 2
 773 409 732 466 654 466 c 0
 579 466 533 417 526 300 c 1
 773 300 l 1
292 62 m 0
 380 62 428 126 428 264 c 0
 428 401 380 465 293 465 c 0
 205 465 156 401 156 263 c 0
 156 126 204 62 292 62 c 0
EndSplineSet
EndChar

StartChar: uni0154
Encoding: 340 340 245
Width: 605
Flags: W
LayerCount: 2
Fore
SplineSet
419 834 m 1
 203 755 l 1
 179 804 l 1
 379 911 l 1
 419 834 l 1
467 0 m 1
 302 292 l 1
 195 292 l 1
 195 0 l 1
 100 0 l 1
 100 689 l 1
 281 689 l 2
 453 689 543 623 543 494 c 0
 543 397 493 339 394 309 c 1
 580 0 l 1
 467 0 l 1
195 365 m 1
 291 365 l 2
 387 365 442 401 442 494 c 0
 442 580 393 615 280 615 c 2
 195 615 l 1
 195 365 l 1
EndSplineSet
EndChar

StartChar: uni0155
Encoding: 341 341 246
Width: 383
Flags: W
LayerCount: 2
Fore
SplineSet
355 724 m 1
 143 638 l 1
 115 687 l 1
 314 801 l 1
 355 724 l 1
321 539 m 0
 338 539 357 537 373 533 c 1
 356 443 l 1
 340 447 329 449 310 449 c 0
 244 449 206 402 184 301 c 1
 184 0 l 1
 92 0 l 1
 92 527 l 1
 171 527 l 1
 180 420 l 1
 208 499 257 539 321 539 c 0
EndSplineSet
EndChar

StartChar: uni0156
Encoding: 342 342 247
Width: 605
Flags: W
LayerCount: 2
Fore
SplineSet
394 309 m 1
 580 0 l 1
 467 0 l 1
 302 292 l 1
 195 292 l 1
 195 0 l 1
 100 0 l 1
 100 689 l 1
 281 689 l 2
 453 689 543 623 543 494 c 0
 543 397 493 339 394 309 c 1
195 365 m 1
 291 365 l 2
 387 365 442 401 442 494 c 0
 442 580 393 615 280 615 c 2
 195 615 l 1
 195 365 l 1
312 -77 m 0
 344 -77 369 -101 369 -133 c 0
 369 -150 364 -166 343 -210 c 2
 302 -296 l 1
 249 -296 l 1
 278 -180 l 1
 264 -168 254 -152 254 -133 c 0
 254 -101 280 -77 312 -77 c 0
EndSplineSet
EndChar

StartChar: uni0157
Encoding: 343 343 248
Width: 383
Flags: W
LayerCount: 2
Fore
SplineSet
321 539 m 0
 338 539 357 537 373 533 c 1
 356 443 l 1
 340 447 329 449 310 449 c 0
 244 449 206 402 184 301 c 1
 184 0 l 1
 92 0 l 1
 92 527 l 1
 171 527 l 1
 180 420 l 1
 208 499 257 539 321 539 c 0
141 -77 m 0
 173 -77 198 -101 198 -133 c 0
 198 -150 193 -166 172 -210 c 2
 131 -296 l 1
 78 -296 l 1
 107 -180 l 1
 93 -168 83 -152 83 -133 c 0
 83 -101 109 -77 141 -77 c 0
EndSplineSet
EndChar

StartChar: uni0158
Encoding: 344 344 249
Width: 605
Flags: W
LayerCount: 2
Fore
SplineSet
330 754 m 1
 269 754 l 1
 133 864 l 1
 173 909 l 1
 299 828 l 1
 426 909 l 1
 465 864 l 1
 330 754 l 1
467 0 m 1
 302 292 l 1
 195 292 l 1
 195 0 l 1
 100 0 l 1
 100 689 l 1
 281 689 l 2
 453 689 543 623 543 494 c 0
 543 397 493 339 394 309 c 1
 580 0 l 1
 467 0 l 1
195 365 m 1
 291 365 l 2
 387 365 442 401 442 494 c 0
 442 580 393 615 280 615 c 2
 195 615 l 1
 195 365 l 1
EndSplineSet
EndChar

StartChar: uni0159
Encoding: 345 345 250
Width: 383
Flags: W
LayerCount: 2
Fore
SplineSet
266 627 m 1
 205 627 l 1
 69 740 l 1
 109 785 l 1
 235 701 l 1
 362 785 l 1
 401 740 l 1
 266 627 l 1
180 420 m 1
 208 499 257 539 321 539 c 0
 338 539 357 537 373 533 c 1
 356 443 l 1
 340 447 329 449 310 449 c 0
 244 449 206 402 184 301 c 1
 184 0 l 1
 92 0 l 1
 92 527 l 1
 171 527 l 1
 180 420 l 1
EndSplineSet
EndChar

StartChar: uni015A
Encoding: 346 346 251
Width: 545
Flags: W
LayerCount: 2
Fore
SplineSet
356 911 m 1
 396 834 l 1
 180 755 l 1
 156 804 l 1
 356 911 l 1
270 701 m 0
 365 701 425 673 483 621 c 1
 431 563 l 1
 379 605 331 623 274 623 c 0
 205 623 150 591 150 525 c 0
 150 467 177 439 301 401 c 0
 411 367 505 324 505 192 c 0
 505 72 414 -12 259 -12 c 0
 160 -12 82 21 25 77 c 1
 77 135 l 1
 129 93 183 66 258 66 c 0
 339 66 406 106 406 189 c 0
 406 256 374 286 257 322 c 0
 123 363 53 414 53 521 c 0
 53 627 143 701 270 701 c 0
EndSplineSet
EndChar

StartChar: uni015B
Encoding: 347 347 252
Width: 467
Flags: W
LayerCount: 2
Fore
SplineSet
324 801 m 1
 365 724 l 1
 153 638 l 1
 125 687 l 1
 324 801 l 1
238 539 m 0
 312 539 367 517 417 479 c 1
 378 421 l 1
 331 451 290 466 241 466 c 0
 181 466 144 439 144 397 c 0
 144 354 172 334 257 312 c 0
 368 284 432 240 432 148 c 0
 432 38 331 -12 224 -12 c 0
 135 -12 71 17 25 57 c 1
 74 113 l 1
 116 81 165 62 222 62 c 0
 291 62 335 92 335 142 c 0
 335 194 309 214 207 241 c 0
 93 271 48 320 48 394 c 0
 48 478 129 539 238 539 c 0
EndSplineSet
EndChar

StartChar: uni015E
Encoding: 350 350 253
Width: 545
Flags: W
LayerCount: 2
Fore
SplineSet
505 192 m 0
 505 82 429 2 297 -10 c 1
 297 -56 l 1
 365 -62 390 -100 390 -141 c 0
 390 -207 334 -241 266 -241 c 0
 228 -241 195 -232 175 -217 c 1
 200 -165 l 1
 219 -175 237 -181 263 -181 c 0
 291 -181 313 -170 313 -141 c 0
 313 -114 288 -99 224 -99 c 1
 235 -11 l 1
 147 -6 77 26 25 77 c 1
 77 135 l 1
 129 93 183 66 258 66 c 0
 339 66 406 106 406 189 c 0
 406 256 374 286 257 322 c 0
 123 363 53 414 53 521 c 0
 53 627 143 701 270 701 c 0
 365 701 425 673 483 621 c 1
 431 563 l 1
 379 605 331 623 274 623 c 0
 205 623 150 591 150 525 c 0
 150 467 177 439 301 401 c 0
 411 367 505 324 505 192 c 0
EndSplineSet
EndChar

StartChar: uni015F
Encoding: 351 351 254
Width: 467
Flags: W
LayerCount: 2
Fore
SplineSet
432 148 m 0
 432 50 352 0 259 -10 c 1
 259 -56 l 1
 327 -62 352 -100 352 -141 c 0
 352 -207 296 -241 228 -241 c 0
 190 -241 157 -232 137 -217 c 1
 162 -165 l 1
 181 -175 199 -181 225 -181 c 0
 253 -181 275 -170 275 -141 c 0
 275 -114 250 -99 186 -99 c 1
 197 -11 l 1
 122 -6 66 21 25 57 c 1
 74 113 l 1
 116 81 165 62 222 62 c 0
 291 62 335 92 335 142 c 0
 335 194 309 214 207 241 c 0
 93 271 48 320 48 394 c 0
 48 478 129 539 238 539 c 0
 312 539 367 517 417 479 c 1
 378 421 l 1
 331 451 290 466 241 466 c 0
 181 466 144 439 144 397 c 0
 144 354 172 334 257 312 c 0
 368 284 432 240 432 148 c 0
EndSplineSet
EndChar

StartChar: uni0160
Encoding: 352 352 255
Width: 545
Flags: W
LayerCount: 2
Fore
SplineSet
403 909 m 1
 442 864 l 1
 307 754 l 1
 246 754 l 1
 110 864 l 1
 150 909 l 1
 276 828 l 1
 403 909 l 1
270 701 m 0
 365 701 425 673 483 621 c 1
 431 563 l 1
 379 605 331 623 274 623 c 0
 205 623 150 591 150 525 c 0
 150 467 177 439 301 401 c 0
 411 367 505 324 505 192 c 0
 505 72 414 -12 259 -12 c 0
 160 -12 82 21 25 77 c 1
 77 135 l 1
 129 93 183 66 258 66 c 0
 339 66 406 106 406 189 c 0
 406 256 374 286 257 322 c 0
 123 363 53 414 53 521 c 0
 53 627 143 701 270 701 c 0
EndSplineSet
EndChar

StartChar: uni0161
Encoding: 353 353 256
Width: 467
Flags: W
LayerCount: 2
Fore
SplineSet
372 785 m 1
 411 740 l 1
 276 627 l 1
 215 627 l 1
 79 740 l 1
 119 785 l 1
 245 701 l 1
 372 785 l 1
238 539 m 0
 312 539 367 517 417 479 c 1
 378 421 l 1
 331 451 290 466 241 466 c 0
 181 466 144 439 144 397 c 0
 144 354 172 334 257 312 c 0
 368 284 432 240 432 148 c 0
 432 38 331 -12 224 -12 c 0
 135 -12 71 17 25 57 c 1
 74 113 l 1
 116 81 165 62 222 62 c 0
 291 62 335 92 335 142 c 0
 335 194 309 214 207 241 c 0
 93 271 48 320 48 394 c 0
 48 478 129 539 238 539 c 0
EndSplineSet
EndChar

StartChar: uni0162
Encoding: 354 354 257
Width: 517
Flags: W
LayerCount: 2
Fore
SplineSet
306 -56 m 1
 374 -62 402 -100 402 -141 c 0
 402 -207 344 -241 274 -241 c 0
 238 -241 207 -232 187 -217 c 1
 212 -165 l 1
 231 -175 247 -181 271 -181 c 0
 301 -181 325 -170 325 -141 c 0
 325 -114 300 -99 236 -99 c 1
 248 0 l 1
 211 0 l 1
 211 608 l 1
 15 608 l 1
 15 689 l 1
 507 689 l 1
 497 608 l 1
 306 608 l 1
 306 -56 l 1
EndSplineSet
EndChar

StartChar: uni0163
Encoding: 355 355 258
Width: 361
Flags: W
LayerCount: 2
Fore
SplineSet
258 -56 m 1
 326 -62 351 -100 351 -141 c 0
 351 -207 295 -241 227 -241 c 0
 189 -241 156 -232 136 -217 c 1
 161 -165 l 1
 180 -175 198 -181 224 -181 c 0
 252 -181 274 -170 274 -141 c 0
 274 -114 249 -99 185 -99 c 1
 196 -6 l 1
 136 9 101 59 101 138 c 2
 101 456 l 1
 9 456 l 1
 9 527 l 1
 101 527 l 1
 101 646 l 1
 193 657 l 1
 193 527 l 1
 318 527 l 1
 308 456 l 1
 193 456 l 1
 193 142 l 2
 193 89 210 64 256 64 c 0
 279 64 300 71 326 85 c 1
 361 24 l 1
 330 3 297 -9 258 -12 c 1
 258 -56 l 1
EndSplineSet
EndChar

StartChar: uni0164
Encoding: 356 356 259
Width: 517
Flags: W
LayerCount: 2
Fore
SplineSet
386 909 m 1
 425 864 l 1
 290 754 l 1
 229 754 l 1
 93 864 l 1
 133 909 l 1
 259 828 l 1
 386 909 l 1
507 689 m 1
 497 608 l 1
 306 608 l 1
 306 0 l 1
 211 0 l 1
 211 608 l 1
 15 608 l 1
 15 689 l 1
 507 689 l 1
EndSplineSet
EndChar

StartChar: uni0165
Encoding: 357 357 260
Width: 361
Flags: W
LayerCount: 2
Fore
SplineSet
327 748 m 1
 277 564 l 1
 224 572 l 1
 244 758 l 1
 327 748 l 1
326 85 m 1
 361 24 l 1
 326 0 288 -12 243 -12 c 0
 154 -12 101 40 101 138 c 2
 101 456 l 1
 9 456 l 1
 9 527 l 1
 101 527 l 1
 101 646 l 1
 193 657 l 1
 193 527 l 1
 318 527 l 1
 308 456 l 1
 193 456 l 1
 193 142 l 2
 193 89 210 64 256 64 c 0
 279 64 300 71 326 85 c 1
EndSplineSet
EndChar

StartChar: uni016A
Encoding: 362 362 261
Width: 662
Flags: W
LayerCount: 2
Fore
SplineSet
467 793 m 1
 194 793 l 1
 194 862 l 1
 467 862 l 1
 467 793 l 1
572 689 m 1
 572 221 l 2
 572 84 485 -12 330 -12 c 0
 173 -12 90 84 90 221 c 2
 90 689 l 1
 185 689 l 1
 185 228 l 2
 185 121 232 68 330 68 c 0
 429 68 476 121 476 228 c 2
 476 689 l 1
 572 689 l 1
EndSplineSet
EndChar

StartChar: uni016B
Encoding: 363 363 262
Width: 575
Flags: W
LayerCount: 2
Fore
SplineSet
421 667 m 1
 148 667 l 1
 148 736 l 1
 421 736 l 1
 421 667 l 1
483 527 m 1
 483 0 l 1
 404 0 l 1
 397 82 l 1
 357 18 308 -12 233 -12 c 0
 141 -12 86 46 86 149 c 2
 86 527 l 1
 178 527 l 1
 178 159 l 2
 178 87 202 60 259 60 c 0
 316 60 359 98 391 151 c 1
 391 527 l 1
 483 527 l 1
EndSplineSet
EndChar

StartChar: uni016E
Encoding: 366 366 263
Width: 662
Flags: W
LayerCount: 2
Fore
SplineSet
331 962 m 0
 398 962 445 915 445 856 c 0
 445 797 398 750 331 750 c 0
 264 750 217 797 217 856 c 0
 217 915 264 962 331 962 c 0
331 912 m 0
 298 912 278 891 278 856 c 0
 278 821 298 800 331 800 c 0
 363 800 384 821 384 856 c 0
 384 891 364 912 331 912 c 0
572 689 m 1
 572 221 l 2
 572 84 485 -12 330 -12 c 0
 173 -12 90 84 90 221 c 2
 90 689 l 1
 185 689 l 1
 185 228 l 2
 185 121 232 68 330 68 c 0
 429 68 476 121 476 228 c 2
 476 689 l 1
 572 689 l 1
EndSplineSet
EndChar

StartChar: uni016F
Encoding: 367 367 264
Width: 575
Flags: W
LayerCount: 2
Fore
SplineSet
285 836 m 0
 352 836 399 789 399 730 c 0
 399 671 352 624 285 624 c 0
 218 624 171 671 171 730 c 0
 171 789 218 836 285 836 c 0
285 786 m 0
 252 786 232 765 232 730 c 0
 232 695 252 674 285 674 c 0
 317 674 338 695 338 730 c 0
 338 765 318 786 285 786 c 0
483 527 m 1
 483 0 l 1
 404 0 l 1
 397 82 l 1
 357 18 308 -12 233 -12 c 0
 141 -12 86 46 86 149 c 2
 86 527 l 1
 178 527 l 1
 178 159 l 2
 178 87 202 60 259 60 c 0
 316 60 359 98 391 151 c 1
 391 527 l 1
 483 527 l 1
EndSplineSet
EndChar

StartChar: uni0170
Encoding: 368 368 265
Width: 662
Flags: W
LayerCount: 2
Fore
SplineSet
322 923 m 1
 386 878 l 1
 263 733 l 1
 218 761 l 1
 322 923 l 1
474 915 m 1
 536 866 l 1
 405 728 l 1
 362 759 l 1
 474 915 l 1
572 689 m 1
 572 221 l 2
 572 84 485 -12 330 -12 c 0
 173 -12 90 84 90 221 c 2
 90 689 l 1
 185 689 l 1
 185 228 l 2
 185 121 232 68 330 68 c 0
 429 68 476 121 476 228 c 2
 476 689 l 1
 572 689 l 1
EndSplineSet
EndChar

StartChar: uni0171
Encoding: 369 369 266
Width: 575
Flags: W
LayerCount: 2
Fore
SplineSet
295 797 m 1
 359 752 l 1
 236 597 l 1
 191 625 l 1
 295 797 l 1
447 789 m 1
 509 740 l 1
 378 592 l 1
 335 623 l 1
 447 789 l 1
483 527 m 1
 483 0 l 1
 404 0 l 1
 397 82 l 1
 357 18 308 -12 233 -12 c 0
 141 -12 86 46 86 149 c 2
 86 527 l 1
 178 527 l 1
 178 159 l 2
 178 87 202 60 259 60 c 0
 316 60 359 98 391 151 c 1
 391 527 l 1
 483 527 l 1
EndSplineSet
EndChar

StartChar: uni0172
Encoding: 370 370 267
Width: 662
Flags: W
LayerCount: 2
Fore
SplineSet
476 689 m 1
 572 689 l 1
 572 221 l 2
 572 113 518 30 418 0 c 1
 316 -44 295 -78 295 -114 c 0
 295 -144 310 -162 351 -162 c 0
 372 -162 388 -160 412 -155 c 1
 403 -225 l 1
 383 -229 366 -232 340 -232 c 0
 263 -232 215 -189 215 -131 c 0
 215 -80 248 -39 310 -11 c 1
 166 -4 90 90 90 221 c 2
 90 689 l 1
 185 689 l 1
 185 228 l 2
 185 121 232 68 330 68 c 0
 429 68 476 121 476 228 c 2
 476 689 l 1
EndSplineSet
EndChar

StartChar: uni0173
Encoding: 371 371 268
Width: 575
Flags: W
LayerCount: 2
Fore
SplineSet
483 0 m 1
 381 -44 360 -78 360 -114 c 0
 360 -144 375 -162 416 -162 c 0
 437 -162 453 -160 477 -155 c 1
 468 -225 l 1
 448 -229 431 -232 405 -232 c 0
 328 -232 280 -189 280 -131 c 0
 280 -71 319 -25 403 10 c 1
 397 82 l 1
 357 18 308 -12 233 -12 c 0
 141 -12 86 46 86 149 c 2
 86 527 l 1
 178 527 l 1
 178 159 l 2
 178 87 202 60 259 60 c 0
 316 60 359 98 391 151 c 1
 391 527 l 1
 483 527 l 1
 483 0 l 1
EndSplineSet
EndChar

StartChar: uni0178
Encoding: 376 376 269
Width: 550
Flags: W
LayerCount: 2
Fore
SplineSet
170 894 m 0
 202 894 227 869 227 837 c 0
 227 805 202 780 170 780 c 0
 137 780 112 805 112 837 c 0
 112 869 137 894 170 894 c 0
379 894 m 0
 412 894 437 869 437 837 c 0
 437 805 412 780 379 780 c 0
 347 780 322 805 322 837 c 0
 322 869 347 894 379 894 c 0
545 689 m 1
 323 265 l 1
 323 0 l 1
 227 0 l 1
 227 264 l 1
 5 689 l 1
 110 689 l 1
 278 348 l 1
 446 689 l 1
 545 689 l 1
EndSplineSet
EndChar

StartChar: uni0179
Encoding: 377 377 270
Width: 522
Flags: W
LayerCount: 2
Fore
SplineSet
352 911 m 1
 392 834 l 1
 176 755 l 1
 152 804 l 1
 352 911 l 1
477 689 m 1
 477 612 l 1
 136 81 l 1
 477 81 l 1
 466 0 l 1
 30 0 l 1
 30 76 l 1
 374 609 l 1
 66 609 l 1
 66 689 l 1
 477 689 l 1
EndSplineSet
EndChar

StartChar: uni017A
Encoding: 378 378 271
Width: 432
Flags: W
LayerCount: 2
Fore
SplineSet
298 801 m 1
 339 724 l 1
 127 638 l 1
 99 687 l 1
 298 801 l 1
404 527 m 1
 404 457 l 1
 129 77 l 1
 407 77 l 1
 396 0 l 1
 25 0 l 1
 25 69 l 1
 299 449 l 1
 48 449 l 1
 48 527 l 1
 404 527 l 1
EndSplineSet
EndChar

StartChar: uni017B
Encoding: 379 379 272
Width: 522
Flags: W
LayerCount: 2
Fore
SplineSet
271 906 m 0
 310 906 336 879 336 843 c 0
 336 808 310 781 271 781 c 0
 233 781 207 808 207 843 c 0
 207 879 233 906 271 906 c 0
477 689 m 1
 477 612 l 1
 136 81 l 1
 477 81 l 1
 466 0 l 1
 30 0 l 1
 30 76 l 1
 374 609 l 1
 66 609 l 1
 66 689 l 1
 477 689 l 1
EndSplineSet
EndChar

StartChar: uni017C
Encoding: 380 380 273
Width: 432
Flags: W
LayerCount: 2
Fore
SplineSet
218 780 m 0
 257 780 283 753 283 717 c 0
 283 682 257 655 218 655 c 0
 180 655 154 682 154 717 c 0
 154 753 180 780 218 780 c 0
404 527 m 1
 404 457 l 1
 129 77 l 1
 407 77 l 1
 396 0 l 1
 25 0 l 1
 25 69 l 1
 299 449 l 1
 48 449 l 1
 48 527 l 1
 404 527 l 1
EndSplineSet
EndChar

StartChar: uni017D
Encoding: 381 381 274
Width: 522
Flags: W
LayerCount: 2
Fore
SplineSet
399 909 m 1
 438 864 l 1
 303 754 l 1
 242 754 l 1
 106 864 l 1
 146 909 l 1
 272 828 l 1
 399 909 l 1
477 689 m 1
 477 612 l 1
 136 81 l 1
 477 81 l 1
 466 0 l 1
 30 0 l 1
 30 76 l 1
 374 609 l 1
 66 609 l 1
 66 689 l 1
 477 689 l 1
EndSplineSet
EndChar

StartChar: uni017E
Encoding: 382 382 275
Width: 432
Flags: W
LayerCount: 2
Fore
SplineSet
346 785 m 1
 385 740 l 1
 250 627 l 1
 189 627 l 1
 53 740 l 1
 93 785 l 1
 219 701 l 1
 346 785 l 1
404 527 m 1
 404 457 l 1
 129 77 l 1
 407 77 l 1
 396 0 l 1
 25 0 l 1
 25 69 l 1
 299 449 l 1
 48 449 l 1
 48 527 l 1
 404 527 l 1
EndSplineSet
EndChar

StartChar: uni0192
Encoding: 402 402 276
Width: 341
Flags: W
LayerCount: 2
Fore
SplineSet
280 676 m 0
 222 676 202 651 202 600 c 2
 202 527 l 1
 330 527 l 1
 320 456 l 1
 202 456 l 1
 202 32 l 2
 202 -117 147 -162 35 -212 c 1
 8 -145 l 1
 77 -113 110 -87 110 26 c 2
 110 456 l 1
 26 456 l 1
 26 527 l 1
 110 527 l 1
 110 599 l 2
 110 687 168 750 275 750 c 0
 325 750 359 741 401 723 c 1
 372 656 l 1
 338 671 307 676 280 676 c 0
EndSplineSet
EndChar

StartChar: uni0218
Encoding: 536 536 277
Width: 545
Flags: W
LayerCount: 2
Fore
SplineSet
270 701 m 0
 365 701 425 673 483 621 c 1
 431 563 l 1
 379 605 331 623 274 623 c 0
 205 623 150 591 150 525 c 0
 150 467 177 439 301 401 c 0
 411 367 505 324 505 192 c 0
 505 72 414 -12 259 -12 c 0
 160 -12 82 21 25 77 c 1
 77 135 l 1
 129 93 183 66 258 66 c 0
 339 66 406 106 406 189 c 0
 406 256 374 286 257 322 c 0
 123 363 53 414 53 521 c 0
 53 627 143 701 270 701 c 0
270 -77 m 0
 302 -77 327 -101 327 -133 c 0
 327 -150 322 -166 301 -210 c 2
 260 -296 l 1
 207 -296 l 1
 236 -180 l 1
 222 -168 212 -152 212 -133 c 0
 212 -101 238 -77 270 -77 c 0
EndSplineSet
EndChar

StartChar: uni0219
Encoding: 537 537 278
Width: 467
Flags: W
LayerCount: 2
Fore
SplineSet
238 539 m 0
 312 539 367 517 417 479 c 1
 378 421 l 1
 331 451 290 466 241 466 c 0
 181 466 144 439 144 397 c 0
 144 354 172 334 257 312 c 0
 368 284 432 240 432 148 c 0
 432 38 331 -12 224 -12 c 0
 135 -12 71 17 25 57 c 1
 74 113 l 1
 116 81 165 62 222 62 c 0
 291 62 335 92 335 142 c 0
 335 194 309 214 207 241 c 0
 93 271 48 320 48 394 c 0
 48 478 129 539 238 539 c 0
238 -77 m 0
 270 -77 295 -101 295 -133 c 0
 295 -150 290 -166 269 -210 c 2
 228 -296 l 1
 175 -296 l 1
 204 -180 l 1
 190 -168 180 -152 180 -133 c 0
 180 -101 206 -77 238 -77 c 0
EndSplineSet
EndChar

StartChar: uni021A
Encoding: 538 538 279
Width: 517
Flags: W
LayerCount: 2
Fore
SplineSet
507 689 m 1
 497 608 l 1
 306 608 l 1
 306 0 l 1
 211 0 l 1
 211 608 l 1
 15 608 l 1
 15 689 l 1
 507 689 l 1
262 -77 m 0
 294 -77 319 -101 319 -133 c 0
 319 -150 314 -166 293 -210 c 2
 252 -296 l 1
 199 -296 l 1
 228 -180 l 1
 214 -168 204 -152 204 -133 c 0
 204 -101 230 -77 262 -77 c 0
EndSplineSet
EndChar

StartChar: uni021B
Encoding: 539 539 280
Width: 361
Flags: W
LayerCount: 2
Fore
SplineSet
361 24 m 1
 326 0 288 -12 243 -12 c 0
 154 -12 101 40 101 138 c 2
 101 456 l 1
 9 456 l 1
 9 527 l 1
 101 527 l 1
 101 646 l 1
 193 657 l 1
 193 527 l 1
 318 527 l 1
 308 456 l 1
 193 456 l 1
 193 142 l 2
 193 89 210 64 256 64 c 0
 279 64 300 71 326 85 c 1
 361 24 l 1
237 -77 m 0
 269 -77 294 -101 294 -133 c 0
 294 -150 289 -166 268 -210 c 2
 227 -296 l 1
 174 -296 l 1
 203 -180 l 1
 189 -168 179 -152 179 -133 c 0
 179 -101 205 -77 237 -77 c 0
EndSplineSet
EndChar

StartChar: uni0237
Encoding: 567 567 281
Width: 277
Flags: W
LayerCount: 2
Fore
SplineSet
185 527 m 1
 185 32 l 2
 185 -117 130 -162 18 -212 c 1
 -9 -145 l 1
 60 -113 93 -87 93 26 c 2
 93 527 l 1
 185 527 l 1
EndSplineSet
EndChar

StartChar: uni0300
Encoding: 768 768 282
Width: 0
Flags: W
TopAccentHorizontal: -150
LayerCount: 2
Fore
SplineSet
-229 801 m 1
 -30 687 l 1
 -58 638 l 1
 -270 724 l 1
 -229 801 l 1
EndSplineSet
EndChar

StartChar: uni0301
Encoding: 769 769 283
Width: 0
Flags: W
TopAccentHorizontal: -150
LayerCount: 2
Fore
SplineSet
-71 801 m 1
 -30 724 l 1
 -242 638 l 1
 -270 687 l 1
 -71 801 l 1
EndSplineSet
EndChar

StartChar: uni0302
Encoding: 770 770 284
Width: 0
Flags: W
TopAccentHorizontal: -196
LayerCount: 2
Fore
SplineSet
-323 634 m 1
 -362 679 l 1
 -227 792 l 1
 -166 792 l 1
 -30 679 l 1
 -70 634 l 1
 -196 718 l 1
 -323 634 l 1
EndSplineSet
EndChar

StartChar: uni0303
Encoding: 771 771 285
Width: 0
Flags: W
TopAccentHorizontal: -197
LayerCount: 2
Fore
SplineSet
-139 656 m 0
 -192 656 -219 704 -255 704 c 0
 -278 704 -292 688 -308 658 c 1
 -364 686 l 1
 -341 735 -305 774 -255 774 c 0
 -199 774 -176 726 -139 726 c 0
 -119 726 -104 740 -86 770 c 1
 -30 742 l 1
 -56 685 -94 656 -139 656 c 0
EndSplineSet
EndChar

StartChar: uni0304
Encoding: 772 772 286
Width: 0
Flags: W
TopAccentHorizontal: -166
LayerCount: 2
Fore
SplineSet
-30 667 m 1
 -303 667 l 1
 -303 736 l 1
 -30 736 l 1
 -30 667 l 1
EndSplineSet
EndChar

StartChar: uni0305
Encoding: 773 773 287
Width: 0
Flags: W
TopAccentHorizontal: -270
LayerCount: 2
Fore
SplineSet
-30 667 m 1
 -510 667 l 1
 -510 736 l 1
 -30 736 l 1
 -30 667 l 1
EndSplineSet
EndChar

StartChar: uni0306
Encoding: 774 774 288
Width: 0
Flags: W
TopAccentHorizontal: -182
LayerCount: 2
Fore
SplineSet
-183 643 m 0
 -263 643 -325 692 -333 776 c 1
 -272 789 l 1
 -258 739 -230 713 -183 713 c 0
 -136 713 -105 739 -91 789 c 1
 -30 776 l 1
 -38 692 -102 643 -183 643 c 0
EndSplineSet
EndChar

StartChar: uni0307
Encoding: 775 775 289
Width: 0
Flags: W
TopAccentHorizontal: -94
LayerCount: 2
Fore
SplineSet
-95 780 m 0
 -56 780 -30 753 -30 717 c 0
 -30 682 -56 655 -95 655 c 0
 -133 655 -159 682 -159 717 c 0
 -159 753 -133 780 -95 780 c 0
EndSplineSet
EndChar

StartChar: uni0308
Encoding: 776 776 290
Width: 0
Flags: W
TopAccentHorizontal: -192
LayerCount: 2
Fore
SplineSet
-297 768 m 0
 -265 768 -240 743 -240 711 c 0
 -240 679 -265 654 -297 654 c 0
 -330 654 -355 679 -355 711 c 0
 -355 743 -330 768 -297 768 c 0
-88 768 m 0
 -55 768 -30 743 -30 711 c 0
 -30 679 -55 654 -88 654 c 0
 -120 654 -145 679 -145 711 c 0
 -145 743 -120 768 -88 768 c 0
EndSplineSet
EndChar

StartChar: uni0309
Encoding: 777 777 291
Width: 0
Flags: W
TopAccentHorizontal: -131
LayerCount: 2
Fore
SplineSet
-180 611 m 1
 -180 705 l 1
 -135 711 -109 717 -109 748 c 0
 -109 773 -127 784 -153 784 c 0
 -175 784 -192 779 -210 771 c 1
 -232 822 l 1
 -208 836 -179 846 -138 846 c 0
 -69 846 -30 811 -30 755 c 0
 -30 705 -61 677 -111 669 c 1
 -111 611 l 1
 -180 611 l 1
EndSplineSet
EndChar

StartChar: uni030A
Encoding: 778 778 292
Width: 0
Flags: W
TopAccentHorizontal: -144
LayerCount: 2
Fore
SplineSet
-144 836 m 0
 -77 836 -30 789 -30 730 c 0
 -30 671 -77 624 -144 624 c 0
 -211 624 -258 671 -258 730 c 0
 -258 789 -211 836 -144 836 c 0
-144 786 m 0
 -177 786 -197 765 -197 730 c 0
 -197 695 -177 674 -144 674 c 0
 -112 674 -91 695 -91 730 c 0
 -91 765 -111 786 -144 786 c 0
EndSplineSet
EndChar

StartChar: uni030B
Encoding: 779 779 293
Width: 0
Flags: W
TopAccentHorizontal: -183
LayerCount: 2
Fore
SplineSet
-260 832 m 1
 -182 791 l 1
 -278 639 l 1
 -336 664 l 1
 -260 832 l 1
-108 832 m 1
 -30 791 l 1
 -136 634 l 1
 -194 659 l 1
 -108 832 l 1
EndSplineSet
EndChar

StartChar: uni030C
Encoding: 780 780 294
Width: 0
Flags: W
TopAccentHorizontal: -196
LayerCount: 2
Fore
SplineSet
-69 785 m 1
 -30 740 l 1
 -165 627 l 1
 -226 627 l 1
 -362 740 l 1
 -322 785 l 1
 -196 701 l 1
 -69 785 l 1
EndSplineSet
EndChar

StartChar: uni030D
Encoding: 781 781 295
Width: 0
Flags: W
TopAccentHorizontal: -74
LayerCount: 2
Fore
SplineSet
-117 626 m 1
 -117 858 l 1
 -30 858 l 1
 -30 626 l 1
 -117 626 l 1
EndSplineSet
EndChar

StartChar: uni030F
Encoding: 783 783 296
Width: 0
Flags: W
TopAccentHorizontal: -183
LayerCount: 2
Fore
SplineSet
-258 832 m 1
 -172 659 l 1
 -230 634 l 1
 -336 791 l 1
 -258 832 l 1
-106 832 m 1
 -30 664 l 1
 -88 639 l 1
 -184 791 l 1
 -106 832 l 1
EndSplineSet
EndChar

StartChar: uni0311
Encoding: 785 785 297
Width: 0
Flags: W
TopAccentHorizontal: -182
LayerCount: 2
Fore
SplineSet
-183 760 m 0
 -102 760 -38 711 -30 627 c 1
 -91 614 l 1
 -105 664 -136 690 -183 690 c 0
 -230 690 -258 664 -272 614 c 1
 -333 627 l 1
 -325 711 -263 760 -183 760 c 0
EndSplineSet
EndChar

StartChar: uni0312
Encoding: 786 786 298
Width: 0
Flags: W
TopAccentHorizontal: -90
LayerCount: 2
Fore
SplineSet
-93 583 m 0
 -125 583 -150 607 -150 639 c 0
 -150 656 -145 672 -124 716 c 2
 -83 802 l 1
 -30 802 l 1
 -59 686 l 1
 -45 674 -35 658 -35 639 c 0
 -35 607 -61 583 -93 583 c 0
EndSplineSet
EndChar

StartChar: uni0313
Encoding: 787 787 299
Width: 0
Flags: W
TopAccentHorizontal: -90
LayerCount: 2
Fore
SplineSet
-87 802 m 0
 -55 802 -30 778 -30 746 c 0
 -30 729 -35 713 -56 669 c 2
 -97 583 l 1
 -150 583 l 1
 -121 699 l 1
 -135 711 -145 727 -145 746 c 0
 -145 778 -119 802 -87 802 c 0
EndSplineSet
EndChar

StartChar: uni0316
Encoding: 790 790 300
Width: 0
Flags: W
TopAccentHorizontal: -150
LayerCount: 2
Fore
SplineSet
-231 -49 m 1
 -30 -156 l 1
 -54 -205 l 1
 -270 -126 l 1
 -231 -49 l 1
EndSplineSet
EndChar

StartChar: uni0317
Encoding: 791 791 301
Width: 0
Flags: W
TopAccentHorizontal: -150
LayerCount: 2
Fore
SplineSet
-70 -49 m 1
 -30 -126 l 1
 -246 -205 l 1
 -270 -156 l 1
 -70 -49 l 1
EndSplineSet
EndChar

StartChar: uni0318
Encoding: 792 792 302
Width: 0
Flags: W
TopAccentHorizontal: -132
LayerCount: 2
Fore
SplineSet
-94 -63 m 1
 -30 -63 l 1
 -30 -353 l 1
 -94 -353 l 1
 -94 -237 l 1
 -234 -237 l 1
 -234 -180 l 1
 -94 -180 l 1
 -94 -63 l 1
EndSplineSet
EndChar

StartChar: uni0319
Encoding: 793 793 303
Width: 0
Flags: W
TopAccentHorizontal: -133
LayerCount: 2
Fore
SplineSet
-171 -63 m 1
 -171 -180 l 1
 -31 -180 l 1
 -31 -237 l 1
 -171 -237 l 1
 -171 -353 l 1
 -235 -353 l 1
 -235 -63 l 1
 -171 -63 l 1
EndSplineSet
EndChar

StartChar: uni031A
Encoding: 794 794 304
Width: 0
Flags: W
TopAccentHorizontal: -93
LayerCount: 2
Fore
SplineSet
-213 779 m 1
 -30 779 l 1
 -30 594 l 1
 -93 594 l 1
 -93 720 l 1
 -213 720 l 1
 -213 779 l 1
EndSplineSet
EndChar

StartChar: uni031B
Encoding: 795 795 305
Width: 0
Flags: W
TopAccentHorizontal: -97
LayerCount: 2
Fore
SplineSet
-154 417 m 1
 -164 472 l 1
 -125 476 -107 491 -107 520 c 0
 -107 554 -113 572 -121 592 c 1
 -49 607 l 1
 -38 588 -30 561 -30 525 c 0
 -30 456 -74 420 -154 417 c 1
EndSplineSet
EndChar

StartChar: uni031C
Encoding: 796 796 306
Width: 0
Flags: W
TopAccentHorizontal: -87
LayerCount: 2
Fore
SplineSet
-30 -276 m 1
 -30 -226 l 1
 -63 -226 -83 -205 -83 -170 c 0
 -83 -135 -63 -114 -30 -114 c 1
 -30 -64 l 1
 -97 -64 -144 -111 -144 -170 c 0
 -144 -229 -97 -276 -30 -276 c 1
EndSplineSet
EndChar

StartChar: uni031D
Encoding: 797 797 307
Width: 0
Flags: W
TopAccentHorizontal: -180
LayerCount: 2
Fore
SplineSet
-30 -251 m 1
 -30 -310 l 1
 -330 -310 l 1
 -330 -251 l 1
 -212 -251 l 1
 -212 -91 l 1
 -149 -91 l 1
 -149 -251 l 1
 -30 -251 l 1
EndSplineSet
EndChar

StartChar: uni031E
Encoding: 798 798 308
Width: 0
Flags: W
TopAccentHorizontal: -180
LayerCount: 2
Fore
SplineSet
-30 -150 m 1
 -149 -150 l 1
 -149 -310 l 1
 -212 -310 l 1
 -212 -150 l 1
 -330 -150 l 1
 -330 -91 l 1
 -30 -91 l 1
 -30 -150 l 1
EndSplineSet
EndChar

StartChar: uni031F
Encoding: 799 799 309
Width: 0
Flags: W
TopAccentHorizontal: -156
LayerCount: 2
Fore
SplineSet
-121 -82 m 1
 -121 -171 l 1
 -30 -171 l 1
 -30 -236 l 1
 -121 -236 l 1
 -121 -323 l 1
 -192 -323 l 1
 -192 -236 l 1
 -283 -236 l 1
 -283 -171 l 1
 -192 -171 l 1
 -192 -82 l 1
 -121 -82 l 1
EndSplineSet
EndChar

StartChar: uni0320
Encoding: 800 800 310
Width: 0
Flags: W
TopAccentHorizontal: -157
LayerCount: 2
Fore
SplineSet
-283 -236 m 1
 -283 -171 l 1
 -31 -171 l 1
 -31 -236 l 1
 -283 -236 l 1
EndSplineSet
EndChar

StartChar: uni0321
Encoding: 801 801 311
Width: 0
Flags: W
TopAccentHorizontal: -163
LayerCount: 2
Fore
SplineSet
-181 -213 m 0
 -234 -213 -271 -194 -296 -175 c 1
 -260 -117 l 1
 -237 -130 -219 -139 -186 -139 c 0
 -147 -139 -122 -118 -122 -65 c 2
 -122 1 l 1
 -30 1 l 1
 -30 -57 l 2
 -30 -160 -90 -213 -181 -213 c 0
EndSplineSet
EndChar

StartChar: uni0323
Encoding: 803 803 312
Width: 0
Flags: W
TopAccentHorizontal: -94
LayerCount: 2
Fore
SplineSet
-94 -199 m 0
 -133 -199 -159 -172 -159 -136 c 0
 -159 -101 -133 -74 -94 -74 c 0
 -56 -74 -30 -101 -30 -136 c 0
 -30 -172 -56 -199 -94 -199 c 0
EndSplineSet
EndChar

StartChar: uni0324
Encoding: 804 804 313
Width: 0
Flags: W
TopAccentHorizontal: -192
LayerCount: 2
Fore
SplineSet
-297 -78 m 0
 -265 -78 -240 -103 -240 -135 c 0
 -240 -167 -265 -192 -297 -192 c 0
 -330 -192 -355 -167 -355 -135 c 0
 -355 -103 -330 -78 -297 -78 c 0
-88 -78 m 0
 -55 -78 -30 -103 -30 -135 c 0
 -30 -167 -55 -192 -88 -192 c 0
 -120 -192 -145 -167 -145 -135 c 0
 -145 -103 -120 -78 -88 -78 c 0
EndSplineSet
EndChar

StartChar: uni0325
Encoding: 805 805 314
Width: 0
Flags: W
TopAccentHorizontal: -144
LayerCount: 2
Fore
SplineSet
-144 -64 m 0
 -77 -64 -30 -111 -30 -170 c 0
 -30 -229 -77 -276 -144 -276 c 0
 -211 -276 -258 -229 -258 -170 c 0
 -258 -111 -211 -64 -144 -64 c 0
-144 -114 m 0
 -177 -114 -197 -135 -197 -170 c 0
 -197 -205 -177 -226 -144 -226 c 0
 -112 -226 -91 -205 -91 -170 c 0
 -91 -135 -111 -114 -144 -114 c 0
EndSplineSet
EndChar

StartChar: uni0326
Encoding: 806 806 315
Width: 0
Flags: W
TopAccentHorizontal: -90
LayerCount: 2
Fore
SplineSet
-87 -77 m 0
 -55 -77 -30 -101 -30 -133 c 0
 -30 -150 -35 -166 -56 -210 c 2
 -97 -296 l 1
 -150 -296 l 1
 -121 -180 l 1
 -135 -168 -145 -152 -145 -133 c 0
 -145 -101 -119 -77 -87 -77 c 0
EndSplineSet
EndChar

StartChar: uni0327
Encoding: 807 807 316
Width: 0
Flags: W
TopAccentHorizontal: -138
LayerCount: 2
Fore
SplineSet
-123 16 m 1
 -123 -56 l 1
 -55 -62 -30 -100 -30 -141 c 0
 -30 -207 -86 -241 -154 -241 c 0
 -192 -241 -225 -232 -245 -217 c 1
 -220 -165 l 1
 -201 -175 -183 -181 -157 -181 c 0
 -129 -181 -107 -170 -107 -141 c 0
 -107 -114 -132 -99 -196 -99 c 1
 -182 16 l 1
 -123 16 l 1
EndSplineSet
EndChar

StartChar: uni0328
Encoding: 808 808 317
Width: 0
Flags: W
TopAccentHorizontal: -132
LayerCount: 2
Fore
SplineSet
-44 33 m 1
 -30 0 l 1
 -132 -44 -153 -78 -153 -114 c 0
 -153 -144 -138 -162 -97 -162 c 0
 -76 -162 -60 -160 -36 -155 c 1
 -45 -225 l 1
 -65 -229 -82 -232 -108 -232 c 0
 -185 -232 -233 -189 -233 -131 c 0
 -233 -57 -173 -5 -44 33 c 1
EndSplineSet
EndChar

StartChar: uni0329
Encoding: 809 809 318
Width: 0
Flags: W
TopAccentHorizontal: -86
LayerCount: 2
Fore
SplineSet
-129 -304 m 1
 -129 -72 l 1
 -42 -72 l 1
 -42 -304 l 1
 -129 -304 l 1
EndSplineSet
EndChar

StartChar: uni032A
Encoding: 810 810 319
Width: 0
Flags: W
TopAccentHorizontal: -170
LayerCount: 2
Fore
SplineSet
-310 -240 m 1
 -310 -91 l 1
 -30 -91 l 1
 -30 -240 l 1
 -93 -240 l 1
 -93 -150 l 1
 -247 -150 l 1
 -247 -240 l 1
 -310 -240 l 1
EndSplineSet
EndChar

StartChar: uni032B
Encoding: 811 811 320
Width: 0
Flags: W
TopAccentHorizontal: -221
LayerCount: 2
Fore
SplineSet
-76 -61 m 1
 -30 -64 l 1
 -36 -148 -78 -197 -132 -197 c 0
 -172 -197 -205 -170 -221 -120 c 1
 -238 -170 -272 -197 -312 -197 c 0
 -366 -197 -407 -148 -412 -64 c 1
 -368 -61 l 1
 -362 -101 -344 -127 -312 -127 c 0
 -281 -127 -260 -101 -255 -61 c 1
 -188 -61 l 1
 -182 -101 -164 -127 -132 -127 c 0
 -101 -127 -80 -101 -76 -61 c 1
EndSplineSet
EndChar

StartChar: uni032C
Encoding: 812 812 321
Width: 0
Flags: W
TopAccentHorizontal: -196
LayerCount: 2
Fore
SplineSet
-69 -71 m 1
 -30 -116 l 1
 -165 -226 l 1
 -226 -226 l 1
 -362 -116 l 1
 -322 -71 l 1
 -196 -152 l 1
 -69 -71 l 1
EndSplineSet
EndChar

StartChar: uni032D
Encoding: 813 813 322
Width: 0
Flags: W
TopAccentHorizontal: -196
LayerCount: 2
Fore
SplineSet
-323 -226 m 1
 -362 -181 l 1
 -227 -68 l 1
 -166 -68 l 1
 -30 -181 l 1
 -70 -226 l 1
 -196 -142 l 1
 -323 -226 l 1
EndSplineSet
EndChar

StartChar: uni032F
Encoding: 815 815 323
Width: 0
Flags: W
TopAccentHorizontal: -182
LayerCount: 2
Fore
SplineSet
-183 -50 m 0
 -102 -50 -38 -99 -30 -183 c 1
 -91 -196 l 1
 -105 -146 -136 -120 -183 -120 c 0
 -230 -120 -258 -146 -272 -196 c 1
 -333 -183 l 1
 -325 -99 -263 -50 -183 -50 c 0
EndSplineSet
EndChar

StartChar: uni0330
Encoding: 816 816 324
Width: 0
Flags: W
TopAccentHorizontal: -197
LayerCount: 2
Fore
SplineSet
-139 -184 m 0
 -192 -184 -219 -136 -255 -136 c 0
 -278 -136 -292 -152 -308 -182 c 1
 -364 -154 l 1
 -341 -105 -305 -66 -255 -66 c 0
 -199 -66 -176 -114 -139 -114 c 0
 -119 -114 -104 -100 -86 -70 c 1
 -30 -98 l 1
 -56 -155 -94 -184 -139 -184 c 0
EndSplineSet
EndChar

StartChar: uni0331
Encoding: 817 817 325
Width: 0
Flags: W
TopAccentHorizontal: -166
LayerCount: 2
Fore
SplineSet
-30 -173 m 1
 -303 -173 l 1
 -303 -104 l 1
 -30 -104 l 1
 -30 -173 l 1
EndSplineSet
EndChar

StartChar: uni0332
Encoding: 818 818 326
Width: 0
Flags: W
TopAccentHorizontal: -235
LayerCount: 2
Fore
SplineSet
-30 -173 m 1
 -440 -173 l 1
 -440 -104 l 1
 -30 -104 l 1
 -30 -173 l 1
EndSplineSet
EndChar

StartChar: uni0334
Encoding: 820 820 327
Width: 0
Flags: W
TopAccentHorizontal: -239
LayerCount: 2
Fore
SplineSet
-164 250 m 0
 -241 250 -278 312 -320 312 c 0
 -353 312 -376 284 -392 258 c 1
 -448 287 l 1
 -427 328 -386 384 -311 384 c 0
 -237 384 -200 323 -155 323 c 0
 -125 323 -101 345 -85 371 c 1
 -30 341 l 1
 -51 300 -91 250 -164 250 c 0
EndSplineSet
EndChar

StartChar: uni0335
Encoding: 821 821 328
Width: 0
Flags: W
TopAccentHorizontal: -202
LayerCount: 2
Fore
SplineSet
-343 274 m 1
 -343 352 l 1
 -60 352 l 1
 -60 274 l 1
 -343 274 l 1
EndSplineSet
EndChar

StartChar: uni0336
Encoding: 822 822 329
Width: 0
Flags: W
TopAccentHorizontal: -393
LayerCount: 2
Fore
SplineSet
-756 274 m 1
 -756 352 l 1
 -30 352 l 1
 -30 274 l 1
 -756 274 l 1
EndSplineSet
EndChar

StartChar: uni0337
Encoding: 823 823 330
Width: 0
Flags: W
TopAccentHorizontal: -236
LayerCount: 2
Fore
SplineSet
-361 62 m 1
 -412 91 l 1
 -110 597 l 1
 -60 570 l 1
 -361 62 l 1
EndSplineSet
EndChar

StartChar: uni0338
Encoding: 824 824 331
Width: 0
Flags: W
TopAccentHorizontal: -311
LayerCount: 2
Fore
SplineSet
-426 14 m 1
 -484 48 l 1
 -196 546 l 1
 -138 512 l 1
 -426 14 l 1
EndSplineSet
EndChar

StartChar: uni0339
Encoding: 825 825 332
Width: 0
Flags: W
TopAccentHorizontal: -86
LayerCount: 2
Fore
SplineSet
-143 -275 m 1
 -76 -275 -29 -228 -29 -169 c 0
 -29 -110 -76 -63 -143 -63 c 1
 -143 -113 l 1
 -110 -113 -90 -134 -90 -169 c 0
 -90 -204 -110 -225 -143 -225 c 1
 -143 -275 l 1
EndSplineSet
EndChar

StartChar: uni033A
Encoding: 826 826 333
Width: 0
Flags: W
TopAccentHorizontal: -170
LayerCount: 2
Fore
SplineSet
-310 -91 m 1
 -247 -91 l 1
 -247 -181 l 1
 -93 -181 l 1
 -93 -91 l 1
 -30 -91 l 1
 -30 -240 l 1
 -310 -240 l 1
 -310 -91 l 1
EndSplineSet
EndChar

StartChar: uni033B
Encoding: 827 827 334
Width: 0
Flags: W
TopAccentHorizontal: -170
LayerCount: 2
Fore
SplineSet
-310 -240 m 1
 -310 -68 l 1
 -30 -68 l 1
 -30 -240 l 1
 -310 -240 l 1
-250 -186 m 1
 -90 -186 l 1
 -90 -122 l 1
 -250 -122 l 1
 -250 -186 l 1
EndSplineSet
EndChar

StartChar: uni033C
Encoding: 828 828 335
Width: 0
Flags: W
TopAccentHorizontal: -221
LayerCount: 2
Fore
SplineSet
-132 -60 m 0
 -78 -60 -36 -109 -30 -193 c 1
 -76 -196 l 1
 -80 -156 -101 -130 -132 -130 c 0
 -164 -130 -182 -156 -188 -196 c 1
 -255 -196 l 1
 -260 -156 -281 -130 -312 -130 c 0
 -344 -130 -362 -156 -368 -196 c 1
 -412 -193 l 1
 -407 -109 -366 -60 -312 -60 c 0
 -272 -60 -238 -87 -221 -137 c 1
 -205 -87 -172 -60 -132 -60 c 0
EndSplineSet
EndChar

StartChar: uni033D
Encoding: 829 829 336
Width: 0
Flags: W
TopAccentHorizontal: -174
LayerCount: 2
Fore
SplineSet
-127 728 m 1
 -30 600 l 1
 -117 600 l 1
 -176 691 l 1
 -233 600 l 1
 -318 600 l 1
 -221 726 l 1
 -308 838 l 1
 -222 838 l 1
 -173 761 l 1
 -127 838 l 1
 -44 838 l 1
 -127 728 l 1
EndSplineSet
EndChar

StartChar: uni0342
Encoding: 834 834 337
Width: 0
Flags: W
TopAccentHorizontal: -197
LayerCount: 2
Fore
SplineSet
-139 656 m 0
 -192 656 -219 704 -255 704 c 0
 -278 704 -292 688 -308 658 c 1
 -364 686 l 1
 -341 735 -305 774 -255 774 c 0
 -199 774 -176 726 -139 726 c 0
 -119 726 -104 740 -86 770 c 1
 -30 742 l 1
 -56 685 -94 656 -139 656 c 0
EndSplineSet
EndChar

StartChar: uni0345
Encoding: 837 837 338
Width: 0
Flags: W
TopAccentHorizontal: -136
LayerCount: 2
Fore
SplineSet
-129 -190 m 0
 -200 -190 -241 -148 -241 -85 c 2
 -241 -39 l 1
 -162 -39 l 1
 -162 -83 l 2
 -162 -111 -148 -125 -120 -125 c 0
 -96 -125 -82 -119 -64 -108 c 1
 -30 -155 l 1
 -51 -171 -82 -190 -129 -190 c 0
EndSplineSet
EndChar

StartChar: uni035C
Encoding: 860 860 339
Width: 0
Flags: W
TopAccentHorizontal: 0
LayerCount: 2
Fore
SplineSet
335 -81 m 1
 246 -154 137 -212 0 -212 c 0
 -137 -212 -246 -154 -335 -80 c 1
 -295 -27 l 1
 -202 -88 -114 -116 0 -116 c 0
 115 -116 202 -88 295 -27 c 1
 335 -81 l 1
EndSplineSet
EndChar

StartChar: uni0361
Encoding: 865 865 340
Width: 0
Flags: W
TopAccentHorizontal: -1
LayerCount: 2
Fore
SplineSet
334 663 m 1
 294 609 l 1
 201 670 114 698 -1 698 c 0
 -115 698 -203 670 -296 609 c 1
 -336 662 l 1
 -247 736 -138 794 -1 794 c 0
 136 794 245 736 334 663 c 1
EndSplineSet
EndChar

StartChar: uni037E
Encoding: 894 894 341
Width: 240
Flags: W
LayerCount: 2
Fore
SplineSet
119 495 m 0
 159 495 189 464 189 426 c 0
 189 387 159 356 119 356 c 0
 80 356 50 387 50 426 c 0
 50 464 80 495 119 495 c 0
119 127 m 0
 159 127 189 96 189 58 c 0
 189 36 184 16 171 -13 c 2
 104 -166 l 1
 38 -166 l 1
 78 0 l 1
 61 13 50 34 50 58 c 0
 50 96 80 127 119 127 c 0
EndSplineSet
EndChar

StartChar: uni0384
Encoding: 900 900 342
Width: 161
Flags: W
LayerCount: 2
Fore
SplineSet
33 807 m 1
 131 799 l 1
 96 596 l 1
 30 596 l 1
 33 807 l 1
EndSplineSet
EndChar

StartChar: uni0385
Encoding: 901 901 343
Width: 385
Flags: W
LayerCount: 2
Fore
SplineSet
169 913 m 1
 254 906 l 1
 224 730 l 1
 167 730 l 1
 169 913 l 1
88 738 m 0
 120 738 145 713 145 681 c 0
 145 649 120 624 88 624 c 0
 55 624 30 649 30 681 c 0
 30 713 55 738 88 738 c 0
297 738 m 0
 330 738 355 713 355 681 c 0
 355 649 330 624 297 624 c 0
 265 624 240 649 240 681 c 0
 240 713 265 738 297 738 c 0
EndSplineSet
EndChar

StartChar: uni0386
Encoding: 902 902 344
Width: 597
Flags: W
LayerCount: 2
Fore
SplineSet
167 689 m 1
 132 486 l 1
 66 486 l 1
 69 697 l 1
 167 689 l 1
491 0 m 1
 439 173 l 1
 178 173 l 1
 126 0 l 1
 30 0 l 1
 251 689 l 1
 371 689 l 1
 591 0 l 1
 491 0 l 1
201 250 m 1
 416 250 l 1
 309 610 l 1
 201 250 l 1
EndSplineSet
EndChar

StartChar: uni0387
Encoding: 903 903 345
Width: 240
Flags: W
LayerCount: 2
Fore
SplineSet
119 380 m 0
 159 380 189 349 189 311 c 0
 189 272 159 241 119 241 c 0
 80 241 50 272 50 311 c 0
 50 349 80 380 119 380 c 0
EndSplineSet
EndChar

StartChar: uni0388
Encoding: 904 904 346
Width: 627
Flags: W
LayerCount: 2
Fore
SplineSet
57 697 m 1
 155 689 l 1
 120 486 l 1
 54 486 l 1
 57 697 l 1
565 689 m 1
 554 613 l 1
 287 613 l 1
 287 388 l 1
 519 388 l 1
 519 312 l 1
 287 312 l 1
 287 76 l 1
 573 76 l 1
 573 0 l 1
 192 0 l 1
 192 689 l 1
 565 689 l 1
EndSplineSet
EndChar

StartChar: uni0389
Encoding: 905 905 347
Width: 772
Flags: W
LayerCount: 2
Fore
SplineSet
57 697 m 1
 155 689 l 1
 120 486 l 1
 54 486 l 1
 57 697 l 1
577 0 m 1
 577 323 l 1
 287 323 l 1
 287 0 l 1
 192 0 l 1
 192 689 l 1
 287 689 l 1
 287 401 l 1
 577 401 l 1
 577 689 l 1
 672 689 l 1
 672 0 l 1
 577 0 l 1
EndSplineSet
EndChar

StartChar: uni038A
Encoding: 906 906 348
Width: 387
Flags: W
LayerCount: 2
Fore
SplineSet
57 697 m 1
 155 689 l 1
 120 486 l 1
 54 486 l 1
 57 697 l 1
287 689 m 1
 287 0 l 1
 192 0 l 1
 192 689 l 1
 287 689 l 1
EndSplineSet
EndChar

StartChar: uni038C
Encoding: 908 908 349
Width: 761
Flags: W
LayerCount: 2
Fore
SplineSet
415 701 m 0
 588 701 706 576 706 344 c 0
 706 116 588 -12 415 -12 c 0
 243 -12 124 112 124 343 c 0
 124 570 243 701 415 701 c 0
47 697 m 1
 145 689 l 1
 110 486 l 1
 44 486 l 1
 47 697 l 1
415 623 m 0
 300 623 225 542 225 343 c 0
 225 144 303 66 415 66 c 0
 531 66 605 144 605 344 c 0
 605 542 533 623 415 623 c 0
EndSplineSet
EndChar

StartChar: uni038E
Encoding: 910 910 350
Width: 727
Flags: W
LayerCount: 2
Fore
SplineSet
57 697 m 1
 155 689 l 1
 120 486 l 1
 54 486 l 1
 57 697 l 1
722 689 m 1
 500 265 l 1
 500 0 l 1
 404 0 l 1
 404 264 l 1
 182 689 l 1
 287 689 l 1
 455 348 l 1
 623 689 l 1
 722 689 l 1
EndSplineSet
EndChar

StartChar: uni038F
Encoding: 911 911 351
Width: 763
Flags: W
LayerCount: 2
Fore
SplineSet
417 701 m 0
 594 701 708 576 708 354 c 0
 708 214 677 136 576 80 c 1
 686 80 l 1
 686 0 l 1
 471 0 l 1
 471 80 l 1
 565 112 607 196 607 354 c 0
 607 542 535 623 417 623 c 0
 302 623 227 542 227 353 c 0
 227 182 276 111 362 80 c 1
 362 0 l 1
 147 0 l 1
 147 80 l 1
 251 80 l 1
 161 128 126 208 126 353 c 0
 126 570 245 701 417 701 c 0
47 697 m 1
 145 689 l 1
 110 486 l 1
 44 486 l 1
 47 697 l 1
EndSplineSet
EndChar

StartChar: uni0390
Encoding: 912 912 352
Width: 279
Flags: W
LayerCount: 2
Fore
SplineSet
108 913 m 1
 193 906 l 1
 163 730 l 1
 106 730 l 1
 108 913 l 1
27 738 m 0
 59 738 84 713 84 681 c 0
 84 649 59 624 27 624 c 0
 -6 624 -31 649 -31 681 c 0
 -31 713 -6 738 27 738 c 0
236 738 m 0
 269 738 294 713 294 681 c 0
 294 649 269 624 236 624 c 0
 204 624 179 649 179 681 c 0
 179 713 204 738 236 738 c 0
178 527 m 1
 178 141 l 2
 178 89 191 72 224 57 c 1
 195 -12 l 1
 116 9 86 46 86 130 c 2
 86 527 l 1
 178 527 l 1
EndSplineSet
EndChar

StartChar: uni0391
Encoding: 913 913 353
Width: 573
Flags: W
TopAccentHorizontal: 287
LayerCount: 2
Fore
SplineSet
467 0 m 1
 415 173 l 1
 154 173 l 1
 102 0 l 1
 6 0 l 1
 227 689 l 1
 347 689 l 1
 567 0 l 1
 467 0 l 1
177 250 m 1
 392 250 l 1
 285 610 l 1
 177 250 l 1
EndSplineSet
EndChar

StartChar: uni0392
Encoding: 914 914 354
Width: 608
Flags: W
TopAccentHorizontal: 292
LayerCount: 2
Fore
SplineSet
404 364 m 1
 484 350 563 313 563 196 c 0
 563 50 450 0 290 0 c 2
 100 0 l 1
 100 689 l 1
 263 689 l 2
 433 689 533 635 533 515 c 0
 533 430 471 378 404 364 c 1
273 614 m 2
 195 614 l 1
 195 397 l 1
 299 397 l 2
 376 397 436 435 436 508 c 0
 436 593 375 614 273 614 c 2
290 76 m 2
 390 76 463 96 463 196 c 0
 463 293 391 324 308 324 c 2
 195 324 l 1
 195 76 l 1
 290 76 l 2
EndSplineSet
EndChar

StartChar: uni0393
Encoding: 915 915 355
Width: 508
Flags: W
TopAccentHorizontal: 279
LayerCount: 2
Fore
SplineSet
498 689 m 1
 484 607 l 1
 195 607 l 1
 195 0 l 1
 100 0 l 1
 100 689 l 1
 498 689 l 1
EndSplineSet
EndChar

StartChar: uni0394
Encoding: 916 916 356
Width: 583
Flags: W
TopAccentHorizontal: 292
LayerCount: 2
Fore
SplineSet
352 689 m 1
 577 0 l 1
 6 0 l 1
 232 689 l 1
 352 689 l 1
290 609 m 1
 125 78 l 1
 454 78 l 1
 290 609 l 1
EndSplineSet
EndChar

StartChar: uni0395
Encoding: 917 917 357
Width: 535
Flags: W
TopAccentHorizontal: 290
LayerCount: 2
Fore
SplineSet
473 689 m 1
 462 613 l 1
 195 613 l 1
 195 388 l 1
 427 388 l 1
 427 312 l 1
 195 312 l 1
 195 76 l 1
 481 76 l 1
 481 0 l 1
 100 0 l 1
 100 689 l 1
 473 689 l 1
EndSplineSet
EndChar

StartChar: uni0396
Encoding: 918 918 358
Width: 522
Flags: W
TopAccentHorizontal: 271
LayerCount: 2
Fore
SplineSet
477 689 m 1
 477 612 l 1
 136 81 l 1
 477 81 l 1
 466 0 l 1
 30 0 l 1
 30 76 l 1
 374 609 l 1
 66 609 l 1
 66 689 l 1
 477 689 l 1
EndSplineSet
EndChar

StartChar: uni0397
Encoding: 919 919 359
Width: 680
Flags: W
TopAccentHorizontal: 340
LayerCount: 2
Fore
SplineSet
485 0 m 1
 485 323 l 1
 195 323 l 1
 195 0 l 1
 100 0 l 1
 100 689 l 1
 195 689 l 1
 195 401 l 1
 485 401 l 1
 485 689 l 1
 580 689 l 1
 580 0 l 1
 485 0 l 1
EndSplineSet
EndChar

StartChar: uni0398
Encoding: 920 920 360
Width: 692
Flags: W
TopAccentHorizontal: 346
LayerCount: 2
Fore
SplineSet
346 701 m 0
 519 701 637 576 637 344 c 0
 637 116 519 -12 346 -12 c 0
 174 -12 55 112 55 343 c 0
 55 570 174 701 346 701 c 0
346 623 m 0
 231 623 156 542 156 343 c 0
 156 144 234 66 346 66 c 0
 462 66 536 144 536 344 c 0
 536 542 464 623 346 623 c 0
465 389 m 1
 465 315 l 1
 226 315 l 1
 226 389 l 1
 465 389 l 1
EndSplineSet
EndChar

StartChar: uni0399
Encoding: 921 921 361
Width: 295
Flags: W
TopAccentHorizontal: 148
LayerCount: 2
Fore
SplineSet
195 689 m 1
 195 0 l 1
 100 0 l 1
 100 689 l 1
 195 689 l 1
EndSplineSet
EndChar

StartChar: uni039A
Encoding: 922 922 362
Width: 589
Flags: W
TopAccentHorizontal: 324
LayerCount: 2
Fore
SplineSet
195 689 m 1
 195 0 l 1
 100 0 l 1
 100 689 l 1
 195 689 l 1
570 689 m 1
 309 374 l 1
 589 0 l 1
 472 0 l 1
 200 368 l 1
 462 689 l 1
 570 689 l 1
EndSplineSet
EndChar

StartChar: uni039B
Encoding: 923 923 363
Width: 573
Flags: W
TopAccentHorizontal: 287
LayerCount: 2
Fore
SplineSet
347 689 m 1
 567 0 l 1
 467 0 l 1
 285 610 l 1
 102 0 l 1
 6 0 l 1
 227 689 l 1
 347 689 l 1
EndSplineSet
EndChar

StartChar: uni039C
Encoding: 924 924 364
Width: 778
Flags: W
TopAccentHorizontal: 389
LayerCount: 2
Fore
SplineSet
659 689 m 1
 716 0 l 1
 624 0 l 1
 600 311 l 2
 591 419 584 535 583 592 c 1
 434 78 l 1
 345 78 l 1
 188 593 l 1
 188 512 183 405 175 304 c 2
 152 0 l 1
 62 0 l 1
 119 689 l 1
 247 689 l 1
 392 188 l 1
 530 689 l 1
 659 689 l 1
EndSplineSet
EndChar

StartChar: uni039D
Encoding: 925 925 365
Width: 683
Flags: W
TopAccentHorizontal: 342
LayerCount: 2
Fore
SplineSet
583 689 m 1
 583 0 l 1
 456 0 l 1
 176 585 l 1
 181 528 189 444 189 316 c 2
 189 0 l 1
 100 0 l 1
 100 689 l 1
 224 689 l 1
 507 103 l 1
 505 119 494 229 494 313 c 2
 494 689 l 1
 583 689 l 1
EndSplineSet
EndChar

StartChar: uni039E
Encoding: 926 926 366
Width: 511
Flags: W
TopAccentHorizontal: 251
LayerCount: 2
Fore
SplineSet
458 689 m 1
 445 603 l 1
 45 603 l 1
 45 689 l 1
 458 689 l 1
397 392 m 1
 397 307 l 1
 106 307 l 1
 106 392 l 1
 397 392 l 1
466 87 m 1
 466 0 l 1
 45 0 l 1
 45 87 l 1
 466 87 l 1
EndSplineSet
EndChar

StartChar: uni039F
Encoding: 927 927 367
Width: 692
Flags: W
TopAccentHorizontal: 346
LayerCount: 2
Fore
SplineSet
346 701 m 0
 519 701 637 576 637 344 c 0
 637 116 519 -12 346 -12 c 0
 174 -12 55 112 55 343 c 0
 55 570 174 701 346 701 c 0
346 623 m 0
 231 623 156 542 156 343 c 0
 156 144 234 66 346 66 c 0
 462 66 536 144 536 344 c 0
 536 542 464 623 346 623 c 0
EndSplineSet
EndChar

StartChar: uni03A0
Encoding: 928 928 368
Width: 675
Flags: W
TopAccentHorizontal: 337
LayerCount: 2
Fore
SplineSet
575 689 m 1
 575 0 l 1
 480 0 l 1
 480 608 l 1
 195 608 l 1
 195 0 l 1
 100 0 l 1
 100 689 l 1
 575 689 l 1
EndSplineSet
EndChar

StartChar: uni03A1
Encoding: 929 929 369
Width: 581
Flags: W
TopAccentHorizontal: 294
LayerCount: 2
Fore
SplineSet
281 689 m 2
 447 689 549 621 549 476 c 0
 549 318 434 253 282 253 c 2
 195 253 l 1
 195 0 l 1
 100 0 l 1
 100 689 l 1
 281 689 l 2
278 328 m 2
 380 328 448 358 448 475 c 0
 448 578 382 615 280 615 c 2
 195 615 l 1
 195 328 l 1
 278 328 l 2
EndSplineSet
EndChar

StartChar: uni03A3
Encoding: 931 931 370
Width: 503
Flags: W
TopAccentHorizontal: 251
LayerCount: 2
Fore
SplineSet
463 689 m 1
 463 611 l 1
 147 611 l 1
 347 372 l 1
 347 310 l 1
 147 78 l 1
 463 78 l 1
 463 0 l 1
 40 0 l 1
 40 78 l 1
 262 339 l 1
 40 611 l 1
 40 689 l 1
 463 689 l 1
EndSplineSet
EndChar

StartChar: uni03A4
Encoding: 932 932 371
Width: 517
Flags: W
TopAccentHorizontal: 261
LayerCount: 2
Fore
SplineSet
507 689 m 1
 497 608 l 1
 306 608 l 1
 306 0 l 1
 211 0 l 1
 211 608 l 1
 15 608 l 1
 15 689 l 1
 507 689 l 1
EndSplineSet
EndChar

StartChar: uni03A5
Encoding: 933 933 372
Width: 550
Flags: W
TopAccentHorizontal: 275
LayerCount: 2
Fore
SplineSet
545 689 m 1
 323 265 l 1
 323 0 l 1
 227 0 l 1
 227 264 l 1
 5 689 l 1
 110 689 l 1
 278 348 l 1
 446 689 l 1
 545 689 l 1
EndSplineSet
EndChar

StartChar: uni03A6
Encoding: 934 934 373
Width: 810
Flags: W
TopAccentHorizontal: 405
LayerCount: 2
Fore
SplineSet
775 347 m 0
 775 169 649 73 451 68 c 1
 451 0 l 1
 359 0 l 1
 359 68 l 1
 146 77 35 183 35 345 c 0
 35 518 161 614 359 619 c 1
 359 689 l 1
 451 689 l 1
 451 619 l 1
 664 610 775 504 775 347 c 0
133 345 m 0
 133 215 210 145 361 139 c 1
 361 549 l 1
 208 540 133 475 133 345 c 0
449 138 m 1
 602 147 677 212 677 347 c 0
 677 472 600 542 449 548 c 1
 449 138 l 1
EndSplineSet
EndChar

StartChar: uni03A7
Encoding: 935 935 374
Width: 540
Flags: W
TopAccentHorizontal: 270
LayerCount: 2
Fore
SplineSet
325 372 m 1
 535 0 l 1
 427 0 l 1
 268 305 l 1
 107 0 l 1
 5 0 l 1
 212 367 l 1
 23 689 l 1
 131 689 l 1
 270 430 l 1
 410 689 l 1
 512 689 l 1
 325 372 l 1
EndSplineSet
EndChar

StartChar: uni03A8
Encoding: 936 936 375
Width: 694
Flags: W
TopAccentHorizontal: 347
LayerCount: 2
Fore
SplineSet
565 689 m 1
 659 689 l 1
 659 429 l 2
 659 280 561 206 394 192 c 1
 394 0 l 1
 299 0 l 1
 299 193 l 1
 122 207 35 285 35 426 c 2
 35 689 l 1
 129 689 l 1
 129 433 l 2
 129 327 180 277 301 269 c 1
 301 689 l 1
 392 689 l 1
 392 269 l 1
 509 278 565 327 565 433 c 2
 565 689 l 1
EndSplineSet
EndChar

StartChar: uni03A9
Encoding: 937 937 376
Width: 692
Flags: W
TopAccentHorizontal: 346
LayerCount: 2
Fore
SplineSet
346 701 m 0
 523 701 637 576 637 354 c 0
 637 214 606 136 505 80 c 1
 615 80 l 1
 615 0 l 1
 400 0 l 1
 400 80 l 1
 494 112 536 196 536 354 c 0
 536 542 464 623 346 623 c 0
 231 623 156 542 156 353 c 0
 156 182 205 111 291 80 c 1
 291 0 l 1
 76 0 l 1
 76 80 l 1
 180 80 l 1
 90 128 55 208 55 353 c 0
 55 570 174 701 346 701 c 0
EndSplineSet
EndChar

StartChar: uni03AA
Encoding: 938 938 377
Width: 295
Flags: W
LayerCount: 2
Fore
SplineSet
42 894 m 0
 74 894 99 869 99 837 c 0
 99 805 74 780 42 780 c 0
 9 780 -16 805 -16 837 c 0
 -16 869 9 894 42 894 c 0
251 894 m 0
 284 894 309 869 309 837 c 0
 309 805 284 780 251 780 c 0
 219 780 194 805 194 837 c 0
 194 869 219 894 251 894 c 0
195 689 m 1
 195 0 l 1
 100 0 l 1
 100 689 l 1
 195 689 l 1
EndSplineSet
EndChar

StartChar: uni03AB
Encoding: 939 939 378
Width: 550
Flags: W
LayerCount: 2
Fore
SplineSet
170 894 m 0
 202 894 227 869 227 837 c 0
 227 805 202 780 170 780 c 0
 137 780 112 805 112 837 c 0
 112 869 137 894 170 894 c 0
379 894 m 0
 412 894 437 869 437 837 c 0
 437 805 412 780 379 780 c 0
 347 780 322 805 322 837 c 0
 322 869 347 894 379 894 c 0
545 689 m 1
 323 265 l 1
 323 0 l 1
 227 0 l 1
 227 264 l 1
 5 689 l 1
 110 689 l 1
 278 348 l 1
 446 689 l 1
 545 689 l 1
EndSplineSet
EndChar

StartChar: uni03AC
Encoding: 940 940 379
Width: 593
Flags: W
LayerCount: 2
Fore
SplineSet
246 807 m 1
 344 799 l 1
 309 596 l 1
 243 596 l 1
 246 807 l 1
258 539 m 0
 345 539 400 497 421 376 c 1
 447 527 l 1
 531 527 l 1
 476 250 l 1
 502 116 l 2
 507 89 518 74 548 63 c 1
 516 -13 l 1
 472 -6 431 25 422 82 c 2
 413 138 l 1
 386 55 339 -12 249 -12 c 0
 129 -12 57 78 57 259 c 0
 57 422 125 539 258 539 c 0
263 466 m 0
 194 466 155 394 155 259 c 0
 155 122 191 61 259 61 c 0
 307 61 363 94 396 267 c 1
 369 424 327 466 263 466 c 0
EndSplineSet
EndChar

StartChar: uni03AD
Encoding: 941 941 380
Width: 462
Flags: W
LayerCount: 2
Fore
SplineSet
222 807 m 1
 320 799 l 1
 285 596 l 1
 219 596 l 1
 222 807 l 1
257 539 m 0
 331 539 383 521 428 490 c 1
 384 435 l 1
 348 456 315 467 266 467 c 0
 202 467 167 439 167 388 c 0
 167 341 207 311 271 311 c 2
 332 311 l 1
 321 239 l 1
 265 239 l 2
 181 239 150 213 150 151 c 0
 150 99 190 62 263 62 c 0
 319 62 362 79 404 108 c 1
 447 50 l 1
 398 11 331 -12 258 -12 c 0
 135 -12 51 45 51 147 c 0
 51 233 104 271 183 281 c 1
 112 295 72 331 72 395 c 0
 72 484 145 539 257 539 c 0
EndSplineSet
EndChar

StartChar: uni03AE
Encoding: 942 942 381
Width: 588
Flags: W
LayerCount: 2
Fore
SplineSet
362 799 m 1
 327 596 l 1
 261 596 l 1
 264 807 l 1
 362 799 l 1
349 539 m 0
 445 539 502 478 502 374 c 2
 502 -213 l 1
 410 -202 l 1
 410 365 l 2
 410 443 378 467 327 467 c 0
 268 467 228 430 193 374 c 1
 193 0 l 1
 101 0 l 1
 101 357 l 2
 101 434 89 483 75 527 c 1
 159 539 l 1
 169 518 179 490 186 446 c 1
 222 502 278 539 349 539 c 0
EndSplineSet
EndChar

StartChar: uni03AF
Encoding: 943 943 382
Width: 279
Flags: W
LayerCount: 2
Fore
SplineSet
102 807 m 1
 200 799 l 1
 165 596 l 1
 99 596 l 1
 102 807 l 1
178 527 m 1
 178 141 l 2
 178 89 191 72 224 57 c 1
 195 -12 l 1
 116 9 86 46 86 130 c 2
 86 527 l 1
 178 527 l 1
EndSplineSet
EndChar

StartChar: uni03B0
Encoding: 944 944 383
Width: 567
Flags: W
LayerCount: 2
Fore
SplineSet
261 913 m 1
 346 906 l 1
 316 730 l 1
 259 730 l 1
 261 913 l 1
180 738 m 0
 212 738 237 713 237 681 c 0
 237 649 212 624 180 624 c 0
 147 624 122 649 122 681 c 0
 122 713 147 738 180 738 c 0
389 738 m 0
 422 738 447 713 447 681 c 0
 447 649 422 624 389 624 c 0
 357 624 332 649 332 681 c 0
 332 713 357 738 389 738 c 0
471 527 m 1
 487 440 497 358 497 255 c 0
 497 66 377 -12 265 -12 c 0
 167 -12 86 48 86 163 c 2
 86 527 l 1
 178 527 l 1
 178 171 l 2
 178 97 211 62 269 62 c 0
 328 62 404 106 404 263 c 0
 404 338 397 428 378 527 c 1
 471 527 l 1
EndSplineSet
EndChar

StartChar: uni03B1
Encoding: 945 945 384
Width: 593
Flags: W
TopAccentHorizontal: 302
LayerCount: 2
Fore
SplineSet
258 539 m 0
 345 539 400 497 421 376 c 1
 447 527 l 1
 531 527 l 1
 476 250 l 1
 502 116 l 2
 507 89 518 74 548 63 c 1
 516 -13 l 1
 472 -6 431 25 422 82 c 2
 413 138 l 1
 386 55 339 -12 249 -12 c 0
 129 -12 57 78 57 259 c 0
 57 422 125 539 258 539 c 0
263 466 m 0
 194 466 155 394 155 259 c 0
 155 122 191 61 259 61 c 0
 307 61 363 94 396 267 c 1
 369 424 327 466 263 466 c 0
EndSplineSet
EndChar

StartChar: uni03B2
Encoding: 946 946 385
Width: 603
Flags: W
TopAccentHorizontal: 291
LayerCount: 2
Fore
SplineSet
354 404 m 1
 448 395 557 354 557 203 c 0
 557 71 453 -12 335 -12 c 0
 282 -12 231 5 187 39 c 1
 187 -201 l 1
 95 -214 l 1
 95 541 l 2
 95 672 173 750 301 750 c 0
 415 750 503 680 503 566 c 0
 503 468 438 416 354 404 c 1
327 62 m 0
 402 62 463 110 463 204 c 0
 463 309 406 363 290 363 c 2
 238 363 l 1
 248 433 l 1
 297 433 l 2
 363 433 416 471 416 562 c 0
 416 642 368 678 302 678 c 0
 226 678 187 634 187 541 c 2
 187 110 l 1
 222 77 267 62 327 62 c 0
EndSplineSet
EndChar

StartChar: uni03B3
Encoding: 947 947 386
Width: 482
Flags: W
TopAccentHorizontal: 234
LayerCount: 2
Fore
SplineSet
82 538 m 1
 129 476 198 334 240 106 c 1
 379 538 l 1
 472 519 l 1
 282 22 l 2
 253 -53 251 -112 267 -202 c 1
 194 -216 l 1
 154 -137 153 -77 190 10 c 1
 117 273 64 428 -5 505 c 1
 82 538 l 1
EndSplineSet
EndChar

StartChar: uni03B4
Encoding: 948 948 387
Width: 579
Flags: W
TopAccentHorizontal: 288
LayerCount: 2
Fore
SplineSet
328 501 m 0
 455 447 522 382 522 243 c 0
 522 107 437 -12 289 -12 c 0
 150 -12 57 82 57 240 c 0
 57 355 120 427 208 471 c 1
 134 508 112 552 112 608 c 0
 112 683 173 750 288 750 c 0
 366 750 418 729 466 696 c 1
 419 639 l 1
 378 667 344 678 299 678 c 0
 232 678 207 646 207 608 c 0
 207 563 229 543 328 501 c 0
289 62 m 0
 375 62 423 125 423 243 c 0
 423 349 385 398 265 446 c 1
 196 403 156 343 156 240 c 0
 156 126 199 62 289 62 c 0
EndSplineSet
EndChar

StartChar: uni03B5
Encoding: 949 949 388
Width: 468
Flags: W
TopAccentHorizontal: 263
LayerCount: 2
Fore
SplineSet
263 539 m 0
 337 539 389 521 434 490 c 1
 390 435 l 1
 354 456 321 467 272 467 c 0
 208 467 173 439 173 388 c 0
 173 341 213 311 277 311 c 2
 338 311 l 1
 327 239 l 1
 271 239 l 2
 187 239 156 213 156 151 c 0
 156 99 196 62 269 62 c 0
 325 62 368 79 410 108 c 1
 453 50 l 1
 404 11 337 -12 264 -12 c 0
 141 -12 57 45 57 147 c 0
 57 233 110 271 189 281 c 1
 118 295 78 331 78 395 c 0
 78 484 151 539 263 539 c 0
EndSplineSet
EndChar

StartChar: uni03B6
Encoding: 950 950 389
Width: 388
Flags: W
TopAccentHorizontal: 230
LayerCount: 2
Fore
SplineSet
410 739 m 1
 422 678 l 1
 213 504 138 375 138 253 c 0
 138 158 176 128 264 95 c 0
 346 64 407 34 407 -45 c 0
 407 -120 357 -168 249 -215 c 1
 210 -151 l 1
 267 -128 308 -103 308 -55 c 0
 308 -15 285 -1 204 30 c 0
 100 70 40 126 40 253 c 0
 40 388 155 570 333 678 c 1
 306 671 248 665 183 665 c 2
 38 665 l 1
 49 739 l 1
 410 739 l 1
EndSplineSet
EndChar

StartChar: uni03B7
Encoding: 951 951 390
Width: 592
Flags: W
TopAccentHorizontal: 288
LayerCount: 2
Fore
SplineSet
349 539 m 0
 445 539 502 478 502 374 c 2
 502 -213 l 1
 410 -202 l 1
 410 365 l 2
 410 443 378 467 327 467 c 0
 268 467 228 430 193 374 c 1
 193 0 l 1
 101 0 l 1
 101 357 l 2
 101 434 89 483 75 527 c 1
 159 539 l 1
 169 518 179 490 186 446 c 1
 222 502 278 539 349 539 c 0
EndSplineSet
EndChar

StartChar: uni03B8
Encoding: 952 952 391
Width: 574
Flags: W
TopAccentHorizontal: 288
LayerCount: 2
Fore
SplineSet
288 750 m 0
 438 750 517 610 517 372 c 0
 517 131 436 -12 287 -12 c 0
 137 -12 57 126 57 371 c 0
 57 605 138 750 288 750 c 0
288 675 m 0
 200 675 157 598 152 407 c 1
 422 407 l 1
 417 598 375 675 288 675 c 0
287 63 m 0
 377 63 416 137 421 337 c 1
 153 337 l 1
 158 135 201 63 287 63 c 0
EndSplineSet
EndChar

StartChar: uni03B9
Encoding: 953 953 392
Width: 283
Flags: W
TopAccentHorizontal: 136
LayerCount: 2
Fore
SplineSet
182 527 m 1
 182 141 l 2
 182 89 195 72 228 57 c 1
 199 -12 l 1
 120 9 90 46 90 130 c 2
 90 527 l 1
 182 527 l 1
EndSplineSet
EndChar

StartChar: uni03BA
Encoding: 954 954 393
Width: 525
Flags: W
TopAccentHorizontal: 285
LayerCount: 2
Fore
SplineSet
159 539 m 1
 176 503 193 451 193 339 c 2
 193 0 l 1
 101 0 l 1
 101 357 l 2
 101 434 89 483 75 527 c 1
 159 539 l 1
496 499 m 1
 302 285 l 1
 448 113 l 2
 474 82 496 67 525 56 c 1
 496 -12 l 1
 445 -6 420 16 379 65 c 2
 197 282 l 1
 428 539 l 1
 496 499 l 1
EndSplineSet
EndChar

StartChar: uni03BB
Encoding: 955 955 394
Width: 490
Flags: W
TopAccentHorizontal: 222
LayerCount: 2
Fore
SplineSet
82 752 m 1
 232 724 283 662 321 500 c 0
 394 190 433 108 505 22 c 1
 419 -12 l 1
 348 84 303 171 248 457 c 1
 109 -12 l 1
 20 10 l 1
 188 527 l 1
 229 527 l 1
 207 619 173 662 68 681 c 1
 82 752 l 1
EndSplineSet
EndChar

StartChar: uni03BC
Encoding: 956 956 395
Width: 588
Flags: W
TopAccentHorizontal: 304
LayerCount: 2
Fore
SplineSet
487 180 m 2
 487 101 499 43 513 0 c 1
 427 -12 l 1
 410 26 407 51 403 85 c 1
 403 86 l 1
 375 38 327 -12 265 -12 c 0
 219 -12 191 2 169 38 c 1
 181 1 186 -33 186 -96 c 2
 186 -202 l 1
 95 -213 l 1
 95 527 l 1
 187 527 l 1
 187 156 l 2
 187 90 219 67 266 67 c 0
 313 67 359 92 395 163 c 1
 395 527 l 1
 487 527 l 1
 487 180 l 2
EndSplineSet
EndChar

StartChar: uni03BD
Encoding: 957 957 396
Width: 482
Flags: W
TopAccentHorizontal: 234
LayerCount: 2
Fore
SplineSet
83 538 m 1
 133 473 185 331 238 78 c 1
 382 538 l 1
 472 519 l 1
 291 0 l 1
 180 0 l 1
 111 271 64 428 -5 505 c 1
 83 538 l 1
EndSplineSet
EndChar

StartChar: uni03BE
Encoding: 958 958 397
Width: 437
Flags: W
TopAccentHorizontal: 248
LayerCount: 2
Fore
SplineSet
274 750 m 0
 347 750 400 732 447 695 c 1
 401 639 l 1
 364 665 332 678 286 678 c 0
 212 678 183 638 183 581 c 0
 183 516 223 478 287 478 c 2
 357 478 l 1
 345 402 l 1
 279 402 l 2
 199 402 149 347 149 264 c 0
 149 176 180 149 289 104 c 0
 395 60 447 31 447 -46 c 0
 447 -120 397 -168 289 -215 c 1
 250 -151 l 1
 307 -128 348 -103 348 -57 c 0
 348 -15 325 -1 234 37 c 0
 125 83 50 125 50 262 c 0
 50 377 128 432 209 443 c 1
 137 463 88 508 88 586 c 0
 88 680 160 750 274 750 c 0
EndSplineSet
EndChar

StartChar: uni03BF
Encoding: 959 959 398
Width: 584
Flags: W
TopAccentHorizontal: 293
LayerCount: 2
Fore
SplineSet
293 539 m 0
 443 539 527 431 527 264 c 0
 527 101 441 -12 292 -12 c 0
 142 -12 57 96 57 263 c 0
 57 426 143 539 293 539 c 0
293 465 m 0
 205 465 156 401 156 263 c 0
 156 126 204 62 292 62 c 0
 380 62 428 126 428 264 c 0
 428 401 380 465 293 465 c 0
EndSplineSet
EndChar

StartChar: uni03C0
Encoding: 960 960 399
Width: 595
Flags: W
TopAccentHorizontal: 290
LayerCount: 2
Fore
SplineSet
565 452 m 1
 486 452 l 1
 486 140 l 2
 486 88 499 72 532 57 c 1
 503 -12 l 1
 421 8 394 45 394 129 c 2
 394 452 l 1
 212 451 l 1
 212 0 l 1
 120 0 l 1
 120 451 l 1
 77 451 64 449 31 440 c 1
 15 512 l 1
 51 525 73 527 122 527 c 2
 565 527 l 1
 565 452 l 1
EndSplineSet
EndChar

StartChar: uni03C1
Encoding: 961 961 400
Width: 584
Flags: W
TopAccentHorizontal: 300
LayerCount: 2
Fore
SplineSet
300 539 m 0
 446 539 522 440 522 264 c 0
 522 115 451 -12 315 -12 c 0
 259 -12 211 6 177 54 c 1
 177 -202 l 1
 85 -213 l 1
 85 271 l 2
 85 448 159 539 300 539 c 0
293 63 m 0
 377 63 423 133 423 264 c 0
 423 405 381 467 302 467 c 0
 208 467 177 392 177 256 c 2
 177 133 l 1
 203 86 245 63 293 63 c 0
EndSplineSet
EndChar

StartChar: uni03C2
Encoding: 962 962 401
Width: 468
Flags: W
TopAccentHorizontal: 252
LayerCount: 2
Fore
SplineSet
287 539 m 0
 349 539 399 523 448 482 c 1
 403 422 l 1
 368 450 335 463 291 463 c 0
 208 463 155 399 155 272 c 0
 155 166 185 138 289 96 c 0
 369 64 430 34 430 -45 c 0
 430 -120 380 -168 272 -215 c 1
 234 -153 l 1
 290 -128 331 -103 331 -55 c 0
 331 -15 307 -2 229 28 c 0
 124 68 57 125 57 272 c 0
 57 440 144 539 287 539 c 0
EndSplineSet
EndChar

StartChar: uni03C3
Encoding: 963 963 402
Width: 587
Flags: W
TopAccentHorizontal: 308
LayerCount: 2
Fore
SplineSet
560 527 m 1
 560 453 l 1
 434 462 l 1
 485 433 527 363 527 264 c 0
 527 101 441 -12 292 -12 c 0
 142 -12 57 96 57 263 c 0
 57 422 139 533 317 533 c 0
 396 533 492 530 560 527 c 1
292 62 m 0
 380 62 428 126 428 264 c 0
 428 366 393 433 356 464 c 1
 351 464 l 2
 202 464 156 408 156 263 c 0
 156 126 204 62 292 62 c 0
EndSplineSet
EndChar

StartChar: uni03C4
Encoding: 964 964 403
Width: 459
Flags: W
TopAccentHorizontal: 225
LayerCount: 2
Fore
SplineSet
455 452 m 1
 271 452 l 1
 271 141 l 2
 271 89 284 72 317 57 c 1
 288 -12 l 1
 206 8 179 45 179 129 c 2
 179 452 l 1
 110 452 l 2
 57 451 44 449 11 440 c 1
 -5 512 l 1
 31 525 53 527 102 527 c 2
 455 527 l 1
 455 452 l 1
EndSplineSet
EndChar

StartChar: uni03C5
Encoding: 965 965 404
Width: 571
Flags: W
TopAccentHorizontal: 296
LayerCount: 2
Fore
SplineSet
475 527 m 1
 491 440 501 358 501 255 c 0
 501 66 381 -12 269 -12 c 0
 171 -12 90 48 90 163 c 2
 90 527 l 1
 182 527 l 1
 182 171 l 2
 182 97 215 62 273 62 c 0
 332 62 408 106 408 263 c 0
 408 338 401 428 382 527 c 1
 475 527 l 1
EndSplineSet
EndChar

StartChar: uni03C6
Encoding: 966 966 405
Width: 734
Flags: W
TopAccentHorizontal: 368
LayerCount: 2
Fore
SplineSet
672 268 m 0
 672 85 585 0 405 -11 c 1
 405 -202 l 1
 317 -213 l 1
 317 -11 l 1
 139 -1 65 88 65 243 c 0
 65 354 96 449 125 527 c 1
 217 527 l 1
 188 453 157 360 157 250 c 0
 157 120 209 68 317 58 c 1
 317 338 l 2
 317 470 383 539 487 539 c 0
 601 539 672 463 672 268 c 0
405 58 m 1
 537 69 578 125 578 266 c 0
 578 420 551 467 489 467 c 0
 443 467 405 448 405 334 c 2
 405 58 l 1
EndSplineSet
EndChar

StartChar: uni03C7
Encoding: 967 967 406
Width: 466
Flags: W
TopAccentHorizontal: 227
LayerCount: 2
Fore
SplineSet
283 186 m 1
 459 -199 l 1
 366 -211 l 1
 232 107 l 1
 90 -210 l 1
 -1 -199 l 1
 184 187 l 1
 102 369 59 436 -5 505 c 1
 84 538 l 1
 136 479 177 411 235 257 c 1
 348 538 l 1
 443 527 l 1
 283 186 l 1
EndSplineSet
EndChar

StartChar: uni03C8
Encoding: 968 968 407
Width: 754
Flags: W
TopAccentHorizontal: 382
LayerCount: 2
Fore
SplineSet
684 255 m 0
 684 73 579 -1 422 -11 c 1
 422 -202 l 1
 334 -213 l 1
 334 -11 l 1
 156 -3 80 75 80 202 c 2
 80 527 l 1
 172 527 l 1
 172 209 l 2
 172 119 213 70 334 61 c 1
 334 527 l 1
 422 527 l 1
 422 61 l 1
 540 72 591 135 591 262 c 0
 591 337 584 428 565 527 c 1
 658 527 l 1
 674 440 684 358 684 255 c 0
EndSplineSet
EndChar

StartChar: uni03C9
Encoding: 969 969 408
Width: 778
Flags: W
TopAccentHorizontal: 389
LayerCount: 2
Fore
SplineSet
651 527 m 1
 681 454 713 361 713 239 c 0
 713 62 628 -12 527 -12 c 0
 455 -12 403 25 390 105 c 1
 372 24 326 -12 244 -12 c 0
 148 -12 65 57 65 239 c 0
 65 361 95 452 126 527 c 1
 217 527 l 1
 175 415 158 335 158 238 c 0
 158 114 193 62 258 62 c 0
 307 62 345 81 345 181 c 2
 345 355 l 1
 433 367 l 1
 433 181 l 2
 433 94 466 62 517 62 c 0
 568 62 620 94 620 240 c 0
 620 335 601 415 559 527 c 1
 651 527 l 1
EndSplineSet
EndChar

StartChar: uni03CA
Encoding: 970 970 409
Width: 279
Flags: W
LayerCount: 2
Fore
SplineSet
27 768 m 0
 59 768 84 743 84 711 c 0
 84 679 59 654 27 654 c 0
 -6 654 -31 679 -31 711 c 0
 -31 743 -6 768 27 768 c 0
236 768 m 0
 269 768 294 743 294 711 c 0
 294 679 269 654 236 654 c 0
 204 654 179 679 179 711 c 0
 179 743 204 768 236 768 c 0
178 527 m 1
 178 141 l 2
 178 89 191 72 224 57 c 1
 195 -12 l 1
 116 9 86 46 86 130 c 2
 86 527 l 1
 178 527 l 1
EndSplineSet
EndChar

StartChar: uni03CB
Encoding: 971 971 410
Width: 567
Flags: W
LayerCount: 2
Fore
SplineSet
180 768 m 0
 212 768 237 743 237 711 c 0
 237 679 212 654 180 654 c 0
 147 654 122 679 122 711 c 0
 122 743 147 768 180 768 c 0
389 768 m 0
 422 768 447 743 447 711 c 0
 447 679 422 654 389 654 c 0
 357 654 332 679 332 711 c 0
 332 743 357 768 389 768 c 0
471 527 m 1
 487 440 497 358 497 255 c 0
 497 66 377 -12 265 -12 c 0
 167 -12 86 48 86 163 c 2
 86 527 l 1
 178 527 l 1
 178 171 l 2
 178 97 211 62 269 62 c 0
 328 62 404 106 404 263 c 0
 404 338 397 428 378 527 c 1
 471 527 l 1
EndSplineSet
EndChar

StartChar: uni03CC
Encoding: 972 972 411
Width: 584
Flags: W
LayerCount: 2
Fore
SplineSet
262 807 m 1
 360 799 l 1
 325 596 l 1
 259 596 l 1
 262 807 l 1
293 539 m 0
 443 539 527 431 527 264 c 0
 527 101 441 -12 292 -12 c 0
 142 -12 57 96 57 263 c 0
 57 426 143 539 293 539 c 0
293 465 m 0
 205 465 156 401 156 263 c 0
 156 126 204 62 292 62 c 0
 380 62 428 126 428 264 c 0
 428 401 380 465 293 465 c 0
EndSplineSet
EndChar

StartChar: uni03CD
Encoding: 973 973 412
Width: 567
Flags: W
LayerCount: 2
Fore
SplineSet
255 807 m 1
 353 799 l 1
 318 596 l 1
 252 596 l 1
 255 807 l 1
471 527 m 1
 487 440 497 358 497 255 c 0
 497 66 377 -12 265 -12 c 0
 167 -12 86 48 86 163 c 2
 86 527 l 1
 178 527 l 1
 178 171 l 2
 178 97 211 62 269 62 c 0
 328 62 404 106 404 263 c 0
 404 338 397 428 378 527 c 1
 471 527 l 1
EndSplineSet
EndChar

StartChar: uni03CE
Encoding: 974 974 413
Width: 778
Flags: W
LayerCount: 2
Fore
SplineSet
359 807 m 1
 457 799 l 1
 422 596 l 1
 356 596 l 1
 359 807 l 1
651 527 m 1
 681 454 713 361 713 239 c 0
 713 62 628 -12 527 -12 c 0
 455 -12 403 25 390 105 c 1
 372 24 326 -12 244 -12 c 0
 148 -12 65 57 65 239 c 0
 65 361 95 452 126 527 c 1
 217 527 l 1
 175 415 158 335 158 238 c 0
 158 114 193 62 258 62 c 0
 307 62 345 81 345 181 c 2
 345 355 l 1
 433 367 l 1
 433 181 l 2
 433 94 466 62 517 62 c 0
 568 62 620 94 620 240 c 0
 620 335 601 415 559 527 c 1
 651 527 l 1
EndSplineSet
EndChar

StartChar: uni03D0
Encoding: 976 976 414
Width: 568
Flags: W
TopAccentHorizontal: 289
LayerCount: 2
Fore
SplineSet
346 437 m 0
 483 437 518 332 518 224 c 0
 518 104 438 -12 289 -12 c 0
 120 -12 60 121 60 345 c 0
 60 613 192 750 330 750 c 0
 448 750 480 682 480 628 c 0
 480 542 419 466 298 429 c 1
 320 435 333 437 346 437 c 0
327 680 m 0
 251 680 177 613 162 414 c 1
 199 430 l 2
 322 483 386 532 386 621 c 0
 386 663 362 680 327 680 c 0
288 62 m 0
 371 62 417 127 417 220 c 0
 417 318 396 383 295 383 c 0
 265 383 232 373 196 356 c 2
 159 338 l 1
 157 165 185 62 288 62 c 0
EndSplineSet
EndChar

StartChar: uni03D1
Encoding: 977 977 415
Width: 538
Flags: W
TopAccentHorizontal: 241
LayerCount: 2
Fore
SplineSet
523 478 m 1
 522 404 l 1
 487 404 l 1
 487 402 l 2
 487 131 412 -12 239 -12 c 0
 141 -12 60 48 60 163 c 2
 60 349 l 1
 152 349 l 1
 152 171 l 2
 152 97 183 61 243 62 c 0
 340 63 386 152 386 402 c 2
 386 404 l 1
 267 404 l 2
 107 404 40 477 40 575 c 0
 40 672 121 750 236 750 c 0
 389 750 466 643 483 478 c 1
 523 478 l 1
267 476 m 2
 383 477 l 1
 371 612 324 676 238 676 c 0
 172 676 132 634 132 577 c 0
 132 506 184 475 267 476 c 2
EndSplineSet
EndChar

StartChar: uni03D2
Encoding: 978 978 416
Width: 586
Flags: W
TopAccentHorizontal: 303
LayerCount: 2
Fore
SplineSet
227 0 m 1
 227 264 l 1
 5 689 l 1
 110 689 l 1
 278 348 l 1
 388 587 l 2
 425 668 465 701 536 701 c 0
 580 701 612 684 641 661 c 1
 605 607 l 1
 589 619 569 629 542 629 c 0
 511 629 493 614 467 561 c 2
 323 265 l 1
 323 0 l 1
 227 0 l 1
EndSplineSet
EndChar

StartChar: uni03D5
Encoding: 981 981 417
Width: 628
Flags: W
TopAccentHorizontal: 314
LayerCount: 2
Fore
SplineSet
582 265 m 0
 582 103 494 11 360 3 c 1
 360 -202 l 1
 268 -213 l 1
 268 4 l 1
 125 13 46 111 46 263 c 0
 46 425 135 517 268 524 c 1
 268 738 l 1
 360 748 l 1
 360 523 l 1
 504 514 582 416 582 265 c 0
145 263 m 0
 145 150 185 83 271 76 c 1
 271 453 l 1
 184 443 145 379 145 263 c 0
357 75 m 1
 442 85 483 150 483 265 c 0
 483 376 441 444 357 451 c 1
 357 75 l 1
EndSplineSet
EndChar

StartChar: uni03D6
Encoding: 982 982 418
Width: 728
Flags: W
TopAccentHorizontal: 359
LayerCount: 2
Fore
SplineSet
698 527 m 1
 698 452 l 1
 597 452 l 1
 636 391 668 317 668 219 c 0
 668 62 588 -12 492 -12 c 0
 430 -12 378 25 365 105 c 1
 347 24 301 -12 229 -12 c 0
 138 -12 60 57 60 219 c 0
 60 317 91 390 131 451 c 1
 125 451 l 2
 82 451 69 449 36 440 c 1
 20 512 l 1
 56 525 94 527 183 527 c 2
 698 527 l 1
575 220 m 0
 575 308 552 375 510 452 c 1
 216 451 l 1
 174 375 153 307 153 218 c 0
 153 114 183 62 241 62 c 0
 282 62 320 81 320 181 c 2
 320 325 l 1
 408 337 l 1
 408 181 l 2
 408 94 441 62 482 62 c 0
 528 62 575 94 575 220 c 0
EndSplineSet
EndChar

StartChar: uni03D7
Encoding: 983 983 419
Width: 600
Flags: W
TopAccentHorizontal: 300
LayerCount: 2
Fore
SplineSet
499 141 m 2
 499 89 512 69 545 55 c 1
 545 -57 l 2
 545 -160 485 -213 394 -213 c 0
 341 -213 304 -194 279 -175 c 1
 315 -117 l 1
 338 -130 356 -139 389 -139 c 0
 428 -139 453 -118 453 -65 c 2
 453 26 l 1
 418 50 405 86 405 144 c 0
 405 203 424 388 428 423 c 1
 200 -8 l 1
 101 22 l 1
 101 386 l 2
 101 438 88 455 55 470 c 1
 86 539 l 1
 165 518 195 471 195 383 c 0
 195 324 176 139 172 104 c 1
 400 535 l 1
 499 505 l 1
 499 141 l 2
EndSplineSet
EndChar

StartChar: uni03F0
Encoding: 1008 1008 420
Width: 600
Flags: W
TopAccentHorizontal: 285
LayerCount: 2
Fore
SplineSet
499 141 m 2
 499 89 512 72 545 57 c 1
 514 -12 l 1
 435 9 405 56 405 144 c 0
 405 203 424 388 428 423 c 1
 200 -8 l 1
 101 22 l 1
 101 386 l 2
 101 438 88 455 55 470 c 1
 86 539 l 1
 165 518 195 471 195 383 c 0
 195 324 176 139 172 104 c 1
 400 535 l 1
 499 505 l 1
 499 141 l 2
EndSplineSet
EndChar

StartChar: uni03F1
Encoding: 1009 1009 421
Width: 584
Flags: W
TopAccentHorizontal: 304
LayerCount: 2
Fore
SplineSet
315 -100 m 0
 409 -114 447 -140 462 -184 c 1
 377 -216 l 1
 363 -188 349 -182 256 -167 c 0
 141 -149 85 -106 85 13 c 2
 85 271 l 2
 85 448 159 539 300 539 c 0
 446 539 522 440 522 289 c 0
 522 152 451 22 315 22 c 0
 259 22 211 43 177 91 c 1
 177 13 l 2
 177 -67 203 -83 315 -100 c 0
302 467 m 0
 208 467 177 392 177 256 c 2
 177 170 l 1
 203 122 245 96 293 96 c 0
 377 96 423 170 423 289 c 0
 423 405 381 467 302 467 c 0
EndSplineSet
EndChar

StartChar: uni03F2
Encoding: 1010 1010 422
Width: 511
Flags: W
TopAccentHorizontal: 287
LayerCount: 2
Fore
SplineSet
307 539 m 0
 376 539 426 523 481 482 c 1
 437 424 l 1
 395 450 362 463 311 463 c 0
 218 463 156 398 156 261 c 0
 156 123 218 66 311 66 c 0
 365 66 396 80 439 105 c 1
 481 46 l 1
 431 8 378 -12 307 -12 c 0
 155 -12 57 89 57 259 c 0
 57 427 154 539 307 539 c 0
EndSplineSet
EndChar

StartChar: uni03F4
Encoding: 1012 1012 423
Width: 692
Flags: W
TopAccentHorizontal: 346
LayerCount: 2
Fore
SplineSet
346 701 m 0
 519 701 637 576 637 344 c 0
 637 116 519 -12 346 -12 c 0
 174 -12 55 112 55 343 c 0
 55 570 174 701 346 701 c 0
346 623 m 0
 240 623 164 554 153 386 c 1
 539 386 l 1
 529 554 455 623 346 623 c 0
346 66 m 0
 456 66 532 137 539 316 c 1
 153 316 l 1
 160 137 239 66 346 66 c 0
EndSplineSet
EndChar

StartChar: uni03F5
Encoding: 1013 1013 424
Width: 482
Flags: W
TopAccentHorizontal: 269
LayerCount: 2
Fore
SplineSet
294 63 m 0
 332 63 366 74 409 105 c 1
 452 46 l 1
 403 6 348 -12 292 -12 c 0
 145 -12 57 89 57 261 c 0
 57 430 147 539 289 539 c 0
 349 539 403 523 452 482 c 1
 409 426 l 1
 365 457 332 466 294 466 c 0
 215 466 160 412 154 305 c 1
 372 305 l 1
 372 235 l 1
 154 235 l 1
 160 115 211 63 294 63 c 0
EndSplineSet
EndChar

StartChar: uni03F6
Encoding: 1014 1014 425
Width: 484
Flags: W
TopAccentHorizontal: 231
LayerCount: 2
Fore
SplineSet
216 539 m 0
 344 539 427 451 427 266 c 0
 427 95 349 -12 197 -12 c 0
 130 -12 73 10 30 46 c 1
 74 105 l 1
 111 77 144 63 196 63 c 0
 270 63 323 112 330 235 c 1
 115 235 l 1
 115 305 l 1
 330 305 l 1
 322 415 283 466 212 466 c 0
 165 466 127 454 87 426 c 1
 45 482 l 1
 93 519 146 539 216 539 c 0
EndSplineSet
EndChar

StartChar: uni0400
Encoding: 1024 1024 426
Width: 535
Flags: W
LayerCount: 2
Fore
SplineSet
199 911 m 1
 400 804 l 1
 376 755 l 1
 160 834 l 1
 199 911 l 1
473 689 m 1
 462 613 l 1
 195 613 l 1
 195 388 l 1
 427 388 l 1
 427 312 l 1
 195 312 l 1
 195 76 l 1
 481 76 l 1
 481 0 l 1
 100 0 l 1
 100 689 l 1
 473 689 l 1
EndSplineSet
EndChar

StartChar: uni0401
Encoding: 1025 1025 427
Width: 535
Flags: W
LayerCount: 2
Fore
SplineSet
185 894 m 0
 217 894 242 869 242 837 c 0
 242 805 217 780 185 780 c 0
 152 780 127 805 127 837 c 0
 127 869 152 894 185 894 c 0
394 894 m 0
 427 894 452 869 452 837 c 0
 452 805 427 780 394 780 c 0
 362 780 337 805 337 837 c 0
 337 869 362 894 394 894 c 0
473 689 m 1
 462 613 l 1
 195 613 l 1
 195 388 l 1
 427 388 l 1
 427 312 l 1
 195 312 l 1
 195 76 l 1
 481 76 l 1
 481 0 l 1
 100 0 l 1
 100 689 l 1
 473 689 l 1
EndSplineSet
EndChar

StartChar: uni0402
Encoding: 1026 1026 428
Width: 717
Flags: W
LayerCount: 2
Fore
SplineSet
478 452 m 0
 608 452 682 371 682 235 c 2
 682 96 l 2
 682 -48 613 -102 502 -137 c 1
 477 -68 l 1
 568 -32 587 8 587 100 c 2
 587 234 l 2
 587 323 547 371 456 371 c 0
 387 371 343 343 306 297 c 1
 306 0 l 1
 211 0 l 1
 211 608 l 1
 15 608 l 1
 15 689 l 1
 507 689 l 1
 497 608 l 1
 306 608 l 1
 306 383 l 1
 346 426 400 452 478 452 c 0
EndSplineSet
EndChar

StartChar: uni0403
Encoding: 1027 1027 429
Width: 508
Flags: W
LayerCount: 2
Fore
SplineSet
436 834 m 1
 220 755 l 1
 196 804 l 1
 396 911 l 1
 436 834 l 1
498 689 m 1
 484 607 l 1
 195 607 l 1
 195 0 l 1
 100 0 l 1
 100 689 l 1
 498 689 l 1
EndSplineSet
EndChar

StartChar: uni0404
Encoding: 1028 1028 430
Width: 560
Flags: W
LayerCount: 2
Fore
SplineSet
493 125 m 1
 540 65 l 1
 503 26 436 -12 343 -12 c 0
 176 -12 55 113 55 345 c 0
 55 578 185 701 341 701 c 0
 428 701 477 677 532 633 c 1
 480 572 l 1
 437 607 395 623 347 623 c 0
 250 623 167 562 157 394 c 1
 417 394 l 1
 417 316 l 1
 156 316 l 1
 162 141 243 68 346 68 c 0
 411 68 454 96 493 125 c 1
EndSplineSet
EndChar

StartChar: uni0405
Encoding: 1029 1029 431
Width: 545
Flags: W
LayerCount: 2
Fore
SplineSet
270 701 m 0
 365 701 425 673 483 621 c 1
 431 563 l 1
 379 605 331 623 274 623 c 0
 205 623 150 591 150 525 c 0
 150 467 177 439 301 401 c 0
 411 367 505 324 505 192 c 0
 505 72 414 -12 259 -12 c 0
 160 -12 82 21 25 77 c 1
 77 135 l 1
 129 93 183 66 258 66 c 0
 339 66 406 106 406 189 c 0
 406 256 374 286 257 322 c 0
 123 363 53 414 53 521 c 0
 53 627 143 701 270 701 c 0
EndSplineSet
EndChar

StartChar: uni0406
Encoding: 1030 1030 432
Width: 295
Flags: W
LayerCount: 2
Fore
SplineSet
195 689 m 1
 195 0 l 1
 100 0 l 1
 100 689 l 1
 195 689 l 1
EndSplineSet
EndChar

StartChar: uni0407
Encoding: 1031 1031 433
Width: 295
Flags: W
LayerCount: 2
Fore
SplineSet
42 894 m 0
 74 894 99 869 99 837 c 0
 99 805 74 780 42 780 c 0
 9 780 -16 805 -16 837 c 0
 -16 869 9 894 42 894 c 0
251 894 m 0
 284 894 309 869 309 837 c 0
 309 805 284 780 251 780 c 0
 219 780 194 805 194 837 c 0
 194 869 219 894 251 894 c 0
195 689 m 1
 195 0 l 1
 100 0 l 1
 100 689 l 1
 195 689 l 1
EndSplineSet
EndChar

StartChar: uni0408
Encoding: 1032 1032 434
Width: 305
Flags: W
LayerCount: 2
Fore
SplineSet
210 689 m 1
 210 96 l 2
 210 -48 141 -102 30 -137 c 1
 5 -68 l 1
 96 -32 115 8 115 100 c 2
 115 689 l 1
 210 689 l 1
EndSplineSet
EndChar

StartChar: uni0409
Encoding: 1033 1033 435
Width: 899
Flags: W
LayerCount: 2
Fore
SplineSet
608 436 m 2
 772 436 874 368 874 223 c 0
 874 61 763 0 607 0 c 2
 435 0 l 1
 435 609 l 1
 248 609 l 1
 215 312 l 2
 188 66 152 25 37 -12 c 1
 14 62 l 1
 89 90 99 126 120 305 c 2
 165 689 l 1
 530 689 l 1
 530 436 l 1
 608 436 l 2
615 76 m 2
 706 76 773 103 773 221 c 0
 773 326 713 362 609 362 c 2
 530 362 l 1
 530 76 l 1
 615 76 l 2
EndSplineSet
EndChar

StartChar: uni040A
Encoding: 1034 1034 436
Width: 944
Flags: W
LayerCount: 2
Fore
SplineSet
668 416 m 2
 822 416 919 348 919 213 c 0
 919 61 808 0 662 0 c 2
 480 0 l 1
 480 342 l 1
 195 342 l 1
 195 0 l 1
 100 0 l 1
 100 689 l 1
 195 689 l 1
 195 416 l 1
 480 416 l 1
 480 689 l 1
 575 689 l 1
 575 416 l 1
 668 416 l 2
670 76 m 2
 751 76 818 103 818 211 c 0
 818 306 758 342 669 342 c 2
 575 342 l 1
 575 76 l 1
 670 76 l 2
EndSplineSet
EndChar

StartChar: uni040B
Encoding: 1035 1035 437
Width: 717
Flags: W
LayerCount: 2
Fore
SplineSet
476 452 m 0
 606 452 682 371 682 235 c 2
 682 0 l 1
 587 0 l 1
 587 234 l 2
 587 323 547 371 459 371 c 0
 390 371 343 343 306 297 c 1
 306 0 l 1
 211 0 l 1
 211 608 l 1
 15 608 l 1
 15 689 l 1
 507 689 l 1
 497 608 l 1
 306 608 l 1
 306 383 l 1
 346 426 400 452 476 452 c 0
EndSplineSet
EndChar

StartChar: uni040C
Encoding: 1036 1036 438
Width: 589
Flags: W
LayerCount: 2
Fore
SplineSet
372 911 m 1
 412 834 l 1
 196 755 l 1
 172 804 l 1
 372 911 l 1
560 689 m 1
 369 366 l 1
 579 0 l 1
 469 0 l 1
 289 323 l 1
 195 323 l 1
 195 0 l 1
 100 0 l 1
 100 689 l 1
 195 689 l 1
 195 401 l 1
 290 401 l 1
 460 689 l 1
 560 689 l 1
EndSplineSet
EndChar

StartChar: uni040D
Encoding: 1037 1037 439
Width: 683
Flags: W
LayerCount: 2
Fore
SplineSet
251 911 m 1
 452 804 l 1
 428 755 l 1
 212 834 l 1
 251 911 l 1
583 689 m 1
 583 0 l 1
 488 0 l 1
 488 336 l 2
 488 444 496 533 501 583 c 1
 222 0 l 1
 100 0 l 1
 100 689 l 1
 195 689 l 1
 195 353 l 2
 195 229 189 162 182 103 c 1
 464 689 l 1
 583 689 l 1
EndSplineSet
EndChar

StartChar: uni040E
Encoding: 1038 1038 440
Width: 540
Flags: W
LayerCount: 2
Fore
SplineSet
268 758 m 0
 188 758 126 801 118 875 c 1
 179 888 l 1
 193 845 221 828 268 828 c 0
 315 828 346 845 360 888 c 1
 421 875 l 1
 413 801 349 758 268 758 c 0
545 689 m 1
 345 186 l 2
 292 53 236 7 110 -12 c 1
 96 57 l 1
 188 75 226 104 256 189 c 1
 221 189 l 1
 0 689 l 1
 99 689 l 1
 284 247 l 1
 449 689 l 1
 545 689 l 1
EndSplineSet
EndChar

StartChar: uni040F
Encoding: 1039 1039 441
Width: 665
Flags: W
LayerCount: 2
Fore
SplineSet
565 689 m 1
 565 0 l 1
 372 0 l 1
 372 -150 l 1
 297 -150 l 1
 282 0 l 1
 100 0 l 1
 100 689 l 1
 195 689 l 1
 195 78 l 1
 470 78 l 1
 470 689 l 1
 565 689 l 1
EndSplineSet
EndChar

StartChar: uni0410
Encoding: 1040 1040 442
Width: 573
Flags: W
LayerCount: 2
Fore
SplineSet
467 0 m 1
 415 173 l 1
 154 173 l 1
 102 0 l 1
 6 0 l 1
 227 689 l 1
 347 689 l 1
 567 0 l 1
 467 0 l 1
177 250 m 1
 392 250 l 1
 285 610 l 1
 177 250 l 1
EndSplineSet
EndChar

StartChar: uni0411
Encoding: 1041 1041 443
Width: 579
Flags: W
LayerCount: 2
Fore
SplineSet
286 430 m 2
 447 430 549 362 549 220 c 0
 549 61 438 0 282 0 c 2
 100 0 l 1
 100 689 l 1
 475 689 l 1
 463 611 l 1
 195 611 l 1
 195 430 l 1
 286 430 l 2
290 76 m 2
 381 76 448 103 448 218 c 0
 448 320 388 356 287 356 c 2
 195 356 l 1
 195 76 l 1
 290 76 l 2
EndSplineSet
EndChar

StartChar: uni0412
Encoding: 1042 1042 444
Width: 608
Flags: W
LayerCount: 2
Fore
SplineSet
404 364 m 1
 484 350 563 313 563 196 c 0
 563 50 450 0 290 0 c 2
 100 0 l 1
 100 689 l 1
 263 689 l 2
 433 689 533 635 533 515 c 0
 533 430 471 378 404 364 c 1
273 614 m 2
 195 614 l 1
 195 397 l 1
 299 397 l 2
 376 397 436 435 436 508 c 0
 436 593 375 614 273 614 c 2
290 76 m 2
 390 76 463 96 463 196 c 0
 463 293 391 324 308 324 c 2
 195 324 l 1
 195 76 l 1
 290 76 l 2
EndSplineSet
EndChar

StartChar: uni0413
Encoding: 1043 1043 445
Width: 508
Flags: W
LayerCount: 2
Fore
SplineSet
498 689 m 1
 484 607 l 1
 195 607 l 1
 195 0 l 1
 100 0 l 1
 100 689 l 1
 498 689 l 1
EndSplineSet
EndChar

StartChar: uni0414
Encoding: 1044 1044 446
Width: 611
Flags: W
LayerCount: 2
Fore
SplineSet
511 78 m 1
 567 78 l 1
 567 -150 l 1
 492 -150 l 1
 477 0 l 1
 80 0 l 1
 65 -150 l 1
 -10 -150 l 1
 -10 78 l 1
 37 78 l 1
 91 131 99 201 136 489 c 2
 161 689 l 1
 511 689 l 1
 511 78 l 1
416 78 m 1
 416 611 l 1
 244 611 l 1
 230 485 l 2
 199 213 187 133 117 78 c 1
 416 78 l 1
EndSplineSet
EndChar

StartChar: uni0415
Encoding: 1045 1045 447
Width: 535
Flags: W
LayerCount: 2
Fore
SplineSet
473 689 m 1
 462 613 l 1
 195 613 l 1
 195 388 l 1
 427 388 l 1
 427 312 l 1
 195 312 l 1
 195 76 l 1
 481 76 l 1
 481 0 l 1
 100 0 l 1
 100 689 l 1
 473 689 l 1
EndSplineSet
EndChar

StartChar: uni0416
Encoding: 1046 1046 448
Width: 821
Flags: W
LayerCount: 2
Fore
SplineSet
797 689 m 1
 615 366 l 1
 816 0 l 1
 709 0 l 1
 538 323 l 1
 456 323 l 1
 456 0 l 1
 365 0 l 1
 365 323 l 1
 282 323 l 1
 110 0 l 1
 5 0 l 1
 206 366 l 1
 24 689 l 1
 126 689 l 1
 283 401 l 1
 365 401 l 1
 365 689 l 1
 456 689 l 1
 456 401 l 1
 538 401 l 1
 697 689 l 1
 797 689 l 1
EndSplineSet
EndChar

StartChar: uni0417
Encoding: 1047 1047 449
Width: 521
Flags: W
LayerCount: 2
Fore
SplineSet
230 -12 m 0
 145 -12 66 18 10 81 c 1
 66 135 l 1
 106 93 157 68 225 68 c 0
 320 68 374 118 374 199 c 0
 374 279 323 325 222 325 c 2
 156 325 l 1
 169 403 l 1
 223 403 l 2
 302 403 354 446 354 517 c 0
 354 575 321 623 238 623 c 0
 181 623 129 601 78 559 c 1
 28 616 l 1
 91 672 162 701 245 701 c 0
 384 701 453 623 453 525 c 0
 453 438 398 387 318 369 c 1
 402 360 476 305 476 198 c 0
 476 72 372 -12 230 -12 c 0
EndSplineSet
EndChar

StartChar: uni0418
Encoding: 1048 1048 450
Width: 683
Flags: W
LayerCount: 2
Fore
SplineSet
583 689 m 1
 583 0 l 1
 488 0 l 1
 488 336 l 2
 488 444 496 533 501 583 c 1
 222 0 l 1
 100 0 l 1
 100 689 l 1
 195 689 l 1
 195 353 l 2
 195 229 189 162 182 103 c 1
 464 689 l 1
 583 689 l 1
EndSplineSet
EndChar

StartChar: uni0419
Encoding: 1049 1049 451
Width: 683
Flags: W
LayerCount: 2
Fore
SplineSet
340 758 m 0
 260 758 198 801 190 875 c 1
 251 888 l 1
 265 845 293 828 340 828 c 0
 387 828 418 845 432 888 c 1
 493 875 l 1
 485 801 421 758 340 758 c 0
583 689 m 1
 583 0 l 1
 488 0 l 1
 488 336 l 2
 488 444 496 533 501 583 c 1
 222 0 l 1
 100 0 l 1
 100 689 l 1
 195 689 l 1
 195 353 l 2
 195 229 189 162 182 103 c 1
 464 689 l 1
 583 689 l 1
EndSplineSet
EndChar

StartChar: uni041A
Encoding: 1050 1050 452
Width: 589
Flags: W
LayerCount: 2
Fore
SplineSet
560 689 m 1
 369 366 l 1
 579 0 l 1
 469 0 l 1
 289 323 l 1
 195 323 l 1
 195 0 l 1
 100 0 l 1
 100 689 l 1
 195 689 l 1
 195 401 l 1
 290 401 l 1
 460 689 l 1
 560 689 l 1
EndSplineSet
EndChar

StartChar: uni041B
Encoding: 1051 1051 453
Width: 659
Flags: W
LayerCount: 2
Fore
SplineSet
165 689 m 1
 559 689 l 1
 559 0 l 1
 464 0 l 1
 464 609 l 1
 248 609 l 1
 215 312 l 2
 188 66 152 25 37 -12 c 1
 14 62 l 1
 89 90 99 126 120 305 c 2
 165 689 l 1
EndSplineSet
EndChar

StartChar: uni041C
Encoding: 1052 1052 454
Width: 778
Flags: W
LayerCount: 2
Fore
SplineSet
659 689 m 1
 716 0 l 1
 624 0 l 1
 600 311 l 2
 591 419 584 535 583 592 c 1
 434 78 l 1
 345 78 l 1
 188 593 l 1
 188 512 183 405 175 304 c 2
 152 0 l 1
 62 0 l 1
 119 689 l 1
 247 689 l 1
 392 188 l 1
 530 689 l 1
 659 689 l 1
EndSplineSet
EndChar

StartChar: uni041D
Encoding: 1053 1053 455
Width: 680
Flags: W
LayerCount: 2
Fore
SplineSet
485 0 m 1
 485 323 l 1
 195 323 l 1
 195 0 l 1
 100 0 l 1
 100 689 l 1
 195 689 l 1
 195 401 l 1
 485 401 l 1
 485 689 l 1
 580 689 l 1
 580 0 l 1
 485 0 l 1
EndSplineSet
EndChar

StartChar: uni041E
Encoding: 1054 1054 456
Width: 692
Flags: W
LayerCount: 2
Fore
SplineSet
346 701 m 0
 519 701 637 576 637 344 c 0
 637 116 519 -12 346 -12 c 0
 174 -12 55 112 55 343 c 0
 55 570 174 701 346 701 c 0
346 623 m 0
 231 623 156 542 156 343 c 0
 156 144 234 66 346 66 c 0
 462 66 536 144 536 344 c 0
 536 542 464 623 346 623 c 0
EndSplineSet
EndChar

StartChar: uni041F
Encoding: 1055 1055 457
Width: 675
Flags: W
LayerCount: 2
Fore
SplineSet
575 689 m 1
 575 0 l 1
 480 0 l 1
 480 608 l 1
 195 608 l 1
 195 0 l 1
 100 0 l 1
 100 689 l 1
 575 689 l 1
EndSplineSet
EndChar

StartChar: uni0420
Encoding: 1056 1056 458
Width: 581
Flags: W
LayerCount: 2
Fore
SplineSet
281 689 m 2
 447 689 549 621 549 476 c 0
 549 318 434 253 282 253 c 2
 195 253 l 1
 195 0 l 1
 100 0 l 1
 100 689 l 1
 281 689 l 2
278 328 m 2
 380 328 448 358 448 475 c 0
 448 578 382 615 280 615 c 2
 195 615 l 1
 195 328 l 1
 278 328 l 2
EndSplineSet
EndChar

StartChar: uni0421
Encoding: 1057 1057 459
Width: 560
Flags: W
LayerCount: 2
Fore
SplineSet
341 701 m 0
 428 701 477 677 532 633 c 1
 480 572 l 1
 437 607 395 623 347 623 c 0
 243 623 156 553 156 345 c 0
 156 146 239 68 346 68 c 0
 411 68 454 96 493 125 c 1
 540 65 l 1
 502 26 436 -12 343 -12 c 0
 176 -12 55 113 55 345 c 0
 55 578 185 701 341 701 c 0
EndSplineSet
EndChar

StartChar: uni0422
Encoding: 1058 1058 460
Width: 517
Flags: W
LayerCount: 2
Fore
SplineSet
507 689 m 1
 497 608 l 1
 306 608 l 1
 306 0 l 1
 211 0 l 1
 211 608 l 1
 15 608 l 1
 15 689 l 1
 507 689 l 1
EndSplineSet
EndChar

StartChar: uni0423
Encoding: 1059 1059 461
Width: 540
Flags: W
LayerCount: 2
Fore
SplineSet
545 689 m 1
 345 186 l 2
 292 53 236 7 110 -12 c 1
 96 57 l 1
 188 75 226 104 256 189 c 1
 221 189 l 1
 0 689 l 1
 99 689 l 1
 284 247 l 1
 449 689 l 1
 545 689 l 1
EndSplineSet
EndChar

StartChar: uni0424
Encoding: 1060 1060 462
Width: 820
Flags: W
LayerCount: 2
Fore
SplineSet
780 350 m 0
 780 147 654 50 456 45 c 1
 456 -33 l 1
 364 -33 l 1
 364 45 l 1
 151 54 40 161 40 348 c 0
 40 551 166 648 364 653 c 1
 364 723 l 1
 456 723 l 1
 456 653 l 1
 669 644 780 537 780 350 c 0
138 348 m 0
 138 192 215 122 366 116 c 1
 366 583 l 1
 213 574 138 508 138 348 c 0
454 115 m 1
 607 124 682 190 682 350 c 0
 682 506 605 576 454 582 c 1
 454 115 l 1
EndSplineSet
EndChar

StartChar: uni0425
Encoding: 1061 1061 463
Width: 540
Flags: W
LayerCount: 2
Fore
SplineSet
325 372 m 1
 535 0 l 1
 427 0 l 1
 268 305 l 1
 107 0 l 1
 5 0 l 1
 212 367 l 1
 23 689 l 1
 131 689 l 1
 270 430 l 1
 410 689 l 1
 512 689 l 1
 325 372 l 1
EndSplineSet
EndChar

StartChar: uni0426
Encoding: 1062 1062 464
Width: 665
Flags: W
LayerCount: 2
Fore
SplineSet
565 78 m 1
 645 78 l 1
 645 -150 l 1
 570 -150 l 1
 555 0 l 1
 100 0 l 1
 100 689 l 1
 195 689 l 1
 195 78 l 1
 470 78 l 1
 470 689 l 1
 565 689 l 1
 565 78 l 1
EndSplineSet
EndChar

StartChar: uni0427
Encoding: 1063 1063 465
Width: 612
Flags: W
LayerCount: 2
Fore
SplineSet
417 689 m 1
 512 689 l 1
 512 0 l 1
 417 0 l 1
 417 278 l 1
 360 236 313 217 242 217 c 0
 120 217 40 297 40 424 c 2
 40 689 l 1
 135 689 l 1
 135 431 l 2
 135 339 182 298 266 298 c 0
 336 298 384 324 417 356 c 1
 417 689 l 1
EndSplineSet
EndChar

StartChar: uni0428
Encoding: 1064 1064 466
Width: 925
Flags: W
LayerCount: 2
Fore
SplineSet
825 689 m 1
 825 0 l 1
 100 0 l 1
 100 689 l 1
 193 689 l 1
 193 78 l 1
 418 78 l 1
 418 689 l 1
 507 689 l 1
 507 78 l 1
 732 78 l 1
 732 689 l 1
 825 689 l 1
EndSplineSet
EndChar

StartChar: uni0429
Encoding: 1065 1065 467
Width: 925
Flags: W
LayerCount: 2
Fore
SplineSet
825 78 m 1
 905 78 l 1
 905 -150 l 1
 830 -150 l 1
 815 0 l 1
 100 0 l 1
 100 689 l 1
 193 689 l 1
 193 78 l 1
 418 78 l 1
 418 689 l 1
 507 689 l 1
 507 78 l 1
 732 78 l 1
 732 689 l 1
 825 689 l 1
 825 78 l 1
EndSplineSet
EndChar

StartChar: uni042A
Encoding: 1066 1066 468
Width: 685
Flags: W
LayerCount: 2
Fore
SplineSet
397 436 m 2
 558 436 660 368 660 223 c 0
 660 61 549 0 393 0 c 2
 211 0 l 1
 211 608 l 1
 15 608 l 1
 15 689 l 1
 306 689 l 1
 306 436 l 1
 397 436 l 2
401 76 m 2
 492 76 559 103 559 221 c 0
 559 326 499 362 398 362 c 2
 306 362 l 1
 306 76 l 1
 401 76 l 2
EndSplineSet
EndChar

StartChar: uni042B
Encoding: 1067 1067 469
Width: 819
Flags: W
LayerCount: 2
Fore
SplineSet
273 436 m 2
 437 436 539 368 539 223 c 0
 539 61 428 0 272 0 c 2
 100 0 l 1
 100 689 l 1
 195 689 l 1
 195 436 l 1
 273 436 l 2
624 689 m 1
 719 689 l 1
 719 0 l 1
 624 0 l 1
 624 689 l 1
280 76 m 2
 371 76 438 103 438 221 c 0
 438 326 378 362 274 362 c 2
 195 362 l 1
 195 76 l 1
 280 76 l 2
EndSplineSet
EndChar

StartChar: uni042C
Encoding: 1068 1068 470
Width: 574
Flags: W
LayerCount: 2
Fore
SplineSet
286 436 m 2
 447 436 549 368 549 223 c 0
 549 61 438 0 282 0 c 2
 100 0 l 1
 100 689 l 1
 195 689 l 1
 195 436 l 1
 286 436 l 2
290 76 m 2
 381 76 448 103 448 221 c 0
 448 326 388 362 287 362 c 2
 195 362 l 1
 195 76 l 1
 290 76 l 2
EndSplineSet
EndChar

StartChar: uni042D
Encoding: 1069 1069 471
Width: 537
Flags: W
LayerCount: 2
Fore
SplineSet
227 701 m 0
 372 701 482 605 482 345 c 0
 482 113 381 -12 214 -12 c 0
 122 -12 63 22 20 62 c 1
 68 121 l 1
 107 91 145 68 211 68 c 0
 314 68 377 141 381 316 c 1
 114 316 l 1
 114 394 l 1
 381 394 l 1
 375 567 308 623 226 623 c 0
 163 623 124 607 76 572 c 1
 27 630 l 1
 81 675 142 701 227 701 c 0
EndSplineSet
EndChar

StartChar: uni042E
Encoding: 1070 1070 472
Width: 899
Flags: W
LayerCount: 2
Fore
SplineSet
563 701 m 0
 733 701 844 576 844 344 c 0
 844 116 733 -12 563 -12 c 0
 400 -12 293 106 283 318 c 1
 195 318 l 1
 195 0 l 1
 100 0 l 1
 100 689 l 1
 195 689 l 1
 195 396 l 1
 284 396 l 1
 304 592 408 701 563 701 c 0
563 66 m 0
 673 66 743 144 743 344 c 0
 743 542 675 623 563 623 c 0
 454 623 383 542 383 338 c 0
 383 144 457 66 563 66 c 0
EndSplineSet
EndChar

StartChar: uni042F
Encoding: 1071 1071 473
Width: 606
Flags: W
LayerCount: 2
Fore
SplineSet
311 689 m 2
 506 689 l 1
 506 0 l 1
 411 0 l 1
 411 271 l 1
 271 271 l 1
 138 0 l 1
 30 0 l 1
 180 288 l 1
 92 322 48 391 48 477 c 0
 48 609 136 689 311 689 c 2
287 346 m 2
 411 346 l 1
 411 615 l 1
 317 615 l 2
 196 615 149 569 149 477 c 0
 149 388 206 346 287 346 c 2
EndSplineSet
EndChar

StartChar: uni0430
Encoding: 1072 1072 474
Width: 539
Flags: W
LayerCount: 2
Fore
SplineSet
445 123 m 2
 445 77 462 62 489 52 c 1
 468 -12 l 1
 415 -6 381 15 365 67 c 1
 328 12 272 -12 208 -12 c 0
 103 -12 40 53 40 147 c 0
 40 260 125 321 272 321 c 2
 353 321 l 1
 353 360 l 2
 353 436 316 464 243 464 c 0
 204 464 155 454 101 436 c 1
 78 503 l 1
 143 527 201 539 260 539 c 0
 387 539 445 474 445 364 c 2
 445 123 l 2
229 57 m 0
 283 57 323 84 353 139 c 1
 353 260 l 1
 284 260 l 2
 187 260 138 224 138 152 c 0
 138 90 169 57 229 57 c 0
EndSplineSet
EndChar

StartChar: uni0431
Encoding: 1073 1073 475
Width: 584
Flags: W
LayerCount: 2
Fore
SplineSet
336 493 m 0
 455 493 533 402 533 251 c 0
 533 81 439 -12 301 -12 c 0
 167 -12 68 79 68 290 c 0
 68 509 109 619 269 674 c 0
 346 700 385 717 436 751 c 1
 475 682 l 1
 437 658 390 631 313 606 c 0
 221 575 177 538 164 395 c 1
 200 454 259 493 336 493 c 0
301 62 m 0
 372 62 434 99 434 248 c 0
 434 374 390 419 319 419 c 0
 260 419 203 389 167 320 c 1
 167 256 l 2
 167 131 218 62 301 62 c 0
EndSplineSet
EndChar

StartChar: uni0432
Encoding: 1074 1074 476
Width: 561
Flags: W
LayerCount: 2
Fore
SplineSet
370 286 m 1
 460 277 504 235 504 162 c 0
 504 46 409 0 282 0 c 2
 92 0 l 1
 92 520 l 1
 146 531 207 539 265 539 c 0
 392 539 477 490 477 396 c 0
 477 336 440 298 370 286 c 1
266 468 m 0
 235 468 211 466 184 462 c 1
 184 313 l 1
 283 313 l 2
 342 313 383 332 383 392 c 0
 383 447 343 468 266 468 c 0
282 72 m 2
 351 72 407 89 407 164 c 0
 407 220 374 245 284 245 c 2
 184 245 l 1
 184 72 l 1
 282 72 l 2
EndSplineSet
EndChar

StartChar: uni0433
Encoding: 1075 1075 477
Width: 426
Flags: W
LayerCount: 2
Fore
SplineSet
184 0 m 1
 92 0 l 1
 92 527 l 1
 421 527 l 1
 409 451 l 1
 184 451 l 1
 184 0 l 1
EndSplineSet
EndChar

StartChar: uni0434
Encoding: 1076 1076 478
Width: 558
Flags: W
LayerCount: 2
Fore
SplineSet
463 74 m 1
 518 74 l 1
 518 -150 l 1
 443 -150 l 1
 428 0 l 1
 90 0 l 1
 75 -150 l 1
 0 -150 l 1
 0 74 l 1
 37 74 l 1
 76 100 104 125 119 331 c 2
 133 527 l 1
 463 527 l 1
 463 74 l 1
371 74 m 1
 371 454 l 1
 216 454 l 1
 208 343 l 2
 195 160 178 116 119 74 c 1
 371 74 l 1
EndSplineSet
EndChar

StartChar: uni0435
Encoding: 1077 1077 479
Width: 544
Flags: W
LayerCount: 2
Fore
SplineSet
493 279 m 0
 493 261 492 244 491 232 c 1
 155 232 l 1
 164 110 221 63 297 63 c 0
 349 63 388 77 434 109 c 1
 474 54 l 1
 422 13 363 -12 290 -12 c 0
 143 -12 57 91 57 258 c 0
 57 422 140 539 276 539 c 0
 418 539 493 440 493 279 c 0
402 300 m 1
 402 306 l 2
 402 409 361 466 278 466 c 0
 208 466 162 417 155 300 c 1
 402 300 l 1
EndSplineSet
EndChar

StartChar: uni0436
Encoding: 1078 1078 480
Width: 729
Flags: W
LayerCount: 2
Fore
SplineSet
685 527 m 1
 553 280 l 1
 704 0 l 1
 603 0 l 1
 478 239 l 1
 408 239 l 1
 408 0 l 1
 320 0 l 1
 320 239 l 1
 251 239 l 1
 125 0 l 1
 25 0 l 1
 176 280 l 1
 44 527 l 1
 140 527 l 1
 250 311 l 1
 320 311 l 1
 320 527 l 1
 408 527 l 1
 408 311 l 1
 479 311 l 1
 590 527 l 1
 685 527 l 1
EndSplineSet
EndChar

StartChar: uni0437
Encoding: 1079 1079 481
Width: 494
Flags: W
LayerCount: 2
Fore
SplineSet
225 539 m 0
 323 539 415 490 415 397 c 0
 415 338 383 302 309 282 c 1
 394 268 443 232 443 155 c 0
 443 41 341 -12 218 -12 c 0
 130 -12 66 14 15 54 c 1
 63 111 l 1
 108 79 151 62 215 62 c 0
 283 62 344 82 344 156 c 0
 344 222 283 239 206 239 c 2
 136 239 l 1
 142 311 l 1
 196 311 l 2
 265 311 320 334 320 393 c 0
 320 449 272 467 215 467 c 0
 156 467 118 450 79 424 c 1
 35 479 l 1
 87 518 145 539 225 539 c 0
EndSplineSet
EndChar

StartChar: uni0438
Encoding: 1080 1080 482
Width: 594
Flags: W
LayerCount: 2
Fore
SplineSet
502 527 m 1
 502 0 l 1
 411 0 l 1
 411 238 l 2
 411 331 420 411 422 423 c 2
 201 0 l 1
 92 0 l 1
 92 527 l 1
 183 527 l 1
 183 289 l 2
 183 207 175 120 173 107 c 1
 391 527 l 1
 502 527 l 1
EndSplineSet
EndChar

StartChar: uni0439
Encoding: 1081 1081 483
Width: 594
Flags: W
LayerCount: 2
Fore
SplineSet
295 643 m 0
 215 643 153 686 145 760 c 1
 206 773 l 1
 220 730 248 713 295 713 c 0
 342 713 373 730 387 773 c 1
 448 760 l 1
 440 686 376 643 295 643 c 0
502 527 m 1
 502 0 l 1
 411 0 l 1
 411 238 l 2
 411 331 420 411 422 423 c 2
 201 0 l 1
 92 0 l 1
 92 527 l 1
 183 527 l 1
 183 289 l 2
 183 207 175 120 173 107 c 1
 391 527 l 1
 502 527 l 1
EndSplineSet
EndChar

StartChar: uni043A
Encoding: 1082 1082 484
Width: 521
Flags: W
LayerCount: 2
Fore
SplineSet
487 527 m 1
 327 283 l 1
 506 0 l 1
 397 0 l 1
 251 243 l 1
 184 243 l 1
 184 0 l 1
 92 0 l 1
 92 527 l 1
 184 527 l 1
 184 315 l 1
 253 315 l 1
 386 527 l 1
 487 527 l 1
EndSplineSet
EndChar

StartChar: uni043B
Encoding: 1083 1083 485
Width: 573
Flags: W
LayerCount: 2
Fore
SplineSet
142 527 m 1
 481 527 l 1
 481 0 l 1
 389 0 l 1
 389 452 l 1
 226 452 l 1
 211 276 l 2
 194 75 174 23 60 -12 c 1
 37 61 l 1
 102 85 106 112 121 286 c 2
 142 527 l 1
EndSplineSet
EndChar

StartChar: uni043C
Encoding: 1084 1084 486
Width: 671
Flags: W
LayerCount: 2
Fore
SplineSet
563 527 m 1
 611 0 l 1
 521 0 l 1
 497 249 l 2
 491 307 491 359 491 438 c 1
 371 58 l 1
 284 58 l 1
 172 437 l 1
 172 371 172 305 168 250 c 2
 149 0 l 1
 60 0 l 1
 107 527 l 1
 226 527 l 1
 329 150 l 1
 442 527 l 1
 563 527 l 1
EndSplineSet
EndChar

StartChar: uni043D
Encoding: 1085 1085 487
Width: 587
Flags: W
LayerCount: 2
Fore
SplineSet
403 0 m 1
 403 232 l 1
 184 232 l 1
 184 0 l 1
 92 0 l 1
 92 527 l 1
 184 527 l 1
 184 306 l 1
 403 306 l 1
 403 527 l 1
 495 527 l 1
 495 0 l 1
 403 0 l 1
EndSplineSet
EndChar

StartChar: uni043E
Encoding: 1086 1086 488
Width: 584
Flags: W
LayerCount: 2
Fore
SplineSet
293 539 m 0
 443 539 527 431 527 264 c 0
 527 101 441 -12 292 -12 c 0
 142 -12 57 96 57 263 c 0
 57 426 143 539 293 539 c 0
293 465 m 0
 205 465 156 401 156 263 c 0
 156 126 204 62 292 62 c 0
 380 62 428 126 428 264 c 0
 428 401 380 465 293 465 c 0
EndSplineSet
EndChar

StartChar: uni043F
Encoding: 1087 1087 489
Width: 584
Flags: W
LayerCount: 2
Fore
SplineSet
400 0 m 1
 400 452 l 1
 184 452 l 1
 184 0 l 1
 92 0 l 1
 92 527 l 1
 492 527 l 1
 492 0 l 1
 400 0 l 1
EndSplineSet
EndChar

StartChar: uni0440
Encoding: 1088 1088 490
Width: 586
Flags: W
LayerCount: 2
Fore
SplineSet
334 539 m 0
 474 539 529 430 529 264 c 0
 529 104 458 -12 322 -12 c 0
 265 -12 218 7 184 48 c 1
 184 -202 l 1
 92 -213 l 1
 92 527 l 1
 171 527 l 1
 178 456 l 1
 217 510 274 539 334 539 c 0
300 63 m 0
 384 63 430 126 430 264 c 0
 430 401 390 466 311 466 c 0
 255 466 212 426 184 384 c 1
 184 127 l 1
 211 86 252 63 300 63 c 0
EndSplineSet
EndChar

StartChar: uni0441
Encoding: 1089 1089 491
Width: 478
Flags: W
LayerCount: 2
Fore
SplineSet
287 539 m 0
 349 539 399 523 448 482 c 1
 404 424 l 1
 368 450 335 463 291 463 c 0
 208 463 156 398 156 261 c 0
 156 123 208 66 291 66 c 0
 335 66 366 80 406 106 c 1
 448 46 l 1
 401 8 348 -12 287 -12 c 0
 145 -12 57 89 57 259 c 0
 57 427 144 539 287 539 c 0
EndSplineSet
EndChar

StartChar: uni0442
Encoding: 1090 1090 492
Width: 451
Flags: W
LayerCount: 2
Fore
SplineSet
451 527 m 1
 440 452 l 1
 271 452 l 1
 271 0 l 1
 179 0 l 1
 179 452 l 1
 5 452 l 1
 5 527 l 1
 451 527 l 1
EndSplineSet
EndChar

StartChar: uni0443
Encoding: 1091 1091 493
Width: 492
Flags: W
LayerCount: 2
Fore
SplineSet
482 527 m 1
 306 -3 l 2
 269 -115 207 -197 61 -213 c 1
 51 -141 l 1
 158 -123 188 -82 218 0 c 1
 187 0 l 1
 10 527 l 1
 108 527 l 1
 249 67 l 1
 387 527 l 1
 482 527 l 1
EndSplineSet
EndChar

StartChar: uni0444
Encoding: 1092 1092 494
Width: 806
Flags: W
LayerCount: 2
Fore
SplineSet
570 539 m 0
 705 539 749 430 749 264 c 0
 749 98 683 -12 568 -12 c 0
 518 -12 477 11 447 55 c 1
 447 -202 l 1
 359 -213 l 1
 359 55 l 1
 329 12 282 -12 230 -12 c 0
 122 -12 57 98 57 264 c 0
 57 430 101 539 231 539 c 0
 279 539 325 523 359 481 c 1
 359 750 l 1
 447 739 l 1
 447 479 l 1
 480 522 522 539 570 539 c 0
251 61 m 0
 294 61 332 86 359 127 c 1
 359 406 l 1
 331 443 294 466 250 466 c 0
 190 466 156 401 156 264 c 0
 156 127 192 61 251 61 c 0
551 61 m 0
 612 61 650 127 650 264 c 0
 650 401 616 466 551 466 c 0
 506 466 473 443 447 404 c 1
 447 126 l 1
 473 86 505 61 551 61 c 0
EndSplineSet
EndChar

StartChar: uni0445
Encoding: 1093 1093 495
Width: 485
Flags: W
LayerCount: 2
Fore
SplineSet
297 282 m 1
 480 0 l 1
 369 0 l 1
 240 223 l 1
 109 0 l 1
 5 0 l 1
 189 278 l 1
 26 527 l 1
 134 527 l 1
 244 334 l 1
 355 527 l 1
 459 527 l 1
 297 282 l 1
EndSplineSet
EndChar

StartChar: uni0446
Encoding: 1094 1094 496
Width: 585
Flags: W
LayerCount: 2
Fore
SplineSet
487 74 m 1
 570 74 l 1
 570 -150 l 1
 495 -150 l 1
 480 0 l 1
 92 0 l 1
 92 527 l 1
 184 527 l 1
 184 75 l 1
 395 75 l 1
 395 527 l 1
 487 527 l 1
 487 74 l 1
EndSplineSet
EndChar

StartChar: uni0447
Encoding: 1095 1095 497
Width: 549
Flags: W
LayerCount: 2
Fore
SplineSet
365 527 m 1
 457 527 l 1
 457 0 l 1
 365 0 l 1
 365 220 l 1
 327 185 267 162 206 162 c 0
 105 162 55 220 55 318 c 2
 55 527 l 1
 147 527 l 1
 147 329 l 2
 147 261 174 234 231 234 c 0
 276 234 335 256 365 291 c 1
 365 527 l 1
EndSplineSet
EndChar

StartChar: uni0448
Encoding: 1096 1096 498
Width: 790
Flags: W
LayerCount: 2
Fore
SplineSet
698 527 m 1
 698 0 l 1
 92 0 l 1
 92 527 l 1
 182 527 l 1
 182 74 l 1
 351 74 l 1
 351 527 l 1
 439 527 l 1
 439 74 l 1
 608 74 l 1
 608 527 l 1
 698 527 l 1
EndSplineSet
EndChar

StartChar: uni0449
Encoding: 1097 1097 499
Width: 796
Flags: W
LayerCount: 2
Fore
SplineSet
698 74 m 1
 781 74 l 1
 781 -150 l 1
 706 -150 l 1
 691 0 l 1
 92 0 l 1
 92 527 l 1
 182 527 l 1
 182 74 l 1
 351 74 l 1
 351 527 l 1
 439 527 l 1
 439 74 l 1
 608 74 l 1
 608 527 l 1
 698 527 l 1
 698 74 l 1
EndSplineSet
EndChar

StartChar: uni044A
Encoding: 1098 1098 500
Width: 597
Flags: W
LayerCount: 2
Fore
SplineSet
338 357 m 2
 503 357 562 287 562 180 c 0
 562 54 462 0 355 0 c 2
 176 0 l 1
 176 457 l 1
 5 457 l 1
 5 527 l 1
 271 527 l 1
 268 525 l 1
 268 357 l 1
 338 357 l 2
347 72 m 2
 416 72 464 98 464 180 c 0
 464 250 434 287 337 287 c 2
 268 287 l 1
 268 72 l 1
 347 72 l 2
EndSplineSet
EndChar

